<svg width="52" height="52" viewBox="0 0 52 52" fill="none" xmlns="http://www.w3.org/2000/svg">
<g clip-path="url(#clip0_49_1984)">
<path d="M26 52C40.3594 52 52 40.3594 52 26C52 11.6406 40.3594 0 26 0C11.6406 0 0 11.6406 0 26C0 40.3594 11.6406 52 26 52Z" fill="url(#paint0_linear_49_1984)"/>
<path fill-rule="evenodd" clip-rule="evenodd" d="M11.7691 25.7255C19.3486 22.4233 24.4028 20.2462 26.9317 19.1943C34.1522 16.1911 35.6525 15.6694 36.6305 15.6522C36.8455 15.6484 37.3265 15.7017 37.638 15.9545C37.901 16.1679 37.9734 16.4562 38.008 16.6586C38.0426 16.8609 38.0858 17.3219 38.0515 17.6821C37.6602 21.7933 35.9671 31.7701 35.1058 36.3748C34.7413 38.3232 34.0237 38.9764 33.3289 39.0404C31.8191 39.1793 30.6725 38.0425 29.2102 37.0839C26.9218 35.5839 25.6291 34.6501 23.4078 33.1864C20.8408 31.4948 22.5049 30.565 23.9678 29.0455C24.3507 28.6479 31.0032 22.5969 31.132 22.048C31.1481 21.9794 31.163 21.7235 31.011 21.5883C30.859 21.4532 30.6346 21.4994 30.4727 21.5362C30.2432 21.5883 26.5875 24.0045 19.5057 28.7849C18.4681 29.4974 17.5282 29.8446 16.6861 29.8264C15.7578 29.8063 13.972 29.3015 12.6445 28.87C11.0163 28.3407 9.72218 28.0609 9.83486 27.162C9.89356 26.6938 10.5383 26.215 11.7691 25.7255Z" fill="#273237"/>
</g>
<defs>
<linearGradient id="paint0_linear_49_1984" x1="26" y1="0" x2="26" y2="51.6143" gradientUnits="userSpaceOnUse">
<stop stop-color="white"/>
<stop offset="1" stop-color="white"/>
</linearGradient>
<clipPath id="clip0_49_1984">
<rect width="52" height="52" fill="white"/>
</clipPath>
</defs>
</svg>
