<svg width="52" height="52" viewBox="0 0 52 52" fill="none" xmlns="http://www.w3.org/2000/svg">
<g clip-path="url(#clip0_49_1981)">
<path d="M0 24.96C0 13.1937 0 7.31062 3.65531 3.65531C7.31062 0 13.1937 0 24.96 0H27.04C38.8063 0 44.6893 0 48.3447 3.65531C52 7.31062 52 13.1937 52 24.96V27.04C52 38.8063 52 44.6893 48.3447 48.3447C44.6893 52 38.8063 52 27.04 52H24.96C13.1937 52 7.31062 52 3.65531 48.3447C0 44.6893 0 38.8063 0 27.04V24.96Z" fill="white"/>
<path d="M27.5791 37.44C15.4979 37.44 8.60712 29.2418 8.32 15.6H14.3716C14.5704 25.6127 19.0317 29.8539 22.5655 30.7284V15.6H28.2639V24.2354C31.7536 23.8638 35.4194 19.9286 36.6563 15.6H42.3546C41.4049 20.9343 37.4294 24.8694 34.6024 26.4872C37.4294 27.7989 41.9573 31.2312 43.68 37.44H37.4073C36.06 33.2862 32.7033 30.0725 28.2639 29.6353V37.44H27.5791Z" fill="#273237"/>
</g>
<defs>
<clipPath id="clip0_49_1981">
<rect width="52" height="52" fill="white"/>
</clipPath>
</defs>
</svg>
