<svg width="52" height="52" viewBox="0 0 52 52" fill="none" xmlns="http://www.w3.org/2000/svg">
<g clip-path="url(#clip0_49_801)">
<path d="M0 24.96C0 13.1937 0 7.31062 3.65531 3.65531C7.31062 0 13.1937 0 24.96 0H27.04C38.8063 0 44.6893 0 48.3447 3.65531C52 7.31062 52 13.1937 52 24.96V27.04C52 38.8063 52 44.6893 48.3447 48.3447C44.6893 52 38.8063 52 27.04 52H24.96C13.1937 52 7.31062 52 3.65531 48.3447C0 44.6893 0 38.8063 0 27.04V24.96Z" fill="#D0E6F8"/>
<path d="M27.579 37.4401C15.4979 37.4401 8.60707 29.2419 8.31995 15.6001H14.3716C14.5703 25.6128 19.0316 29.854 22.5654 30.7285V15.6001H28.2639V24.2355C31.7535 23.8639 35.4194 19.9287 36.6562 15.6001H42.3546C41.4048 20.9344 37.4293 24.8695 34.6023 26.4873C37.4293 27.799 41.9572 31.2313 43.6799 37.4401H37.4072C36.06 33.2863 32.7032 30.0727 28.2639 29.6354V37.4401H27.579Z" fill="#273237"/>
</g>
<defs>
<clipPath id="clip0_49_801">
<rect width="52" height="52" fill="white"/>
</clipPath>
</defs>
</svg>
