<svg width="300" height="224" viewBox="0 0 300 224" fill="none" xmlns="http://www.w3.org/2000/svg">
<mask id="mask0_49_1396" style="mask-type:alpha" maskUnits="userSpaceOnUse" x="36" y="6" width="228" height="163">
<path d="M262.752 103.961C260.274 93.3915 252.282 78.9616 242.4 73.2979C231.666 67.1291 219.714 71.7226 208.17 69.6182C178.2 64.1289 183.96 32.4673 163.2 17.2858C144.408 3.5173 111.546 1.93603 95.6399 21.4284C77.4419 43.7406 92.6819 74.8671 71.0399 96.7464C54.2399 113.762 23.0879 128.576 43.8239 156.33C63.5699 182.755 95.3219 158.476 119.28 151.977C134.861 147.733 151.038 146.12 167.148 147.203C183.474 148.321 199.128 154.478 215.586 154.033C243.954 153.264 269.748 133.759 262.752 103.961Z" fill="#37474F"/>
</mask>
<g mask="url(#mask0_49_1396)">
<path d="M262.752 103.961C260.274 93.3915 252.282 78.9616 242.4 73.2979C231.666 67.1291 219.714 71.7226 208.17 69.6182C178.2 64.1289 183.96 32.4673 163.2 17.2858C144.408 3.5173 111.546 1.93603 95.6399 21.4284C77.4419 43.7406 92.6819 74.8671 71.0399 96.7464C54.2399 113.762 23.0879 128.576 43.8239 156.33C63.5699 182.755 95.3219 158.476 119.28 151.977C134.861 147.733 151.038 146.12 167.148 147.203C183.474 148.321 199.128 154.478 215.586 154.033C243.954 153.264 269.748 133.759 262.752 103.961Z" fill="#A1CDF1"/>
<path d="M165.113 227.72C177.62 228.115 196.068 223.522 205.322 214.21C215.391 204.1 213.843 189.423 219.629 177.199C234.681 145.471 268.211 161.329 291.305 142.746C312.239 125.932 323.803 89.8186 306.847 66.2958C287.435 39.3803 248.236 47.0617 230.334 16.4411C216.403 -7.33797 209.203 -46.4386 172.119 -31.6324C136.81 -17.5319 154.367 25.0597 154.456 53.6707C154.533 72.2826 151.503 90.774 145.492 108.386C139.377 126.228 127.853 141.819 123.439 160.274C115.833 192.085 129.853 226.62 165.113 227.72Z" fill="#F0A6CA"/>
</g>
<path d="M150 224C214.249 224 266.334 220.953 266.334 217.194C266.334 213.435 214.249 210.388 150 210.388C85.7505 210.388 33.666 213.435 33.666 217.194C33.666 220.953 85.7505 224 150 224Z" fill="#F5F5F5"/>
<path d="M147.948 46.8972C150.87 48.9294 154.386 54.7735 155.274 59.7578C155.274 59.7578 147.012 61.6397 144.678 54.9478C142.71 49.3022 147.948 46.8972 147.948 46.8972Z" fill="#263238"/>
<path d="M151.554 53.2103C152.154 56.2465 152.754 61.8021 150.624 63.8282C150.624 63.8282 151.404 65.5177 156.24 65.632C160.758 65.7643 160.032 63.8282 160.032 63.8282C156.654 63.0226 156.744 60.5094 157.332 58.1525L151.554 53.2103Z" fill="#E4897B"/>
<path d="M153.912 55.2305L157.326 58.1525C157.184 58.7007 157.088 59.2598 157.038 59.824C155.748 59.6376 153.978 58.2187 153.84 56.8659C153.763 56.3209 153.788 55.7665 153.912 55.2305Z" fill="#CE6F64"/>
<path d="M155.898 38.9427C156.75 37.5899 163.056 35.3833 163.824 45.7187C164.064 48.9535 165.114 49.1398 166.482 53.0179C168.414 58.5012 164.034 59.9683 162.156 58.3389C162.156 58.3389 166.17 60.1426 165.006 55.8858C164.346 53.4808 162.006 53.6492 161.526 49.3864C161.088 45.5985 155.898 38.9427 155.898 38.9427Z" fill="#263238"/>
<path d="M148.2 48.5266C149.796 53.3365 150.366 55.4168 153.498 57.2747C158.214 60.0705 163.764 57.0522 163.638 51.8635C163.53 47.1858 160.938 40.0971 155.64 39.4177C154.473 39.2625 153.287 39.4086 152.192 39.8421C151.098 40.2756 150.132 40.9822 149.387 41.8947C148.642 42.8072 148.141 43.8954 147.934 45.0561C147.726 46.2167 147.818 47.4114 148.2 48.5266Z" fill="#E4897B"/>
<path d="M151.008 38.6481C152.388 41.9369 152.208 48.761 150.294 53.4447C150.294 53.4447 142.314 50.5828 143.934 43.6805C145.308 37.8785 151.008 38.6481 151.008 38.6481Z" fill="#263238"/>
<path d="M160.164 39.7905C158.364 42.8689 152.31 45.34 147.42 46.6086C147.42 46.6086 143.952 39.6823 150.42 36.8504C155.916 34.4514 160.164 39.7905 160.164 39.7905Z" fill="#263238"/>
<path d="M156 47.9313C156.102 48.3282 156.402 48.5927 156.66 48.5326C156.918 48.4725 157.044 48.0817 156.942 47.6848C156.84 47.288 156.54 47.0174 156.276 47.0836C156.012 47.1497 155.868 47.5285 156 47.9313Z" fill="#263238"/>
<path d="M160.47 46.7349C160.578 47.1317 160.872 47.4022 161.136 47.3361C161.4 47.27 161.52 46.8912 161.412 46.4944C161.304 46.0975 161.01 45.827 160.752 45.8931C160.494 45.9593 160.368 46.338 160.47 46.7349Z" fill="#263238"/>
<path d="M160.644 45.9412L161.526 45.4121C161.526 45.4121 161.232 46.296 160.644 45.9412Z" fill="#263238"/>
<path d="M159.462 47.7389C160.059 48.5519 160.764 49.2801 161.556 49.9034C161.39 50.1013 161.184 50.2612 160.951 50.3722C160.718 50.4832 160.464 50.5427 160.206 50.5468L159.462 47.7389Z" fill="#DE5753"/>
<path d="M158.232 52.609C157.461 52.6169 156.711 52.3578 156.108 51.8755C156.088 51.8543 156.077 51.8264 156.077 51.7973C156.077 51.7683 156.088 51.7403 156.108 51.7192C156.118 51.7086 156.13 51.7002 156.144 51.6945C156.157 51.6888 156.171 51.6858 156.186 51.6858C156.201 51.6858 156.215 51.6888 156.228 51.6945C156.242 51.7002 156.254 51.7086 156.264 51.7192C156.672 52.0317 157.146 52.2445 157.651 52.3405C158.155 52.4365 158.674 52.4132 159.168 52.2723C159.197 52.2649 159.227 52.2688 159.253 52.2834C159.279 52.298 159.298 52.3221 159.306 52.3505C159.312 52.3783 159.307 52.4073 159.293 52.4317C159.278 52.4562 159.255 52.4744 159.228 52.4827C158.903 52.5694 158.568 52.6118 158.232 52.609Z" fill="#263238"/>
<path d="M148.68 53.9859C149.25 54.7852 150.113 55.3256 151.08 55.489C152.358 55.6994 152.88 54.515 152.382 53.3786C151.95 52.3565 150.768 51.0157 149.538 51.3284C149.271 51.4006 149.026 51.5386 148.825 51.7299C148.624 51.9212 148.475 52.1598 148.389 52.4238C148.304 52.6878 148.286 52.969 148.337 53.2418C148.388 53.5146 148.506 53.7704 148.68 53.9859Z" fill="#E4897B"/>
<path d="M154.266 46.2959C154.242 46.3018 154.218 46.3018 154.194 46.2959C154.139 46.2756 154.095 46.2346 154.07 46.1817C154.046 46.1288 154.043 46.0684 154.062 46.0133C154.518 44.8109 156.126 44.1014 156.192 44.0713C156.219 44.0563 156.25 44.0471 156.281 44.0446C156.312 44.042 156.343 44.0461 156.373 44.0565C156.402 44.0669 156.429 44.0834 156.452 44.105C156.474 44.1266 156.492 44.1527 156.504 44.1816C156.516 44.2106 156.522 44.2417 156.521 44.273C156.52 44.3043 156.512 44.335 156.499 44.3632C156.485 44.3914 156.466 44.4164 156.442 44.4365C156.418 44.4567 156.39 44.4715 156.36 44.4802C156.36 44.4802 154.86 45.1235 154.476 46.1697C154.457 46.2085 154.427 46.2411 154.389 46.2635C154.352 46.2858 154.309 46.2971 154.266 46.2959Z" fill="#263238"/>
<path d="M161.58 42.8809C161.537 42.88 161.496 42.8675 161.46 42.8448C161.206 42.6712 160.916 42.56 160.611 42.5203C160.307 42.4806 159.997 42.5135 159.708 42.6163C159.657 42.6291 159.603 42.6233 159.556 42.5999C159.509 42.5766 159.471 42.5372 159.45 42.4889C159.43 42.4405 159.426 42.3863 159.442 42.3358C159.457 42.2854 159.49 42.2421 159.534 42.2135C159.89 42.083 160.272 42.0389 160.649 42.0848C161.025 42.1308 161.385 42.2656 161.7 42.4781C161.749 42.5101 161.784 42.5603 161.796 42.6177C161.808 42.6752 161.798 42.7352 161.766 42.7847C161.745 42.8144 161.717 42.8387 161.685 42.8554C161.652 42.8722 161.616 42.8809 161.58 42.8809Z" fill="#263238"/>
<path d="M156.144 47.1377L157.026 46.6086C157.026 46.6086 156.738 47.4984 156.144 47.1377Z" fill="#263238"/>
<path d="M117.828 192.519L122.304 194.984L129.432 185.394L124.962 182.935L117.828 192.519Z" fill="#E4897B"/>
<path d="M157.278 211.097H162.384L162.72 199.259H157.62L157.278 211.097Z" fill="#E4897B"/>
<path d="M162.72 199.265L162.546 205.367H157.44L157.614 199.265H162.72Z" fill="#CE6F64"/>
<path d="M124.956 182.935L129.432 185.4L125.754 190.336L121.278 187.877L124.956 182.935Z" fill="#CE6F64"/>
<path d="M166.2 95.9949C166.2 95.9949 170.226 135.382 169.89 150.979C169.542 167.212 163.614 204.183 163.614 204.183H156.714C156.714 204.183 157.806 168.144 157.194 152.217C156.528 134.847 151.026 95.9949 151.026 95.9949H166.2Z" fill="#37474F"/>
<path opacity="0.6" d="M166.2 95.9949C166.2 95.9949 170.226 135.382 169.89 150.979C169.542 167.212 163.614 204.183 163.614 204.183H156.714C156.714 204.183 157.806 168.144 157.194 152.217C156.528 134.847 151.026 95.9949 151.026 95.9949H166.2Z" fill="white"/>
<path opacity="0.32" d="M157.278 105.819C162.372 116.082 158.304 134.799 156.504 141.762C155.58 131.306 154.02 118.518 152.808 109.132C153.6 103.793 154.932 101.069 157.278 105.819Z" fill="#37474F"/>
<path d="M160.746 95.9949C160.746 95.9949 156.054 136.946 152.508 150.107C148.308 165.739 127.398 189.915 127.398 189.915L121.302 186.554C121.302 186.554 135.798 159.39 139.02 151.165C145.884 133.621 140.004 107.467 145.494 96.0129L160.746 95.9949Z" fill="#37474F"/>
<path opacity="0.6" d="M160.746 95.9949C160.746 95.9949 156.054 136.946 152.508 150.107C148.308 165.739 127.398 189.915 127.398 189.915L121.302 186.554C121.302 186.554 135.798 159.39 139.02 151.165C145.884 133.621 140.004 107.467 145.494 96.0129L160.746 95.9949Z" fill="white"/>
<path d="M162.558 210.508H156.822C156.724 210.507 156.628 210.542 156.553 210.606C156.478 210.67 156.429 210.759 156.414 210.857L155.766 215.402C155.754 215.517 155.765 215.633 155.8 215.743C155.836 215.853 155.894 215.954 155.971 216.04C156.048 216.125 156.142 216.194 156.248 216.24C156.353 216.287 156.467 216.311 156.582 216.31C158.58 216.274 159.546 216.16 162.066 216.16C163.614 216.16 166.824 216.322 168.966 216.322C171.108 216.322 171.222 214.2 170.328 214.007C166.332 213.142 164.754 211.957 163.41 210.821C163.171 210.62 162.87 210.509 162.558 210.508Z" fill="#263238"/>
<path d="M164.472 211.392C163.933 211.382 163.397 211.319 162.87 211.206C162.847 211.203 162.826 211.193 162.809 211.176C162.793 211.16 162.783 211.138 162.78 211.115C162.777 211.093 162.782 211.069 162.792 211.049C162.803 211.029 162.82 211.012 162.84 211.001C163.068 210.881 165.09 209.847 165.72 210.183C165.776 210.215 165.824 210.26 165.858 210.315C165.893 210.369 165.913 210.432 165.918 210.496C165.934 210.606 165.923 210.719 165.885 210.824C165.847 210.929 165.785 211.023 165.702 211.097C165.338 211.333 164.904 211.437 164.472 211.392ZM163.23 211.049C164.382 211.248 165.24 211.2 165.558 210.917C165.611 210.867 165.652 210.805 165.676 210.736C165.7 210.667 165.707 210.593 165.696 210.52C165.696 210.491 165.689 210.462 165.674 210.436C165.659 210.411 165.638 210.39 165.612 210.376C165.264 210.183 164.07 210.646 163.23 211.037V211.049Z" fill="#37474F"/>
<path d="M162.888 211.212C162.869 211.219 162.847 211.219 162.828 211.212C162.813 211.201 162.8 211.186 162.792 211.169C162.783 211.153 162.779 211.134 162.78 211.115C162.78 211.055 162.9 209.684 163.542 209.149C163.633 209.073 163.738 209.015 163.851 208.98C163.965 208.945 164.084 208.933 164.202 208.945C164.526 208.981 164.622 209.143 164.646 209.276C164.736 209.877 163.542 210.947 162.936 211.224L162.888 211.212ZM164.088 209.137C163.931 209.138 163.78 209.196 163.662 209.3C163.282 209.753 163.053 210.314 163.008 210.905C163.638 210.532 164.472 209.654 164.412 209.288C164.412 209.288 164.412 209.161 164.16 209.143L164.088 209.137Z" fill="#37474F"/>
<path d="M123.264 194.377L118.704 190.895C118.627 190.834 118.53 190.803 118.432 190.809C118.333 190.814 118.24 190.856 118.17 190.926L114.906 194.148C114.829 194.231 114.77 194.329 114.733 194.437C114.696 194.544 114.681 194.658 114.69 194.771C114.699 194.884 114.732 194.994 114.785 195.094C114.839 195.193 114.913 195.281 115.002 195.351C116.616 196.553 117.45 197.028 119.454 198.561C120.69 199.505 122.394 201.008 124.098 202.307C125.802 203.606 127.2 202.019 126.6 201.309C123.942 198.195 124.158 196.866 123.774 195.146C123.701 194.837 123.52 194.564 123.264 194.377Z" fill="#263238"/>
<path d="M168.654 65.139C168.654 65.139 171.09 65.9988 166.218 95.9949H145.494C145.842 87.5775 145.854 82.3346 141.822 64.9887C144.717 64.3911 147.65 64.0033 150.6 63.8283C153.732 63.6025 156.876 63.6025 160.008 63.8283C164.076 64.201 168.654 65.139 168.654 65.139Z" fill="#263238"/>
<path d="M124.986 196.517C124.356 196.517 123.576 195.687 123.186 195.176C123.175 195.158 123.17 195.137 123.17 195.116C123.17 195.095 123.175 195.074 123.186 195.056C123.196 195.036 123.211 195.02 123.231 195.009C123.25 194.998 123.272 194.994 123.294 194.996C123.498 194.996 125.334 195.158 125.64 195.723C125.677 195.785 125.697 195.856 125.697 195.928C125.697 196 125.677 196.071 125.64 196.132C125.591 196.238 125.516 196.329 125.421 196.397C125.326 196.464 125.216 196.506 125.1 196.517H124.986ZM123.504 195.242C124.104 195.94 124.662 196.331 125.028 196.295C125.11 196.284 125.188 196.252 125.253 196.201C125.319 196.151 125.369 196.083 125.4 196.006C125.416 195.977 125.425 195.944 125.425 195.91C125.425 195.876 125.416 195.843 125.4 195.814C125.244 195.519 124.242 195.321 123.504 195.242Z" fill="#37474F"/>
<path d="M123.42 195.23H123.234C123.215 195.228 123.197 195.221 123.181 195.209C123.166 195.198 123.154 195.182 123.147 195.164C123.14 195.147 123.137 195.127 123.14 195.108C123.142 195.089 123.15 195.071 123.162 195.056C123.198 195.002 124.092 193.854 124.824 193.787C124.915 193.777 125.007 193.788 125.094 193.82C125.18 193.851 125.258 193.902 125.322 193.968C125.395 194.026 125.446 194.107 125.466 194.197C125.487 194.288 125.476 194.383 125.436 194.467C125.208 194.93 124.05 195.23 123.42 195.23ZM124.878 193.992H124.842C124.392 193.992 123.786 194.629 123.468 195.002C124.068 195.002 125.082 194.683 125.238 194.353C125.268 194.299 125.286 194.22 125.166 194.106C125.128 194.069 125.083 194.039 125.033 194.02C124.984 194 124.931 193.991 124.878 193.992Z" fill="#37474F"/>
<path d="M148.002 97.1313H147.444C147.33 97.1313 147.246 97.0711 147.252 97.005L147.516 94.6C147.516 94.5279 147.624 94.4677 147.732 94.4677H148.296C148.41 94.4677 148.494 94.5279 148.482 94.6L148.224 97.005C148.2 97.0711 148.116 97.1313 148.002 97.1313Z" fill="#37474F"/>
<path d="M164.742 97.1313H164.178C164.07 97.1313 163.98 97.0711 163.992 97.005L164.256 94.6C164.256 94.5279 164.358 94.4677 164.472 94.4677H165.036C165.144 94.4677 165.228 94.5279 165.222 94.6L164.958 97.005C164.952 97.0711 164.856 97.1313 164.742 97.1313Z" fill="#37474F"/>
<path d="M156.132 204.43H164.226L164.82 201.844L155.754 201.525L156.132 204.43Z" fill="#37474F"/>
<path opacity="0.5" d="M156.132 204.43H164.226L164.82 201.844L155.754 201.525L156.132 204.43Z" fill="black"/>
<path d="M120.426 186.47L127.992 190.637L130.104 188.701L121.428 183.398L120.426 186.47Z" fill="#37474F"/>
<path opacity="0.5" d="M120.426 186.47L127.992 190.637L130.104 188.701L121.428 183.398L120.426 186.47Z" fill="black"/>
<path d="M145.2 94.7804L144.666 96.6382C144.594 96.7825 144.768 96.9268 145.002 96.9268H166.32C166.506 96.9268 166.662 96.8366 166.674 96.7224L166.86 94.8585C166.86 94.7323 166.71 94.6241 166.506 94.6241H145.506C145.446 94.6225 145.386 94.636 145.333 94.6633C145.28 94.6906 145.234 94.7308 145.2 94.7804Z" fill="#37474F"/>
<path opacity="0.3" d="M145.2 94.7804L144.666 96.6382C144.594 96.7825 144.768 96.9268 145.002 96.9268H166.32C166.506 96.9268 166.662 96.8366 166.674 96.7224L166.86 94.8585C166.86 94.7323 166.71 94.6241 166.506 94.6241H145.506C145.446 94.6225 145.386 94.636 145.333 94.6633C145.28 94.6906 145.234 94.7308 145.2 94.7804Z" fill="black"/>
<path d="M160.458 63.215C160.458 63.215 161.724 90.3131 161.658 105.362C161.592 120.411 163.998 136.627 163.998 136.627L174.198 132.935C174.198 132.935 168.108 101.671 168.42 92.2552C168.732 82.8397 169.902 65.7162 169.902 65.7162C169.902 65.7162 166.638 63.3473 160.458 63.215Z" fill="#37474F"/>
<path opacity="0.3" d="M160.458 63.215C160.458 63.215 161.724 90.3131 161.658 105.362C161.592 120.411 163.998 136.627 163.998 136.627L174.198 132.935C174.198 132.935 168.108 101.671 168.42 92.2552C168.732 82.8397 169.902 65.7162 169.902 65.7162C169.902 65.7162 166.638 63.3473 160.458 63.215Z" fill="black"/>
<path d="M150.72 63.0587C150.72 63.0587 150.954 91.8343 151.044 106.883C151.134 121.933 149.592 136.483 149.592 136.483L135.996 133.477C135.996 133.477 143.106 101.484 142.794 92.0928C142.482 82.7014 140.394 64.646 140.394 64.646C143.741 63.6156 147.219 63.0809 150.72 63.0587Z" fill="#37474F"/>
<path opacity="0.3" d="M150.72 63.0587C150.72 63.0587 150.954 91.8343 151.044 106.883C151.134 121.933 149.592 136.483 149.592 136.483L135.996 133.477C135.996 133.477 143.106 101.484 142.794 92.0928C142.482 82.7014 140.394 64.646 140.394 64.646C143.741 63.6156 147.219 63.0809 150.72 63.0587Z" fill="black"/>
<path d="M175.8 83.014C175.758 82.8096 175.71 82.6052 175.668 82.4128C175.578 82.0159 175.482 81.6191 175.392 81.2103C175.26 80.6511 175.122 80.0919 174.99 79.5328C174.822 78.8594 174.654 78.186 174.48 77.5186C174.306 76.8512 174.09 76.0396 173.88 75.3C173.67 74.5605 173.448 73.7849 173.22 73.0273C172.992 72.2697 172.764 71.5603 172.518 70.8328C172.272 70.1053 172.056 69.51 171.792 68.8607C171.576 68.3196 171.336 67.7784 171.066 67.2554C170.889 66.8574 170.665 66.482 170.4 66.137C170.262 65.9552 170.083 65.8089 169.878 65.7102C167.916 64.9225 165.99 66.2573 165.294 68.6863L165.474 74.5905C166.194 76.2319 166.872 77.8914 167.502 79.5388C168.132 81.1862 168.702 82.8577 169.146 84.4871C169.597 86.0121 169.875 87.5833 169.974 89.1708C169.995 90.8581 169.887 92.5445 169.65 94.2152C169.422 95.9588 169.122 97.7325 168.768 99.5122C168.066 103.054 167.226 106.667 166.338 110.202L169.668 111.477C171.355 108.056 172.802 104.523 174 100.901C174.6 99.0973 175.14 97.2214 175.572 95.3035C176.051 93.3186 176.348 91.294 176.46 89.2549C176.504 87.9406 176.434 86.6249 176.25 85.3228C176.13 84.5472 175.986 83.7776 175.8 83.014Z" fill="#37474F"/>
<path opacity="0.3" d="M175.8 83.014C175.758 82.8096 175.71 82.6052 175.668 82.4128C175.578 82.0159 175.482 81.6191 175.392 81.2103C175.26 80.6511 175.122 80.0919 174.99 79.5328C174.822 78.8594 174.654 78.186 174.48 77.5186C174.306 76.8512 174.09 76.0396 173.88 75.3C173.67 74.5605 173.448 73.7849 173.22 73.0273C172.992 72.2697 172.764 71.5603 172.518 70.8328C172.272 70.1053 172.056 69.51 171.792 68.8607C171.576 68.3196 171.336 67.7784 171.066 67.2554C170.889 66.8574 170.665 66.482 170.4 66.137C170.262 65.9552 170.083 65.8089 169.878 65.7102C167.916 64.9225 165.99 66.2573 165.294 68.6863L165.474 74.5905C166.194 76.2319 166.872 77.8914 167.502 79.5388C168.132 81.1862 168.702 82.8577 169.146 84.4871C169.597 86.0121 169.875 87.5833 169.974 89.1708C169.995 90.8581 169.887 92.5445 169.65 94.2152C169.422 95.9588 169.122 97.7325 168.768 99.5122C168.066 103.054 167.226 106.667 166.338 110.202L169.668 111.477C171.355 108.056 172.802 104.523 174 100.901C174.6 99.0973 175.14 97.2214 175.572 95.3035C176.051 93.3186 176.348 91.294 176.46 89.2549C176.504 87.9406 176.434 86.6249 176.25 85.3228C176.13 84.5472 175.986 83.7776 175.8 83.014Z" fill="black"/>
<path d="M140.742 83.507C140.79 83.3627 140.85 83.2244 140.898 83.0801C141.768 81.3666 143.868 77.2 145.698 73.2919C146.16 72.3504 146.443 71.3309 146.532 70.2856L146.268 67.8807C145.911 66.6763 145.098 65.6597 144.002 65.0485C142.907 64.4373 141.616 64.2798 140.406 64.6099C136.152 65.5899 132.966 86.1525 132.966 86.1525H133.002C132.936 86.6034 132.87 87.0544 132.822 87.5294C132.693 88.6962 132.693 89.8738 132.822 91.0406C132.95 92.1549 133.177 93.2556 133.5 94.3295C134.104 96.3238 134.908 98.2517 135.9 100.083C137.794 103.59 140.121 106.844 142.824 109.769L145.656 107.599C145.23 106.835 144.768 106.006 144.336 105.194C143.904 104.382 143.502 103.553 143.094 102.735C142.296 101.087 141.552 99.434 140.928 97.7686C140.305 96.1695 139.82 94.5201 139.476 92.8384C139.33 92.0705 139.242 91.2927 139.212 90.5115C139.191 89.7866 139.243 89.0614 139.368 88.3471C139.696 86.6995 140.156 85.0809 140.742 83.507Z" fill="#37474F"/>
<path opacity="0.3" d="M140.742 83.507C140.79 83.3627 140.85 83.2244 140.898 83.0801C141.768 81.3666 143.868 77.2 145.698 73.2919C146.16 72.3504 146.443 71.3309 146.532 70.2856L146.268 67.8807C145.911 66.6763 145.098 65.6597 144.002 65.0485C142.907 64.4373 141.616 64.2798 140.406 64.6099C136.152 65.5899 132.966 86.1525 132.966 86.1525H133.002C132.936 86.6034 132.87 87.0544 132.822 87.5294C132.693 88.6962 132.693 89.8738 132.822 91.0406C132.95 92.1549 133.177 93.2556 133.5 94.3295C134.104 96.3238 134.908 98.2517 135.9 100.083C137.794 103.59 140.121 106.844 142.824 109.769L145.656 107.599C145.23 106.835 144.768 106.006 144.336 105.194C143.904 104.382 143.502 103.553 143.094 102.735C142.296 101.087 141.552 99.434 140.928 97.7686C140.305 96.1695 139.82 94.5201 139.476 92.8384C139.33 92.0705 139.242 91.2927 139.212 90.5115C139.191 89.7866 139.243 89.0614 139.368 88.3471C139.696 86.6995 140.156 85.0809 140.742 83.507Z" fill="black"/>
<path d="M146.082 103.36L141.402 109.86L140.478 119.185C140.412 119.894 140.628 120.6 141.078 121.151C141.38 121.523 141.776 121.809 142.224 121.978C142.672 122.148 143.157 122.195 143.63 122.116C144.102 122.036 144.545 121.833 144.914 121.526C145.282 121.219 145.563 120.82 145.728 120.369C146.666 117.779 147.171 115.05 147.222 112.295C147.264 109.866 147.444 105.459 146.082 103.36Z" fill="#37474F"/>
<path opacity="0.4" d="M146.082 103.36L141.402 109.86L140.478 119.185C140.412 119.894 140.628 120.6 141.078 121.151C141.38 121.523 141.776 121.809 142.224 121.978C142.672 122.148 143.157 122.195 143.63 122.116C144.102 122.036 144.545 121.833 144.914 121.526C145.282 121.219 145.563 120.82 145.728 120.369C146.666 117.779 147.171 115.05 147.222 112.295C147.264 109.866 147.444 105.459 146.082 103.36Z" fill="black"/>
<path d="M167.058 103.156L170.358 109.655L171 118.981C171.049 119.663 170.903 120.344 170.58 120.947C169.644 122.582 167.808 122.149 167.298 120.159C166.627 117.521 166.273 114.812 166.242 112.09C166.2 109.655 166.092 105.254 167.058 103.156Z" fill="#37474F"/>
<path opacity="0.4" d="M167.058 103.156L170.358 109.655L171 118.981C171.049 119.663 170.903 120.344 170.58 120.947C169.644 122.582 167.808 122.149 167.298 120.159C166.627 117.521 166.273 114.812 166.242 112.09C166.2 109.655 166.092 105.254 167.058 103.156Z" fill="black"/>
<path d="M151.05 62.6198C151.05 62.6198 151.2 87.7699 150.96 94.8405C149.694 87.7458 145.092 75.8351 145.092 75.8351L148.488 73.9111L144.822 70.8508L146.568 63.215C148.044 62.8959 149.543 62.6969 151.05 62.6198Z" fill="#37474F"/>
<path opacity="0.4" d="M151.05 62.6198C151.05 62.6198 151.2 87.7699 150.96 94.8405C149.694 87.7458 145.092 75.8351 145.092 75.8351L148.488 73.9111L144.822 70.8508L146.568 63.215C148.044 62.8959 149.543 62.6969 151.05 62.6198Z" fill="black"/>
<path d="M160.2 62.6198C160.2 62.6198 160.356 84.8298 161.526 94.8405C162.804 87.7458 165.6 75.757 165.6 75.757L163.446 73.9172L165.816 71.3198L164.058 63.221C162.804 62.8511 161.507 62.6489 160.2 62.6198Z" fill="#37474F"/>
<path opacity="0.4" d="M160.2 62.6198C160.2 62.6198 160.356 84.8298 161.526 94.8405C162.804 87.7458 165.6 75.757 165.6 75.757L163.446 73.9172L165.816 71.3198L164.058 63.221C162.804 62.8511 161.507 62.6489 160.2 62.6198Z" fill="black"/>
<path d="M160.848 60.2689C161.916 61.267 162.42 61.8622 162.27 62.5476C162.12 63.233 165.348 63.3894 162.912 65.7463C160.476 68.1031 147.984 70.2375 147.42 63.0046C147.342 61.9584 148.386 62.265 148.686 61.4113C148.986 60.5575 149.106 59.9983 149.964 60.4733C151.292 61.1765 152.755 61.5865 154.254 61.6758C156.174 61.7901 159.174 58.7057 160.848 60.2689Z" fill="#37474F"/>
<path opacity="0.6" d="M160.848 60.2689C161.916 61.267 162.42 61.8622 162.27 62.5476C162.12 63.233 165.348 63.3894 162.912 65.7463C160.476 68.1031 147.984 70.2375 147.42 63.0046C147.342 61.9584 148.386 62.265 148.686 61.4113C148.986 60.5575 149.106 59.9983 149.964 60.4733C151.292 61.1765 152.755 61.5865 154.254 61.6758C156.174 61.7901 159.174 58.7057 160.848 60.2689Z" fill="white"/>
<path d="M143.964 47.0536C143.112 47.2159 141.252 40.999 144.402 36.6099C145.155 35.5378 146.127 34.6384 147.254 33.9714C148.38 33.3044 149.635 32.885 150.936 32.7412C152.236 32.5973 153.552 32.7322 154.797 33.137C156.041 33.5417 157.186 34.207 158.154 35.0888C158.898 35.8584 151.2 45.6948 143.964 47.0536Z" fill="#37474F"/>
<path d="M143.964 47.0536C143.112 47.2159 141.252 40.999 144.402 36.6099C145.155 35.5378 146.127 34.6384 147.254 33.9714C148.38 33.3044 149.635 32.885 150.936 32.7412C152.236 32.5973 153.552 32.7322 154.797 33.137C156.041 33.5417 157.186 34.207 158.154 35.0888C158.898 35.8584 151.2 45.6948 143.964 47.0536Z" fill="#37474F"/>
<path opacity="0.6" d="M143.964 47.0536C143.112 47.2159 141.252 40.999 144.402 36.6099C145.155 35.5378 146.127 34.6384 147.254 33.9714C148.38 33.3044 149.635 32.885 150.936 32.7412C152.236 32.5973 153.552 32.7322 154.797 33.137C156.041 33.5417 157.186 34.207 158.154 35.0888C158.898 35.8584 151.2 45.6948 143.964 47.0536Z" fill="white"/>
<path d="M159.132 34.6619C156.606 35.0767 147.18 38.7082 142.848 46.8852C142.807 46.9683 142.785 47.0599 142.785 47.1527C142.785 47.2456 142.807 47.3371 142.848 47.4203C143.471 48.6187 144.326 49.6814 145.362 50.5468C145.477 50.6376 145.622 50.6802 145.768 50.6657C145.913 50.6511 146.047 50.5804 146.142 50.4686C148.302 47.9734 151.818 43.2176 161.406 39.1051C161.476 39.0768 161.54 39.0347 161.593 38.9813C161.647 38.9279 161.689 38.8643 161.718 38.7942C161.746 38.7241 161.76 38.649 161.759 38.5733C161.758 38.4976 161.742 38.4228 161.712 38.3535C161.122 37.1532 160.442 35.9995 159.678 34.9024C159.619 34.8141 159.537 34.7445 159.44 34.7019C159.343 34.6592 159.236 34.6453 159.132 34.6619Z" fill="#37474F"/>
<path opacity="0.3" d="M159.132 34.6619C156.606 35.0767 147.18 38.7082 142.848 46.8852C142.807 46.9683 142.785 47.0599 142.785 47.1527C142.785 47.2456 142.807 47.3371 142.848 47.4203C143.471 48.6187 144.326 49.6814 145.362 50.5468C145.477 50.6376 145.622 50.6802 145.768 50.6657C145.913 50.6511 146.047 50.5804 146.142 50.4686C148.302 47.9734 151.818 43.2176 161.406 39.1051C161.476 39.0768 161.54 39.0347 161.593 38.9813C161.647 38.9279 161.689 38.8643 161.718 38.7942C161.746 38.7241 161.76 38.649 161.759 38.5733C161.758 38.4976 161.742 38.4228 161.712 38.3535C161.122 37.1532 160.442 35.9995 159.678 34.9024C159.619 34.8141 159.537 34.7445 159.44 34.7019C159.343 34.6592 159.236 34.6453 159.132 34.6619Z" fill="black"/>
<path d="M197.52 13.0351C197.356 13.3527 197.143 13.6428 196.89 13.8949C196.758 14.0292 196.579 14.1083 196.391 14.1161C196.203 14.1239 196.019 14.0599 195.876 13.937C195.589 13.6393 195.417 13.2495 195.39 12.8367C195.21 11.9529 195.324 11.033 195.132 10.1491C195.03 9.69709 194.77 9.29632 194.4 9.0188C193.848 8.5859 193.314 8.9707 193.044 9.51182C192.018 11.532 189.846 6.704 188.94 8.5378C188.034 10.3716 191.31 12.7465 189.54 13.2816C187.77 13.8167 188.802 15.6505 189.954 15.7407C191.106 15.8309 193.782 16.8169 191.916 18.1036C190.05 19.3903 192.114 20.9776 194.25 20.8393C197.658 20.6228 198.774 20.0998 198.774 20.0998C199.597 18.696 200.092 17.1233 200.22 15.5002C200.29 14.6095 200.067 13.7202 199.584 12.969C199.23 12.4459 198.612 11.9769 198.012 12.4399C197.815 12.6085 197.649 12.8099 197.52 13.0351Z" fill="#37474F"/>
<path opacity="0.3" d="M197.52 13.0351C197.356 13.3527 197.143 13.6428 196.89 13.8949C196.758 14.0292 196.579 14.1083 196.391 14.1161C196.203 14.1239 196.019 14.0599 195.876 13.937C195.589 13.6393 195.417 13.2495 195.39 12.8367C195.21 11.9529 195.324 11.033 195.132 10.1491C195.03 9.69709 194.77 9.29632 194.4 9.0188C193.848 8.5859 193.314 8.9707 193.044 9.51182C192.018 11.532 189.846 6.704 188.94 8.5378C188.034 10.3716 191.31 12.7465 189.54 13.2816C187.77 13.8167 188.802 15.6505 189.954 15.7407C191.106 15.8309 193.782 16.8169 191.916 18.1036C190.05 19.3903 192.114 20.9776 194.25 20.8393C197.658 20.6228 198.774 20.0998 198.774 20.0998C199.597 18.696 200.092 17.1233 200.22 15.5002C200.29 14.6095 200.067 13.7202 199.584 12.969C199.23 12.4459 198.612 11.9769 198.012 12.4399C197.815 12.6085 197.649 12.8099 197.52 13.0351Z" fill="black"/>
<path d="M39.312 89.8684C39.312 89.8684 33.75 88.5095 33.816 86.4052C33.882 84.3008 37.956 86.9704 36.87 85.1366C35.784 83.3028 34.968 81.4209 35.964 80.4468C36.96 79.4728 38.964 80.8737 39.648 83.4531C40.332 86.0324 41.082 83.1945 42.924 83.9942C44.508 84.7097 43.584 88.9845 39.312 89.8684Z" fill="#37474F"/>
<path opacity="0.3" d="M39.312 89.8684C39.312 89.8684 33.75 88.5095 33.816 86.4052C33.882 84.3008 37.956 86.9704 36.87 85.1366C35.784 83.3028 34.968 81.4209 35.964 80.4468C36.96 79.4728 38.964 80.8737 39.648 83.4531C40.332 86.0324 41.082 83.1945 42.924 83.9942C44.508 84.7097 43.584 88.9845 39.312 89.8684Z" fill="black"/>
<path d="M244.368 118.812C244.368 118.812 241.776 113.702 243.414 112.379C245.052 111.056 245.682 115.896 246.36 113.876C247.038 111.856 247.938 110.016 249.324 110.136C250.71 110.257 250.944 112.686 249.426 114.916C247.908 117.147 250.548 115.836 251.148 117.76C251.658 119.408 247.8 121.506 244.368 118.812Z" fill="#37474F"/>
<path opacity="0.3" d="M244.368 118.812C244.368 118.812 241.776 113.702 243.414 112.379C245.052 111.056 245.682 115.896 246.36 113.876C247.038 111.856 247.938 110.016 249.324 110.136C250.71 110.257 250.944 112.686 249.426 114.916C247.908 117.147 250.548 115.836 251.148 117.76C251.658 119.408 247.8 121.506 244.368 118.812Z" fill="black"/>
<path d="M109.968 23.551C109.968 23.551 112.278 19.4565 118.62 21.9336C118.62 21.9336 115.05 26.7737 109.968 23.551Z" fill="#37474F"/>
<path opacity="0.3" d="M109.968 23.551C109.968 23.551 112.278 19.4565 118.62 21.9336C118.62 21.9336 115.05 26.7737 109.968 23.551Z" fill="black"/>
<path d="M64.2359 70.0934C64.2359 70.0934 59.8499 71.7649 56.5439 65.8065C56.5439 65.8065 62.3999 64.3635 64.2359 70.0934Z" fill="#37474F"/>
<path opacity="0.3" d="M64.2359 70.0934C64.2359 70.0934 59.8499 71.7649 56.5439 65.8065C56.5439 65.8065 62.3999 64.3635 64.2359 70.0934Z" fill="black"/>
<path d="M212.952 65.4458C212.952 65.4458 209.268 68.3618 204.33 63.6721C204.33 63.6721 209.46 60.5396 212.952 65.4458Z" fill="#37474F"/>
<path opacity="0.3" d="M212.952 65.4458C212.952 65.4458 209.268 68.3618 204.33 63.6721C204.33 63.6721 209.46 60.5396 212.952 65.4458Z" fill="black"/>
<path d="M214.2 41.6004C213.258 38.0651 217.518 36.2914 223.086 37.9929C221.73 41.907 215.814 47.7091 214.2 41.6004Z" fill="#37474F"/>
<path opacity="0.3" d="M214.2 41.6004C213.258 38.0651 217.518 36.2914 223.086 37.9929C221.73 41.907 215.814 47.7091 214.2 41.6004Z" fill="black"/>
<path d="M83.316 93.4518C83.316 93.4518 87.564 95.466 85.566 101.977C85.566 101.977 80.484 98.7668 83.316 93.4518Z" fill="#37474F"/>
<path opacity="0.3" d="M83.316 93.4518C83.316 93.4518 87.564 95.466 85.566 101.977C85.566 101.977 80.484 98.7668 83.316 93.4518Z" fill="#37474F"/>
<g opacity="0.3">
<path d="M83.316 93.4518C83.316 93.4518 87.564 95.466 85.566 101.977C85.566 101.977 80.484 98.7668 83.316 93.4518Z" fill="black"/>
<path opacity="0.3" d="M83.316 93.4518C83.316 93.4518 87.564 95.466 85.566 101.977C85.566 101.977 80.484 98.7668 83.316 93.4518Z" fill="black"/>
</g>
<path d="M60.4318 44.1737C60.1756 43.9258 59.9591 43.6399 59.7898 43.326C59.6973 43.1612 59.6712 42.9673 59.7169 42.7839C59.7627 42.6005 59.8768 42.4416 60.0358 42.3399C60.403 42.142 60.8293 42.0843 61.2358 42.1776C62.1358 42.2557 62.9818 42.6285 63.8818 42.6886C64.3517 42.732 64.8212 42.6016 65.2018 42.3219C65.7658 41.913 65.5498 41.2938 65.1058 40.8789C63.4678 39.3217 68.7058 38.6002 67.2058 37.2113C65.7058 35.8224 62.4958 38.2935 62.4898 36.4658C62.4838 34.638 60.4318 35.0829 60.0178 36.1651C59.6038 37.2474 57.9058 39.5381 57.1978 37.3676C56.4898 35.1971 54.3958 36.7664 53.9218 38.8347C53.1658 42.1716 53.3518 43.3981 53.3518 43.3981C54.4611 44.5871 55.8254 45.5081 57.3418 46.0917C58.1764 46.4045 59.0893 46.4403 59.9458 46.1939C60.5458 46.0015 61.1458 45.5386 60.8998 44.8351C60.7855 44.5878 60.6269 44.3636 60.4318 44.1737Z" fill="#37474F"/>
<path opacity="0.6" d="M60.4318 44.1737C60.1756 43.9258 59.9591 43.6399 59.7898 43.326C59.6973 43.1612 59.6712 42.9673 59.7169 42.7839C59.7627 42.6005 59.8768 42.4416 60.0358 42.3399C60.403 42.142 60.8293 42.0843 61.2358 42.1776C62.1358 42.2557 62.9818 42.6285 63.8818 42.6886C64.3517 42.732 64.8212 42.6016 65.2018 42.3219C65.7658 41.913 65.5498 41.2938 65.1058 40.8789C63.4678 39.3217 68.7058 38.6002 67.2058 37.2113C65.7058 35.8224 62.4958 38.2935 62.4898 36.4658C62.4838 34.638 60.4318 35.0829 60.0178 36.1651C59.6038 37.2474 57.9058 39.5381 57.1978 37.3676C56.4898 35.1971 54.3958 36.7664 53.9218 38.8347C53.1658 42.1716 53.3518 43.3981 53.3518 43.3981C54.4611 44.5871 55.8254 45.5081 57.3418 46.0917C58.1764 46.4045 59.0893 46.4403 59.9458 46.1939C60.5458 46.0015 61.1458 45.5386 60.8998 44.8351C60.7855 44.5878 60.6269 44.3636 60.4318 44.1737Z" fill="white"/>
<path d="M57.9059 131.282C57.9059 131.282 62.4959 127.861 61.6139 125.949C60.7319 124.037 58.0139 128.084 58.3139 125.949C58.6139 123.815 58.6199 121.782 57.3239 121.277C56.0279 120.772 54.7439 122.835 55.1099 125.486C55.4759 128.138 53.6939 125.805 52.3019 127.29C51.1139 128.559 53.6339 132.154 57.9059 131.282Z" fill="#37474F"/>
<path opacity="0.6" d="M57.9059 131.282C57.9059 131.282 62.4959 127.861 61.6139 125.949C60.7319 124.037 58.0139 128.084 58.3139 125.949C58.6139 123.815 58.6199 121.782 57.3239 121.277C56.0279 120.772 54.7439 122.835 55.1099 125.486C55.4759 128.138 53.6939 125.805 52.3019 127.29C51.1139 128.559 53.6339 132.154 57.9059 131.282Z" fill="white"/>
<path d="M189.882 45.3642C189.882 45.3642 184.17 45.0214 183.882 42.9592C183.594 40.8969 188.052 42.7728 186.654 41.1554C185.256 39.5381 184.122 37.8426 184.926 36.7062C185.73 35.5699 187.926 36.592 189.096 39.027C190.266 41.4621 190.458 38.522 192.42 38.9729C194.07 39.3517 193.932 43.7468 189.882 45.3642Z" fill="#37474F"/>
<path opacity="0.6" d="M189.882 45.3642C189.882 45.3642 184.17 45.0214 183.882 42.9592C183.594 40.8969 188.052 42.7728 186.654 41.1554C185.256 39.5381 184.122 37.8426 184.926 36.7062C185.73 35.5699 187.926 36.592 189.096 39.027C190.266 41.4621 190.458 38.522 192.42 38.9729C194.07 39.3517 193.932 43.7468 189.882 45.3642Z" fill="white"/>
<path d="M216.042 120.616C215.783 120.371 215.566 120.084 215.4 119.768C215.308 119.604 215.282 119.41 215.327 119.226C215.373 119.043 215.487 118.884 215.646 118.782C216.014 118.586 216.44 118.531 216.846 118.626C217.746 118.704 218.592 119.071 219.498 119.137C219.966 119.181 220.434 119.05 220.812 118.77C221.376 118.361 221.16 117.742 220.722 117.321C219.078 115.764 224.322 115.049 222.816 113.66C221.31 112.271 218.106 114.742 218.1 112.908C218.094 111.074 216.042 111.531 215.628 112.613C215.214 113.696 213.516 115.986 212.814 113.816C212.112 111.645 210.006 113.215 209.532 115.283C208.776 118.62 208.962 119.846 208.962 119.846C210.071 121.035 211.435 121.954 212.952 122.534C213.786 122.853 214.7 122.889 215.556 122.636C216.156 122.45 216.756 121.987 216.51 121.283C216.396 121.034 216.237 120.808 216.042 120.616Z" fill="#37474F"/>
<path opacity="0.6" d="M216.042 120.616C215.783 120.371 215.566 120.084 215.4 119.768C215.308 119.604 215.282 119.41 215.327 119.226C215.373 119.043 215.487 118.884 215.646 118.782C216.014 118.586 216.44 118.531 216.846 118.626C217.746 118.704 218.592 119.071 219.498 119.137C219.966 119.181 220.434 119.05 220.812 118.77C221.376 118.361 221.16 117.742 220.722 117.321C219.078 115.764 224.322 115.049 222.816 113.66C221.31 112.271 218.106 114.742 218.1 112.908C218.094 111.074 216.042 111.531 215.628 112.613C215.214 113.696 213.516 115.986 212.814 113.816C212.112 111.645 210.006 113.215 209.532 115.283C208.776 118.62 208.962 119.846 208.962 119.846C210.071 121.035 211.435 121.954 212.952 122.534C213.786 122.853 214.7 122.889 215.556 122.636C216.156 122.45 216.756 121.987 216.51 121.283C216.396 121.034 216.237 120.808 216.042 120.616Z" fill="white"/>
<path d="M43.6502 20.0758C43.6502 20.0758 39.1022 21.2362 36.4922 14.9411C36.4922 14.9411 42.4502 14.1655 43.6502 20.0758Z" fill="#37474F"/>
<path opacity="0.6" d="M43.6502 20.0758C43.6502 20.0758 39.1022 21.2362 36.4922 14.9411C36.4922 14.9411 42.4502 14.1655 43.6502 20.0758Z" fill="white"/>
<path d="M244.764 89.1529C244.764 89.1529 240.774 91.63 236.4 86.4112C236.4 86.4112 241.854 83.88 244.764 89.1529Z" fill="#37474F"/>
<path opacity="0.6" d="M244.764 89.1529C244.764 89.1529 240.774 91.63 236.4 86.4112C236.4 86.4112 241.854 83.88 244.764 89.1529Z" fill="white"/>
<path d="M246 54.1844C245.826 53.8732 245.703 53.5363 245.634 53.1864C245.597 53.0012 245.63 52.8086 245.728 52.647C245.826 52.4854 245.981 52.3667 246.162 52.3146C246.574 52.2373 246.999 52.3098 247.362 52.519C248.196 52.8677 248.892 53.475 249.762 53.8057C250.198 53.9849 250.684 53.9998 251.13 53.8477C251.79 53.6313 251.772 52.9699 251.472 52.4408C250.374 50.4627 255.582 51.3466 254.568 49.5729C253.554 47.7992 249.768 49.1941 250.296 47.4445C250.824 45.6949 248.742 45.5145 248.022 46.4164C247.302 47.3182 245.022 49.0077 244.974 46.735C244.926 44.4623 242.484 45.304 241.404 47.1499C239.688 50.108 239.496 51.3586 239.496 51.3586C240.2 52.824 241.225 54.1107 242.496 55.1224C243.197 55.674 244.059 55.9821 244.95 56.0002C245.58 56.0002 246.312 55.7417 246.264 54.9901C246.224 54.708 246.135 54.4352 246 54.1844Z" fill="#37474F"/>
<path opacity="0.6" d="M246 54.1844C245.826 53.8732 245.703 53.5363 245.634 53.1864C245.597 53.0012 245.63 52.8086 245.728 52.647C245.826 52.4854 245.981 52.3667 246.162 52.3146C246.574 52.2373 246.999 52.3098 247.362 52.519C248.196 52.8677 248.892 53.475 249.762 53.8057C250.198 53.9849 250.684 53.9998 251.13 53.8477C251.79 53.6313 251.772 52.9699 251.472 52.4408C250.374 50.4627 255.582 51.3466 254.568 49.5729C253.554 47.7992 249.768 49.1941 250.296 47.4445C250.824 45.6949 248.742 45.5145 248.022 46.4164C247.302 47.3182 245.022 49.0077 244.974 46.735C244.926 44.4623 242.484 45.304 241.404 47.1499C239.688 50.108 239.496 51.3586 239.496 51.3586C240.2 52.824 241.225 54.1107 242.496 55.1224C243.197 55.674 244.059 55.9821 244.95 56.0002C245.58 56.0002 246.312 55.7417 246.264 54.9901C246.224 54.708 246.135 54.4352 246 54.1844Z" fill="black"/>
<path d="M104.472 56.6556C104.472 56.6556 110.034 55.2968 109.962 53.1924C109.89 51.088 105.828 53.7576 106.914 51.9238C108 50.09 108.81 48.2081 107.82 47.2341C106.83 46.26 104.82 47.667 104.136 50.2703C103.452 52.8737 102.702 50.0178 100.854 50.8175C99.2761 51.4969 100.2 55.7958 104.472 56.6556Z" fill="#37474F"/>
<path opacity="0.6" d="M104.472 56.6556C104.472 56.6556 110.034 55.2968 109.962 53.1924C109.89 51.088 105.828 53.7576 106.914 51.9238C108 50.09 108.81 48.2081 107.82 47.2341C106.83 46.26 104.82 47.667 104.136 50.2703C103.452 52.8737 102.702 50.0178 100.854 50.8175C99.2761 51.4969 100.2 55.7958 104.472 56.6556Z" fill="black"/>
<path d="M80.9458 20.2201C80.9458 20.2201 80.8918 15.5123 87.5998 14.4301C87.5998 14.4301 86.9578 20.4425 80.9458 20.2201Z" fill="#37474F"/>
<path opacity="0.6" d="M80.9458 20.2201C80.9458 20.2201 80.8918 15.5123 87.5998 14.4301C87.5998 14.4301 86.9578 20.4425 80.9458 20.2201Z" fill="black"/>
<path d="M191.112 98.6586C191.112 98.6586 191.052 93.9508 197.772 92.8926C197.772 92.8926 197.124 98.875 191.112 98.6586Z" fill="#37474F"/>
<path opacity="0.6" d="M191.112 98.6586C191.112 98.6586 191.052 93.9508 197.772 92.8926C197.772 92.8926 197.124 98.875 191.112 98.6586Z" fill="black"/>
<path d="M249.384 26.0521C249.384 26.0521 246.432 29.7137 240.582 26.2385C240.6 26.2385 244.89 22.0418 249.384 26.0521Z" fill="#37474F"/>
<path opacity="0.6" d="M249.384 26.0521C249.384 26.0521 246.432 29.7137 240.582 26.2385C240.6 26.2385 244.89 22.0418 249.384 26.0521Z" fill="black"/>
<path d="M112.35 85.6236C108.972 87.0185 106.674 83.0142 107.616 77.2602C111.684 78.096 118.2 83.2246 112.35 85.6236Z" fill="#37474F"/>
<path opacity="0.6" d="M112.35 85.6236C108.972 87.0185 106.674 83.0142 107.616 77.2602C111.684 78.096 118.2 83.2246 112.35 85.6236Z" fill="black"/>
</svg>
