<svg width="300" height="224" viewBox="0 0 300 224" fill="none" xmlns="http://www.w3.org/2000/svg">
<mask id="mask0_49_1555" style="mask-type:alpha" maskUnits="userSpaceOnUse" x="30" y="39" width="206" height="156">
<path d="M192.516 63.4019C146.742 99.1084 64.0621 6.62791 35.7481 75.1227C15.1021 125.067 55.2361 180.819 101.028 191.804C147.012 202.837 212.988 178.05 230.178 129.367C236.64 111.068 240.3 59.4013 224.058 44.4513C207.816 29.5013 207.45 51.7529 192.516 63.4019Z" fill="#37474F"/>
</mask>
<g mask="url(#mask0_49_1555)">
<path d="M192.516 63.4019C146.742 99.1084 64.0621 6.62791 35.7481 75.1227C15.1021 125.067 55.2361 180.819 101.028 191.804C147.012 202.837 212.988 178.05 230.178 129.367C236.64 111.068 240.3 59.4013 224.058 44.4513C207.816 29.5013 207.45 51.7529 192.516 63.4019Z" fill="#F0A6CA"/>
<path d="M157.147 45.5068C179.79 98.9626 69.0613 154.89 127.894 199.967C170.793 232.836 235.032 208.499 257.495 167.11C280.054 125.549 273.187 55.4055 230.612 26.2011C214.609 15.2232 165.65 -1.68448 147.006 10.1348C128.362 21.954 149.76 28.0666 157.147 45.5068Z" fill="#A1CDF1"/>
</g>
<path d="M150 224C214.249 224 266.334 220.969 266.334 217.231C266.334 213.492 214.249 210.461 150 210.461C85.7505 210.461 33.666 213.492 33.666 217.231C33.666 220.969 85.7505 224 150 224Z" fill="#F5F5F5"/>
<path d="M44.436 215.879V217.231H255.564V129.965H241.374L216.996 145.848H193.746L167.676 162.831V169.666H156.954L127.284 188.993H107.574L83.022 204.99H65.484L44.436 215.879Z" fill="#37474F"/>
<path opacity="0.2" d="M44.436 215.879V217.231H255.564V129.965H241.374L216.996 145.848H193.746L167.676 162.831V169.666H156.954L127.284 188.993H107.574L83.022 204.99H65.484L44.436 215.879Z" fill="black"/>
<path d="M58.626 217.231H255.564V131.316L231.186 147.193H207.936L181.866 164.176V171.017H171.144L141.474 190.345H121.764L97.218 206.341H79.674L58.626 217.231Z" fill="#37474F"/>
<path opacity="0.1" d="M58.626 217.231H255.564V131.316L231.186 147.193H207.936L181.866 164.176V171.017H171.144L141.474 190.345H121.764L97.218 206.341H79.674L58.626 217.231Z" fill="white"/>
<path d="M100.2 56.0403C99.3599 57.015 98.3999 58.1034 97.5779 59.1738C96.7559 60.2442 95.8558 61.3326 95.0398 62.4389C93.412 64.5842 91.946 66.8468 90.6539 69.2082L90.2159 70.0753L90.0539 70.4042C90.0059 70.4939 89.9699 70.6195 89.9218 70.7271C89.7287 71.2779 89.5744 71.8414 89.4599 72.4135C89.2079 73.6573 89.0159 75.0088 88.8599 76.3782C88.5779 79.117 88.3919 81.9815 88.2179 84.7921L84.9238 85.0851C84.2874 82.1777 83.8861 79.224 83.7238 76.2526C83.6388 74.7062 83.6589 73.1559 83.7839 71.6122C83.8455 70.7572 83.98 69.9089 84.1859 69.0767C84.2519 68.8434 84.2998 68.6222 84.3898 68.377C84.4798 68.1318 84.5639 67.8627 84.6299 67.7072L85.0799 66.6069C85.6932 65.1711 86.3924 63.7732 87.1738 62.4209C87.9238 61.0814 88.7578 59.8137 89.5738 58.5698C90.3898 57.326 91.3199 56.118 92.2619 54.9818C92.7299 54.3838 93.2099 53.7858 93.6959 53.2416C94.1819 52.6975 94.6679 52.1294 95.2319 51.5254L100.2 56.0403Z" fill="#E4897B"/>
<path d="M101.286 57.5472C100.686 58.6535 100.008 59.724 99.3538 60.7226C98.2258 62.4508 97.1338 63.9458 96.3538 64.9744C95.6518 65.9013 95.2018 66.4455 95.2018 66.4455L86.3158 60.4117C86.3158 60.4117 91.7158 49.9347 95.8738 49.265C100.158 48.5892 104.076 52.5839 101.286 57.5472Z" fill="#37474F"/>
<path opacity="0.3" d="M101.286 57.5472C100.686 58.6535 100.008 59.724 99.3538 60.7226C98.2258 62.4508 97.1338 63.9458 96.3538 64.9744C95.6518 65.9013 95.2018 66.4455 95.2018 66.4455L86.3158 60.4117C86.3158 60.4117 91.7158 49.9347 95.8738 49.265C100.158 48.5892 104.076 52.5839 101.286 57.5472Z" fill="black"/>
<path d="M116.94 185.316H121.344L121.782 175.144H117.378L116.94 185.316Z" fill="#E4897B"/>
<path d="M74.076 166.365L77.652 168.936L86.088 162.46L82.512 159.889L74.076 166.365Z" fill="#E4897B"/>
<path d="M121.782 175.144L121.56 180.388H117.15L117.372 175.144H121.782Z" fill="#CE6F64"/>
<path d="M82.512 159.889L86.088 162.46L81.732 165.797L78.162 163.226L82.512 159.889Z" fill="#CE6F64"/>
<path d="M112.47 87.4651C112.47 87.4651 112.974 118.728 109.032 130.987C102.792 150.404 83.9397 166.132 83.9397 166.132L77.1957 161.282C77.1957 161.282 92.8857 147.995 95.7957 131.645C98.3817 116.952 97.2837 99.4669 97.2837 87.4651H112.47Z" fill="#37474F"/>
<path opacity="0.7" d="M112.47 87.4651C112.47 87.4651 112.974 118.728 109.032 130.987C102.792 150.404 83.9397 166.132 83.9397 166.132L77.1957 161.282C77.1957 161.282 92.8857 147.995 95.7957 131.645C98.3817 116.952 97.2837 99.4669 97.2837 87.4651H112.47Z" fill="white"/>
<path d="M88.3739 83.9847L89.9639 86.8312L84.3959 87.6564C84.3959 87.6564 83.8259 85.2645 85.1999 83.614L88.3739 83.9847Z" fill="#E4897B"/>
<path d="M90.8039 90.6165L86.1719 91.083L84.3959 87.6565L89.9639 86.8312L90.8039 90.6165Z" fill="#E4897B"/>
<path d="M116.484 33.1728C116.538 33.5197 116.766 33.7708 117 33.7708C117.234 33.7708 117.366 33.418 117.312 33.0712C117.258 32.7243 117.03 32.4732 116.796 32.4732C116.562 32.4732 116.43 32.82 116.484 33.1728Z" fill="#263238"/>
<path d="M116.736 33.7828C117.322 34.786 118.045 35.7037 118.884 36.5097C118.673 36.7215 118.418 36.8848 118.137 36.9881C117.856 37.0914 117.556 37.1322 117.258 37.1077L116.736 33.7828Z" fill="#DE5753"/>
<path d="M114.9 31.4267C114.873 31.4275 114.846 31.423 114.821 31.4135C114.796 31.404 114.773 31.3897 114.754 31.3714C114.734 31.353 114.719 31.3311 114.708 31.3067C114.697 31.2823 114.691 31.256 114.69 31.2293C114.69 31.2003 114.696 31.1716 114.707 31.1449C114.718 31.1182 114.735 31.094 114.756 31.0739C114.986 30.8384 115.27 30.6612 115.583 30.5572C115.896 30.4532 116.23 30.4253 116.556 30.4759C116.583 30.4808 116.609 30.4912 116.632 30.5063C116.655 30.5215 116.674 30.5411 116.689 30.564C116.704 30.5869 116.715 30.6126 116.72 30.6396C116.725 30.6666 116.724 30.6943 116.718 30.721C116.713 30.7474 116.703 30.7725 116.688 30.7949C116.673 30.8173 116.654 30.8366 116.632 30.8516C116.609 30.8666 116.584 30.877 116.558 30.8823C116.531 30.8876 116.504 30.8877 116.478 30.8825C116.218 30.8473 115.954 30.8739 115.707 30.9601C115.46 31.0464 115.237 31.1899 115.056 31.3788C115.035 31.3974 115.01 31.4113 114.983 31.4195C114.956 31.4278 114.928 31.4302 114.9 31.4267Z" fill="#263238"/>
<path d="M104.76 37.0299C105.396 40.2412 106.026 46.1314 103.77 48.2723C103.77 48.2723 104.652 51.5373 110.64 51.5373C117.24 51.5373 113.79 48.2723 113.79 48.2723C110.19 47.4171 110.286 44.762 110.916 42.2923L104.76 37.0299Z" fill="#E4897B"/>
<path d="M101.322 50.449C102.036 49.3367 100.836 46.6577 100.836 46.6577C100.836 46.6577 111.45 43.9966 115.782 48.0809C116.682 48.9241 115.686 50.1679 115.686 50.1679L101.322 50.449Z" fill="#37474F"/>
<path d="M79.5358 171.041C78.9778 171.041 78.1618 169.953 77.9338 169.564C77.9224 169.548 77.9164 169.528 77.9164 169.507C77.9164 169.487 77.9224 169.467 77.9338 169.451C77.9458 169.436 77.9615 169.424 77.9794 169.417C77.9972 169.409 78.0166 169.407 78.0358 169.409C78.0958 169.409 79.5418 169.72 79.8778 170.288C79.9161 170.348 79.9408 170.415 79.9501 170.485C79.9594 170.555 79.9532 170.627 79.9318 170.695C79.8478 170.952 79.6918 171.023 79.5778 171.035L79.5358 171.041ZM78.2458 169.672C78.6238 170.222 79.2478 170.868 79.5598 170.832C79.5898 170.832 79.6798 170.832 79.7398 170.629C79.7519 170.59 79.755 170.548 79.7488 170.508C79.7426 170.468 79.7272 170.429 79.7038 170.396C79.3003 170.011 78.794 169.752 78.2458 169.648V169.672Z" fill="#37474F"/>
<path d="M78.7376 169.678C78.4846 169.684 78.232 169.654 77.9876 169.588C77.9728 169.578 77.9606 169.565 77.9522 169.549C77.9437 169.534 77.9393 169.516 77.9393 169.499C77.9393 169.481 77.9437 169.463 77.9522 169.448C77.9606 169.432 77.9728 169.419 77.9876 169.409C78.0296 169.373 79.0196 168.584 79.6736 168.649C79.7534 168.658 79.8306 168.683 79.9007 168.722C79.9708 168.761 80.0323 168.813 80.0816 168.877C80.1367 168.933 80.17 169.008 80.1755 169.086C80.181 169.165 80.1584 169.243 80.1116 169.307C79.8956 169.57 79.2836 169.678 78.7376 169.678ZM78.2636 169.439C78.8216 169.522 79.7396 169.439 79.9136 169.188C79.9278 169.157 79.9325 169.123 79.9271 169.09C79.9218 169.057 79.9066 169.027 79.8836 169.002C79.8523 168.961 79.8126 168.927 79.7671 168.902C79.7216 168.877 79.6713 168.863 79.6196 168.859C79.1191 168.911 78.6462 169.113 78.2636 169.439Z" fill="#37474F"/>
<path d="M123.114 185.543C122.661 185.537 122.21 185.495 121.764 185.417C121.743 185.414 121.724 185.404 121.709 185.389C121.693 185.374 121.684 185.354 121.68 185.334C121.676 185.312 121.68 185.29 121.689 185.271C121.699 185.252 121.715 185.236 121.734 185.226C121.8 185.19 123.336 184.311 124.074 184.514C124.142 184.53 124.207 184.559 124.264 184.6C124.321 184.641 124.368 184.693 124.404 184.753C124.451 184.82 124.476 184.899 124.476 184.981C124.476 185.062 124.451 185.141 124.404 185.208C124.23 185.465 123.684 185.543 123.114 185.543ZM122.1 185.262C122.922 185.381 124.038 185.369 124.242 185.088C124.272 185.013 124.272 184.93 124.242 184.855C124.219 184.818 124.189 184.785 124.153 184.761C124.116 184.736 124.075 184.719 124.032 184.712C123.564 184.592 122.64 184.987 122.1 185.262Z" fill="#37474F"/>
<path d="M121.8 185.393H121.74C121.725 185.383 121.713 185.368 121.706 185.351C121.698 185.334 121.696 185.316 121.698 185.298C121.747 184.672 121.993 184.078 122.4 183.599C122.483 183.531 122.579 183.48 122.682 183.449C122.785 183.418 122.893 183.408 123 183.42C123.09 183.41 123.18 183.434 123.251 183.489C123.323 183.544 123.371 183.624 123.384 183.713C123.468 184.209 122.412 185.16 121.884 185.399L121.8 185.393ZM122.88 183.599C122.747 183.601 122.618 183.648 122.514 183.731C122.181 184.112 121.972 184.586 121.914 185.088C122.46 184.759 123.174 184.012 123.114 183.719C123.114 183.719 123.114 183.617 122.91 183.599H122.88Z" fill="#37474F"/>
<path d="M78.162 168.901L74.736 165.313C74.6744 165.25 74.5935 165.21 74.5064 165.2C74.4193 165.189 74.3311 165.207 74.256 165.253L70.83 167.334C70.7574 167.377 70.694 167.434 70.6436 167.501C70.5931 167.569 70.5565 167.646 70.5359 167.727C70.5153 167.809 70.511 167.894 70.5234 167.977C70.5358 168.061 70.5645 168.141 70.608 168.213C70.6371 168.258 70.6714 168.301 70.71 168.338C71.91 169.534 72.582 170.091 74.088 171.657C75.018 172.62 77.544 176.005 78.822 177.338C80.1 178.672 81.594 177.577 81.186 176.92C79.386 173.966 78.51 171.035 78.462 169.576C78.45 169.322 78.343 169.081 78.162 168.901Z" fill="#263238"/>
<path d="M121.314 184.795H116.514C116.427 184.795 116.342 184.824 116.275 184.879C116.207 184.933 116.16 185.009 116.142 185.094L115.266 188.981C115.228 189.146 115.257 189.319 115.347 189.463C115.437 189.606 115.581 189.708 115.746 189.747C115.798 189.753 115.85 189.753 115.902 189.747C117.642 189.747 120.15 189.615 122.334 189.615C124.884 189.615 127.086 189.753 130.08 189.753C131.88 189.753 132.39 187.929 131.634 187.767C128.184 187.014 125.37 186.93 122.388 185.1C122.065 184.903 121.693 184.797 121.314 184.795Z" fill="#263238"/>
<path opacity="0.3" d="M99.3539 60.7226C98.2259 62.4508 97.1339 63.9458 96.3539 64.9744C96.4439 62.9173 96.8699 59.5924 98.4719 57.0569C99.0539 57.631 99.2879 59.114 99.3539 60.7226Z" fill="black"/>
<path d="M123.6 53.6004C123.84 53.9772 124.278 54.5513 124.68 55.0835C125.082 55.6157 125.544 56.1599 126 56.6981C126.918 57.7685 127.854 58.8329 128.832 59.8555C130.715 61.8875 132.78 63.745 135 65.4049C135.516 65.7806 136.051 66.1299 136.602 66.4514L136.968 66.6607C137.01 66.6607 137.028 66.7146 137.106 66.7385L137.202 66.7803L137.334 66.8222C137.432 66.8524 137.533 66.8764 137.634 66.8939C138.83 67.0605 140.043 67.0443 141.234 66.8461C144.045 66.4029 146.824 65.7716 149.55 64.9564L150.972 67.9464C148.299 69.6691 145.402 71.0191 142.362 71.959C140.643 72.5138 138.84 72.7668 137.034 72.7065C136.763 72.6934 136.492 72.6654 136.224 72.6228L135.81 72.545L135.366 72.4374C135.055 72.3533 134.75 72.2474 134.454 72.1205L134.268 72.0427L134.118 71.971L133.818 71.8274C133.044 71.4507 132.294 71.0381 131.562 70.5896C128.861 68.8366 126.359 66.7975 124.098 64.5079C122.988 63.3897 121.908 62.2535 120.894 61.0455C120.378 60.4475 119.88 59.8495 119.382 59.1798C118.838 58.4868 118.339 57.7597 117.888 57.0031L123.6 53.6004Z" fill="#E4897B"/>
<path d="M148.842 65.7518L151.77 62.2774L153.762 67.3484C153.762 67.3484 151.236 68.5444 149.268 67.8567L148.842 65.7518Z" fill="#E4897B"/>
<path d="M156.066 61.5239L156.882 65.5784L153.762 67.3484L151.776 62.2774L156.066 61.5239Z" fill="#E4897B"/>
<path d="M104.652 34.2552C105.588 38.5129 105.924 41.0544 108.45 42.9202C112.248 45.7308 117.264 42.9202 117.618 38.4771C117.936 34.4705 116.346 28.1795 111.858 27.1151C110.868 26.8778 109.833 26.8971 108.853 27.1712C107.872 27.4453 106.979 27.965 106.257 28.6808C105.535 29.3966 105.009 30.2847 104.729 31.2605C104.449 32.2363 104.425 33.2673 104.658 34.2552H104.652Z" fill="#E4897B"/>
<path d="M102.846 25.937C99.0957 26.0387 98.6457 29.7164 100.506 30.7988C100.506 30.7988 98.3457 31.8333 99.4557 34.303C101.148 38.0525 104.388 42.1727 107.7 41.9455C111.81 41.6644 112.98 37.2033 112.836 32.8021C115.002 30.7629 113.694 29.7702 115.836 28.5264C119.628 26.3257 121.548 20.0169 115.236 20.1125C108.768 20.2142 112.416 25.6799 102.846 25.937Z" fill="#263238"/>
<path d="M100.974 30.2606C100.974 30.2606 99.5281 31.0081 97.3021 29.7164C98.0761 31.6061 100.452 32.3835 100.974 30.2606Z" fill="#263238"/>
<path d="M110.58 33.8605C110.696 34.9382 111.167 35.9473 111.918 36.7309C112.914 37.7535 113.892 37.0598 114.018 35.7681C114.132 34.608 113.748 32.6765 112.554 32.1383C111.36 31.6001 110.454 32.5569 110.58 33.8605Z" fill="#E4897B"/>
<path d="M86.8077 164.715L84.0417 166.359L76.6737 161.061L79.1277 159.189L86.8077 164.715Z" fill="#37474F"/>
<path d="M108.066 92.8351C107.232 98.4683 110.178 114.154 111.198 119.291C112.266 109.687 112.464 98.2948 112.482 92.0757C110.322 90.6165 108.45 90.2398 108.066 92.8351Z" fill="#37474F"/>
<path opacity="0.4" d="M108.066 92.8351C107.232 98.4683 110.178 114.154 111.198 119.291C112.266 109.687 112.464 98.2948 112.482 92.0757C110.322 90.6165 108.45 90.2398 108.066 92.8351Z" fill="white"/>
<path d="M120.828 87.4651C120.828 87.4651 127.47 115.511 127.938 128.906C128.46 143.934 123.198 179.371 123.198 179.371H115.734C115.734 179.371 114.816 143.659 114.48 129.971C114.12 115.051 105.336 87.4651 105.336 87.4651H120.828Z" fill="#37474F"/>
<path opacity="0.7" d="M120.828 87.4651C120.828 87.4651 127.47 115.511 127.938 128.906C128.46 143.934 123.198 179.371 123.198 179.371H115.734C115.734 179.371 114.816 143.659 114.48 129.971C114.12 115.051 105.336 87.4651 105.336 87.4651H120.828Z" fill="white"/>
<path d="M124.638 176.423C124.674 176.423 124.218 179.509 124.218 179.509H115.134L114.888 176.752L124.638 176.423Z" fill="#37474F"/>
<path d="M122.736 63.8143C122.736 65.3093 122.7 66.9538 122.616 68.7657C122.4 73.6932 121.86 79.8346 120.816 87.4651H97.2539C97.0919 83.8771 99.3659 66.2601 95.8739 49.265C98.4916 48.7641 101.139 48.4325 103.8 48.2723C107.137 48.0809 110.483 48.0809 113.82 48.2723C116.107 48.5001 118.373 48.8999 120.6 49.4683C120.6 49.4683 122.742 51.938 122.736 63.8143Z" fill="#37474F"/>
<path opacity="0.3" d="M122.736 63.8143C122.736 65.3093 122.7 66.9538 122.616 68.7657C122.4 73.6932 121.86 79.8346 120.816 87.4651H97.2539C97.0919 83.8771 99.3659 66.2601 95.8739 49.265C98.4916 48.7641 101.139 48.4325 103.8 48.2723C107.137 48.0809 110.483 48.0809 113.82 48.2723C116.107 48.5001 118.373 48.8999 120.6 49.4683C120.6 49.4683 122.742 51.938 122.736 63.8143Z" fill="black"/>
<path opacity="0.3" d="M122.736 63.8143C122.736 65.3093 122.7 66.9538 122.616 68.7657C119.85 66.0747 119.664 60.5791 119.664 60.5791L122.736 63.8143Z" fill="black"/>
<path d="M114.288 54.617C114.81 58.803 124.338 67.6175 124.338 67.6175L132.918 60.8422C130.762 57.6606 128.239 54.7423 125.4 52.1473C119.196 46.7773 113.658 49.6118 114.288 54.617Z" fill="#37474F"/>
<path opacity="0.3" d="M114.288 54.617C114.81 58.803 124.338 67.6175 124.338 67.6175L132.918 60.8422C130.762 57.6606 128.239 54.7423 125.4 52.1473C119.196 46.7773 113.658 49.6118 114.288 54.617Z" fill="black"/>
<path d="M214.818 142.032L210.408 142.463L205.818 131.998L210.228 131.567L214.818 142.032Z" fill="#E4897B"/>
<path d="M244.17 128.876L240.33 131.34L233.37 123.273L237.21 120.809L244.17 128.876Z" fill="#E4897B"/>
<path d="M205.824 132.004L208.188 137.398H212.79L210.234 131.573L205.824 132.004Z" fill="#CE6F64"/>
<path d="M237.216 120.809L233.37 123.273L236.964 127.429L240.804 124.966L237.216 120.809Z" fill="#CE6F64"/>
<path d="M177 30.3084C176.904 31.935 176.7 33.418 176.466 34.9608C176.232 36.5037 175.902 37.9987 175.53 39.5116C174.804 42.5933 173.681 45.5682 172.188 48.362C171.795 49.0867 171.356 49.7858 170.874 50.455C170.406 51.1188 169.908 51.7287 169.41 52.3207C168.414 53.5167 167.382 54.623 166.332 55.7174C164.214 57.8881 162.054 59.9631 159.732 61.9425L158.064 60.3399C159.906 58.0137 161.796 55.7114 163.59 53.3792C165.384 51.047 167.244 48.7268 168.39 46.3946C169.56 43.8514 170.442 41.1857 171.018 38.4472C171.336 37.0598 171.576 35.6425 171.804 34.2612C172.032 32.8798 172.2 31.3848 172.326 30.0752L177 30.3084Z" fill="#E4897B"/>
<path d="M175.164 0.659648C171.948 0.659648 168.3 4.09814 168.45 9.03163C168.6 13.9651 169.65 21.2906 162 28.0719C164.748 34.0519 177.672 39.6551 186.3 35.4392C194.478 31.4446 191.1 9.30073 185.274 3.50014C182.01 0.253009 178.2 -0.835348 175.164 0.659648Z" fill="#263238"/>
<path d="M180.504 30.8705C180.264 32.3177 179.058 35.0565 178.104 37.0897C177.396 38.5608 176.82 39.6671 176.82 39.6671L175.98 39.2963L169.026 36.2107C169.554 32.4732 170.412 28.4367 174.546 26.6008C177.126 25.4646 180.93 28.2872 180.504 30.8705Z" fill="#37474F"/>
<path opacity="0.6" d="M180.504 30.8705C180.264 32.3177 179.058 35.0565 178.104 37.0897C177.396 38.5608 176.82 39.6671 176.82 39.6671L175.98 39.2963L169.026 36.2107C169.554 32.4732 170.412 28.4367 174.546 26.6008C177.126 25.4646 180.93 28.2872 180.504 30.8705Z" fill="white"/>
<path d="M178.086 37.0897C177.378 38.5608 176.802 39.6671 176.802 39.6671L175.962 39.2963C176.076 37.8193 176.37 35.4931 177.162 34.4466C177.655 35.2519 177.97 36.1531 178.086 37.0897Z" fill="#37474F"/>
<path opacity="0.5" d="M178.086 37.1316C177.378 38.6026 176.802 39.7089 176.802 39.7089L175.962 39.3382C176.076 37.8611 176.37 35.5349 177.162 34.4884C177.655 35.2938 177.97 36.195 178.086 37.1316Z" fill="white"/>
<path d="M201.6 47.0763L183.9 52.6377C171.66 28.5024 173.4 27.2227 173.4 27.2227C173.4 27.2227 176.226 25.6141 179.166 24.2746L180.504 23.6766C183.116 22.6405 185.799 21.7932 188.532 21.1411C188.934 21.0334 189.336 20.9378 189.732 20.8421C191.909 20.3531 194.113 19.9917 196.332 19.7597C196.596 23.1025 196.86 25.9311 197.148 28.3888C197.52 31.5941 197.922 34.1595 198.348 36.3781C199.145 40.0246 200.233 43.602 201.6 47.0763Z" fill="#37474F"/>
<path opacity="0.6" d="M201.6 47.0763L183.9 52.6377C171.66 28.5024 173.4 27.2227 173.4 27.2227C173.4 27.2227 176.226 25.6141 179.166 24.2746L180.504 23.6766C183.116 22.6405 185.799 21.7932 188.532 21.1411C188.934 21.0334 189.336 20.9378 189.732 20.8421C191.909 20.3531 194.113 19.9917 196.332 19.7597C196.596 23.1025 196.86 25.9311 197.148 28.3888C197.52 31.5941 197.922 34.1595 198.348 36.3781C199.145 40.0246 200.233 43.602 201.6 47.0763Z" fill="white"/>
<path d="M183.9 52.6377C183.9 52.6377 183.3 88.7568 188.034 101.805C192.594 114.315 206.196 135.819 206.196 135.819L214.08 135.616C214.08 135.616 201.558 108.389 199.5 97.6191C196.098 79.7569 196.848 48.5832 196.848 48.5832L183.9 52.6377Z" fill="#37474F"/>
<path opacity="0.4" d="M183.9 52.6377C183.9 52.6377 183.3 88.7568 188.034 101.805C192.594 114.315 206.196 135.819 206.196 135.819L214.08 135.616C214.08 135.616 201.558 108.389 199.5 97.6191C196.098 79.7569 196.848 48.5832 196.848 48.5832L183.9 52.6377Z" fill="black"/>
<path opacity="0.3" d="M190.98 55.7413L193.098 49.7613L196.848 48.5653C196.848 48.5653 196.506 62.7558 197.328 77.4725C193.926 70.9723 190.98 59.0123 190.98 55.7413Z" fill="black"/>
<path d="M187.8 51.4895C187.8 51.4895 200.1 79.5297 208.05 95.4902C214.47 108.377 234.45 125.677 234.45 125.677L239.922 121.892C239.922 121.892 224.892 101.404 220.458 92.6617C206.268 64.6873 209.766 53.1579 201.606 47.0763L187.8 51.4895Z" fill="#37474F"/>
<path opacity="0.4" d="M187.8 51.4895C187.8 51.4895 200.1 79.5297 208.05 95.4902C214.47 108.377 234.45 125.677 234.45 125.677L239.922 121.892C239.922 121.892 224.892 101.404 220.458 92.6617C206.268 64.6873 209.766 53.1579 201.606 47.0763L187.8 51.4895Z" fill="black"/>
<path d="M159.132 59.9153L155.124 60.6568L157.962 64.484C157.962 64.484 160.056 63.0309 160.494 61.1891L159.132 59.9153Z" fill="#E4897B"/>
<path d="M152.496 63.6827L155.13 66.1345L157.956 64.484L155.124 60.6568L152.496 63.6827Z" fill="#E4897B"/>
<path d="M238.914 130.132L243.084 127.142C243.155 127.091 243.242 127.066 243.329 127.074C243.416 127.082 243.498 127.121 243.558 127.184L246.402 130.132C246.531 130.276 246.598 130.465 246.588 130.658C246.578 130.85 246.492 131.031 246.348 131.161L246.282 131.215C244.806 132.225 244.044 132.644 242.214 133.954C241.086 134.761 238.71 136.71 237.15 137.823C235.59 138.935 234.408 137.458 234.954 136.86C237.414 134.157 238.068 132.315 238.458 130.79C238.53 130.525 238.691 130.293 238.914 130.132Z" fill="#263238"/>
<path d="M209.826 141.106H215.226C215.323 141.108 215.416 141.141 215.493 141.201C215.57 141.26 215.625 141.342 215.652 141.434L216.852 145.704C216.877 145.789 216.884 145.878 216.875 145.966C216.865 146.053 216.837 146.138 216.795 146.216C216.752 146.293 216.694 146.361 216.624 146.416C216.555 146.471 216.475 146.511 216.39 146.535C216.324 146.545 216.258 146.545 216.192 146.535H203.706C201.726 146.535 201.306 144.538 202.134 144.359C205.806 143.545 207.924 142.433 209.058 141.369C209.271 141.187 209.546 141.093 209.826 141.106Z" fill="#263238"/>
<path d="M189.744 20.8541V21.171C189.744 21.3564 189.618 25.638 185.226 29.0167L184.782 29.3576L184.242 29.238C181.914 28.7357 180.366 27.7729 179.628 26.3796C179.286 25.7328 179.13 25.0042 179.178 24.2746L180.516 23.6766C183.127 22.6405 185.81 21.7932 188.544 21.1411C188.94 21.0454 189.342 20.9438 189.744 20.8541Z" fill="white"/>
<path d="M184.884 12.3924C185.196 15.1252 186.186 20.0049 188.538 21.1531C188.538 21.1531 188.478 25.0042 184.488 28.0719C179.202 26.9237 180.51 23.6886 180.51 23.6886C183.174 22.0919 182.424 19.987 181.284 18.1451L184.884 12.3924Z" fill="#E4897B"/>
<path d="M183.42 14.7365L181.29 18.1391C181.561 18.5666 181.794 19.0168 181.986 19.4846C183.036 18.9763 184.386 17.4694 184.134 16.2853C183.991 15.7306 183.749 15.206 183.42 14.7365Z" fill="#CE6F64"/>
<path d="M183.636 6.29877C185.148 10.5625 185.874 12.3326 184.68 15.3525C182.88 19.8913 177.3 20.8062 174.54 17.0867C172.062 13.7319 170.01 7.33331 173.382 3.9307C174.537 2.7698 176.108 2.11384 177.749 2.10711C179.389 2.10038 180.965 2.74344 182.13 3.89482C182.815 4.56675 183.331 5.39043 183.636 6.29877Z" fill="#E4897B"/>
<path d="M177.972 1.32941C176.52 2.90214 179.502 9.48012 184.05 10.4907C188.598 11.5014 184.926 4.3493 184.926 4.3493L177.972 1.32941Z" fill="#263238"/>
<path d="M178.446 3.17124C178.614 4.96523 171.384 7.67417 170.766 9.00172C171.066 6.84295 171.168 4.31341 173.898 2.51942C176.628 0.725424 178.878 1.42508 178.878 1.42508L178.446 3.17124Z" fill="#263238"/>
<path d="M177.912 3.243C177.912 3.243 177.114 5.3061 174.072 7.82965C176.47 7.14707 178.525 5.59391 179.832 3.47622L177.912 3.243Z" fill="#263238"/>
<path d="M186.222 9.76119C186.354 10.6253 186.139 11.5066 185.622 12.213C184.932 13.1459 183.876 12.7033 183.474 11.6867C183.108 10.7658 183.024 9.17515 184.002 8.60705C184.171 8.5099 184.358 8.44706 184.552 8.42214C184.745 8.39722 184.942 8.41071 185.131 8.46184C185.319 8.51297 185.496 8.60072 185.65 8.72006C185.804 8.83939 185.933 8.98796 186.03 9.15721C186.137 9.34209 186.203 9.54827 186.222 9.76119Z" fill="#E4897B"/>
<path d="M201.516 45.958L202.818 47.2856C202.92 47.3873 202.818 47.5607 202.608 47.6205L184.062 53.4689C184.001 53.496 183.933 53.5024 183.868 53.4873C183.803 53.4722 183.745 53.4363 183.702 53.3852L183.042 51.8603C183 51.7526 183.108 51.6211 183.282 51.5613L201.186 45.9162C201.24 45.8934 201.299 45.8853 201.357 45.8926C201.415 45.9 201.47 45.9226 201.516 45.958Z" fill="#263238"/>
<path d="M177.288 10.3233C177.432 10.6582 177.366 11.011 177.144 11.1007C176.922 11.1904 176.628 10.999 176.484 10.6582C176.34 10.3173 176.406 9.97048 176.628 9.88078C176.85 9.79108 177.144 9.98244 177.288 10.3233Z" fill="#263238"/>
<path d="M173.454 11.9379C173.598 12.2788 173.532 12.6256 173.31 12.7213C173.088 12.817 172.794 12.6196 172.65 12.2788C172.506 11.9379 172.572 11.5911 172.794 11.4954C173.016 11.3997 173.31 11.603 173.454 11.9379Z" fill="#263238"/>
<path d="M172.896 11.4774L171.984 11.5851C171.984 11.5851 172.674 12.0457 172.896 11.4774Z" fill="#263238"/>
<path d="M174.804 12.0097C174.829 12.9099 174.73 13.8094 174.51 14.6827C174.735 14.7322 174.969 14.7321 175.195 14.6826C175.421 14.633 175.633 14.5351 175.818 14.3957L174.804 12.0097Z" fill="#DE5753"/>
<path d="M177.972 15.1193C177.948 15.1177 177.926 15.1085 177.908 15.093C177.89 15.0775 177.878 15.0566 177.873 15.0335C177.868 15.0105 177.871 14.9864 177.882 14.9652C177.892 14.9439 177.909 14.9266 177.93 14.9159C178.356 14.7462 178.735 14.4792 179.039 14.1365C179.342 13.7937 179.56 13.3848 179.676 12.9425C179.677 12.9292 179.682 12.9162 179.688 12.9044C179.695 12.8926 179.703 12.8823 179.714 12.8739C179.725 12.8656 179.737 12.8594 179.75 12.8558C179.763 12.8522 179.777 12.8512 179.79 12.8528C179.804 12.855 179.818 12.86 179.83 12.8675C179.842 12.8751 179.853 12.885 179.862 12.8967C179.87 12.9084 179.876 12.9217 179.879 12.9357C179.882 12.9497 179.882 12.9643 179.88 12.9784C179.763 13.4579 179.531 13.9022 179.206 14.2738C178.88 14.6454 178.469 14.9333 178.008 15.1133L177.972 15.1193Z" fill="#263238"/>
<path d="M177.834 8.61916C177.798 8.62518 177.761 8.62518 177.726 8.61916C177.493 8.47998 177.231 8.39623 176.96 8.37444C176.69 8.35266 176.418 8.39342 176.166 8.49355C176.115 8.51902 176.057 8.5239 176.003 8.50713C175.95 8.49037 175.904 8.4533 175.878 8.40383C175.852 8.35284 175.847 8.29387 175.864 8.23924C175.88 8.18462 175.918 8.13858 175.968 8.11075C176.283 7.97427 176.626 7.91552 176.969 7.93947C177.311 7.96341 177.643 8.06936 177.936 8.24832C177.985 8.27704 178.021 8.32396 178.035 8.37885C178.05 8.43374 178.042 8.49217 178.014 8.5414C177.992 8.56725 177.964 8.58769 177.933 8.60118C177.902 8.61466 177.868 8.62081 177.834 8.61916Z" fill="#263238"/>
<path d="M170.88 10.9333H170.838C170.811 10.9282 170.785 10.9179 170.762 10.9028C170.739 10.8878 170.719 10.8683 170.703 10.8455C170.687 10.8227 170.676 10.7971 170.671 10.7701C170.665 10.743 170.665 10.7152 170.67 10.6881C170.728 10.3482 170.868 10.0273 171.077 9.75255C171.285 9.47776 171.558 9.25714 171.87 9.10936C171.924 9.08935 171.983 9.09061 172.035 9.11288C172.088 9.13515 172.13 9.17672 172.152 9.22896C172.174 9.28133 172.175 9.34024 172.153 9.39288C172.132 9.44552 172.09 9.48762 172.038 9.51002C171.79 9.63052 171.574 9.8085 171.41 10.0291C171.245 10.2496 171.135 10.5064 171.09 10.7778C171.079 10.8241 171.052 10.8651 171.013 10.8935C170.975 10.9219 170.928 10.936 170.88 10.9333Z" fill="#263238"/>
<path d="M199.05 23.9935C199.764 24.5258 200.364 25.0221 200.988 25.5603C201.612 26.0985 202.188 26.6367 202.788 27.1928C203.958 28.3171 205.074 29.4951 206.148 30.727C207.229 31.9652 208.23 33.2694 209.148 34.6319C209.388 34.9668 209.598 35.3316 209.82 35.6784C210.042 36.0253 210.264 36.3781 210.462 36.7429C210.66 37.1077 210.87 37.4485 211.062 37.8611L211.38 38.5189L211.638 39.1947C212.189 40.8912 212.449 42.6683 212.406 44.4511C212.369 46.1097 212.191 47.7622 211.872 49.3905C211.553 50.9749 211.153 52.5417 210.672 54.0848C210.188 55.6193 209.622 57.1264 208.974 58.5997L206.808 57.7984C207.18 56.3632 207.534 54.8562 207.798 53.3672C208.093 51.8928 208.307 50.4036 208.44 48.9062C208.585 47.4557 208.619 45.9964 208.542 44.5408C208.498 43.8505 208.412 43.1635 208.284 42.4837C208.159 41.8544 207.976 41.2378 207.738 40.6418L207.558 40.2292L207.354 39.8465C207.192 39.5714 206.97 39.2485 206.754 38.9495C206.538 38.6505 206.358 38.3515 206.154 38.0465C205.95 37.7415 205.746 37.4485 205.512 37.1555C204.642 35.9595 203.652 34.8771 202.668 33.7708C201.684 32.6645 200.604 31.618 199.506 30.6074C198.96 30.0931 198.408 29.5908 197.844 29.1005C197.28 28.6101 196.692 28.1197 196.2 27.7011L199.05 23.9935Z" fill="#E4897B"/>
<path d="M207.504 56.3692L204.216 58.7612L208.416 60.9738C208.416 60.9738 209.67 58.7612 209.262 56.9134L207.504 56.3692Z" fill="#E4897B"/>
<path d="M203.172 62.6362L206.616 63.7006L208.44 60.9857L204.216 58.7731L203.172 62.6362Z" fill="#E4897B"/>
<path d="M237.336 132.004H237.264C237.16 131.991 237.06 131.952 236.976 131.889C236.892 131.826 236.825 131.742 236.784 131.645C236.751 131.589 236.734 131.525 236.734 131.46C236.734 131.395 236.751 131.331 236.784 131.274C237.078 130.772 238.728 130.676 238.914 130.676C238.934 130.677 238.954 130.682 238.971 130.693C238.988 130.703 239.001 130.718 239.01 130.736C239.022 130.754 239.028 130.775 239.028 130.796C239.028 130.817 239.022 130.838 239.01 130.856C238.614 131.292 237.9 132.004 237.336 132.004ZM238.656 130.91C237.996 130.958 237.12 131.113 236.97 131.376C236.952 131.399 236.942 131.428 236.942 131.457C236.942 131.486 236.952 131.515 236.97 131.538C236.996 131.603 237.038 131.66 237.093 131.704C237.148 131.748 237.213 131.777 237.282 131.789C237.6 131.819 238.098 131.496 238.656 130.91Z" fill="#37474F"/>
<path d="M238.8 130.898C238.248 130.898 237.162 130.593 236.958 130.15C236.922 130.072 236.915 129.984 236.936 129.902C236.958 129.819 237.008 129.746 237.078 129.696C237.14 129.641 237.212 129.599 237.29 129.574C237.369 129.548 237.452 129.539 237.534 129.546C238.194 129.612 238.968 130.676 238.998 130.742C239.007 130.759 239.012 130.777 239.012 130.796C239.012 130.815 239.007 130.833 238.998 130.85C238.99 130.867 238.979 130.882 238.964 130.893C238.949 130.905 238.932 130.912 238.914 130.916L238.8 130.898ZM237.468 129.762C237.424 129.761 237.379 129.769 237.338 129.785C237.297 129.801 237.259 129.826 237.228 129.857C237.126 129.947 237.138 130.013 237.156 130.061C237.288 130.354 238.14 130.659 238.698 130.659C238.422 130.318 237.906 129.779 237.498 129.738L237.468 129.762Z" fill="#37474F"/>
<path d="M207.42 141.997C207.05 142.023 206.682 141.935 206.364 141.745C206.283 141.684 206.216 141.605 206.168 141.516C206.121 141.426 206.093 141.327 206.088 141.225C206.08 141.168 206.088 141.11 206.113 141.058C206.137 141.006 206.177 140.962 206.226 140.932C206.712 140.603 208.56 141.434 208.926 141.608C208.946 141.617 208.963 141.632 208.974 141.652C208.985 141.671 208.989 141.694 208.986 141.716C208.984 141.738 208.975 141.76 208.96 141.777C208.945 141.794 208.924 141.806 208.902 141.811C208.416 141.924 207.919 141.986 207.42 141.997ZM206.556 141.064C206.483 141.059 206.41 141.075 206.346 141.112C206.331 141.124 206.32 141.14 206.313 141.157C206.305 141.175 206.302 141.194 206.304 141.213C206.306 141.284 206.324 141.353 206.357 141.415C206.391 141.478 206.438 141.531 206.496 141.572C206.808 141.811 207.558 141.841 208.53 141.668C207.908 141.364 207.242 141.16 206.556 141.064Z" fill="#37474F"/>
<path d="M208.878 141.811H208.836C208.236 141.56 206.994 140.573 207.066 140.065C207.066 139.951 207.156 139.814 207.432 139.778C208.512 139.652 208.968 141.572 208.986 141.686C208.989 141.705 208.988 141.725 208.981 141.744C208.975 141.763 208.964 141.78 208.95 141.793C208.929 141.808 208.903 141.814 208.878 141.811ZM207.534 139.987H207.462C207.348 139.987 207.282 140.035 207.276 140.089C207.24 140.382 208.092 141.165 208.71 141.506C208.572 141.034 208.2 139.987 207.534 139.987Z" fill="#37474F"/>
<path d="M176.73 9.85686L175.818 9.96452C175.818 9.96452 176.502 10.4251 176.73 9.85686Z" fill="#263238"/>
<path d="M205.086 136.238L214.818 135.993L214.26 133.009L203.628 133.511L205.086 136.238Z" fill="#37474F"/>
<path opacity="0.5" d="M205.086 136.238L214.818 135.993L214.26 133.009L203.628 133.511L205.086 136.238Z" fill="white"/>
<path d="M234.726 127.483L241.158 122.92L239.7 120.122L232.632 125.45L234.726 127.483Z" fill="#37474F"/>
<path opacity="0.5" d="M234.726 127.483L241.158 122.92L239.7 120.122L232.632 125.45L234.726 127.483Z" fill="white"/>
<path d="M199.746 48.7148L200.226 48.5593C200.322 48.5294 200.382 48.4577 200.352 48.4038L199.476 46.4245C199.476 46.3647 199.356 46.3408 199.26 46.3707L198.78 46.5261C198.684 46.556 198.624 46.6278 198.654 46.6816L199.524 48.661C199.549 48.6933 199.585 48.7161 199.625 48.7259C199.666 48.7356 199.708 48.7317 199.746 48.7148Z" fill="#37474F"/>
<path d="M185.466 53.2357L185.946 53.0862C186.042 53.0503 186.096 52.9785 186.072 52.9247L185.196 50.9453C185.196 50.8855 185.07 50.8616 184.974 50.8915L184.494 51.047C184.398 51.047 184.344 51.1487 184.368 51.2025L185.244 53.1819C185.268 53.2357 185.4 53.2357 185.466 53.2357Z" fill="#37474F"/>
<path d="M192.6 50.9633L193.08 50.8138C193.099 50.8134 193.119 50.8087 193.136 50.7999C193.154 50.7911 193.169 50.7785 193.181 50.763C193.193 50.7475 193.202 50.7296 193.206 50.7104C193.21 50.6913 193.21 50.6714 193.206 50.6523L192.33 48.6729C192.33 48.6191 192.204 48.5952 192.108 48.6251L191.634 48.7746C191.538 48.8045 191.478 48.8763 191.502 48.9361L192.378 50.9154C192.405 50.9459 192.441 50.967 192.481 50.9756C192.521 50.9842 192.562 50.9799 192.6 50.9633Z" fill="#37474F"/>
<path opacity="0.4" d="M199.746 48.7148L200.226 48.5593C200.322 48.5294 200.382 48.4577 200.352 48.4038L199.476 46.4245C199.476 46.3647 199.356 46.3408 199.26 46.3707L198.78 46.5261C198.684 46.556 198.624 46.6278 198.654 46.6816L199.524 48.661C199.549 48.6933 199.585 48.7161 199.625 48.7259C199.666 48.7356 199.708 48.7317 199.746 48.7148Z" fill="black"/>
<path opacity="0.4" d="M185.466 53.2357L185.946 53.0862C186.042 53.0503 186.096 52.9785 186.072 52.9247L185.196 50.9453C185.196 50.8855 185.07 50.8616 184.974 50.8915L184.494 51.047C184.398 51.047 184.344 51.1487 184.368 51.2025L185.244 53.1819C185.268 53.2357 185.4 53.2357 185.466 53.2357Z" fill="black"/>
<path opacity="0.4" d="M192.6 50.9633L193.08 50.8138C193.099 50.8134 193.119 50.8087 193.136 50.7999C193.154 50.7911 193.169 50.7785 193.181 50.763C193.193 50.7475 193.202 50.7296 193.206 50.7104C193.21 50.6913 193.21 50.6714 193.206 50.6523L192.33 48.6729C192.33 48.6191 192.204 48.5952 192.108 48.6251L191.634 48.7746C191.538 48.8045 191.478 48.8763 191.502 48.9361L192.378 50.9154C192.405 50.9459 192.441 50.967 192.481 50.9756C192.521 50.9842 192.562 50.9799 192.6 50.9633Z" fill="black"/>
<path d="M198.402 36.3901C196.704 33.9981 195.078 28.4307 195.498 26.3437L197.178 28.4008C197.55 31.6061 197.952 34.1715 198.402 36.3901Z" fill="#37474F"/>
<path opacity="0.5" d="M198.402 36.3901C196.704 33.9981 195.078 28.4307 195.498 26.3437L197.178 28.4008C197.55 31.6061 197.952 34.1715 198.402 36.3901Z" fill="white"/>
<path d="M196.362 19.7478C198.66 19.6461 203.178 25.2733 203.178 25.2733L198.486 31.8512C198.486 31.8512 193.218 27.6653 192.81 24.753C192.462 22.3251 193.434 19.9032 196.362 19.7478Z" fill="#37474F"/>
<path opacity="0.6" d="M196.362 19.7478C198.66 19.6461 203.178 25.2733 203.178 25.2733L198.486 31.8512C198.486 31.8512 193.218 27.6653 192.81 24.753C192.462 22.3251 193.434 19.9032 196.362 19.7478Z" fill="white"/>
<path d="M225.132 181.207C215.274 178.217 209.166 167.507 209.166 167.507C209.166 167.507 206.04 167.334 205.89 170.144C205.632 175.084 208.326 178.648 209.982 180.352L205.242 180.089C203.553 179.994 201.859 180.172 200.226 180.615L198.654 181.046C197.347 181.405 196.232 182.26 195.549 183.428C194.866 184.596 194.669 185.984 195 187.295L197.256 196.48C197.935 199.243 199.622 201.654 201.988 203.244C204.355 204.834 207.23 205.488 210.054 205.079C214.884 204.38 222.402 203.285 223.704 203.052L227.136 202.765L228.336 182.158L225.132 181.207Z" fill="white"/>
<path d="M240.564 178.379H227.286C226.249 178.379 225.408 179.217 225.408 180.251V203.656C225.408 204.69 226.249 205.528 227.286 205.528H240.564C241.601 205.528 242.442 204.69 242.442 203.656V180.251C242.442 179.217 241.601 178.379 240.564 178.379Z" fill="#37474F"/>
<path opacity="0.3" d="M240.564 178.379H227.286C226.249 178.379 225.408 179.217 225.408 180.251V203.656C225.408 204.69 226.249 205.528 227.286 205.528H240.564C241.601 205.528 242.442 204.69 242.442 203.656V180.251C242.442 179.217 241.601 178.379 240.564 178.379Z" fill="black"/>
</svg>
