<svg width="300" height="224" viewBox="0 0 300 224" fill="none" xmlns="http://www.w3.org/2000/svg">
<mask id="mask0_49_1237" style="mask-type:alpha" maskUnits="userSpaceOnUse" x="46" y="20" width="198" height="119">
<path d="M242.862 72.1916C239.448 51.148 223.404 34.3552 201.462 30.3449C191.352 28.493 178.662 29.5633 168.108 28.8418C154.08 27.8858 143.766 20.5987 121.272 20.6588C74.016 20.7851 42.816 57.1604 46.716 101.448C48.324 119.732 61.362 135.617 83.316 137.866C106.848 140.271 124.602 123.73 144.606 116.762C170.208 107.851 187.614 122.997 211.38 119.131C230.574 116.04 246 91.4976 242.862 72.1916Z" fill="white"/>
</mask>
<g mask="url(#mask0_49_1237)">
<path d="M242.862 72.1916C239.448 51.148 223.404 34.3552 201.462 30.3449C191.352 28.493 178.662 29.5633 168.108 28.8418C154.08 27.8858 143.766 20.5987 121.272 20.6588C74.016 20.7851 42.816 57.1604 46.716 101.448C48.324 119.732 61.362 135.617 83.316 137.866C106.848 140.271 124.602 123.73 144.606 116.762C170.208 107.851 187.614 122.997 211.38 119.131C230.574 116.04 246 91.4976 242.862 72.1916Z" fill="#F0A6CA"/>
<path d="M140.284 167.874C160.216 175.44 182.78 169.941 197.225 152.944C203.883 145.115 209.301 133.59 215.203 124.81C223.045 113.14 234.513 107.851 245.708 88.3407C269.227 47.3527 253.325 2.145 213.02 -16.6214C196.382 -24.3707 176.106 -21.022 163.182 -3.13356C149.333 16.0433 154.78 39.6888 150.813 60.497C145.729 87.1242 123.91 94.6256 115.375 117.141C108.454 135.308 121.996 160.939 140.284 167.874Z" fill="#A1CDF1"/>
</g>
<path d="M150 224C214.25 224 266.334 220.953 266.334 217.194C266.334 213.435 214.25 210.388 150 210.388C85.7505 210.388 33.666 213.435 33.666 217.194C33.666 220.953 85.7505 224 150 224Z" fill="#F5F5F5"/>
<path d="M158.334 38.8767C158.812 38.6343 159.332 38.4886 159.866 38.4481C160.4 38.4075 160.937 38.4729 161.446 38.6404C161.955 38.8079 162.426 39.0743 162.832 39.4244C163.238 39.7745 163.571 40.2013 163.812 40.6805C164.774 40.1861 165.892 40.095 166.921 40.427C167.95 40.7591 168.806 41.4872 169.299 42.4511C169.792 43.4151 169.883 44.5359 169.552 45.567C169.22 46.5982 168.494 47.4552 167.532 47.9495L160.284 51.7073L156.564 44.4322C156.317 43.9565 156.165 43.4367 156.119 42.9025C156.072 42.3682 156.131 41.83 156.292 41.3185C156.453 40.8071 156.713 40.3324 157.057 39.9217C157.401 39.511 157.823 39.1722 158.298 38.9248L158.334 38.8767Z" fill="#37474F"/>
<path d="M144.354 52.3987C144.521 51.9936 144.766 51.6255 145.075 51.3155C145.384 51.0055 145.751 50.7597 146.155 50.5921C146.559 50.4246 146.993 50.3386 147.43 50.3391C147.867 50.3395 148.3 50.4265 148.704 50.5949C149.054 49.793 149.705 49.161 150.516 48.8353C151.327 48.5097 152.233 48.5164 153.039 48.8539C153.845 49.1915 154.486 49.833 154.825 50.64C155.163 51.4471 155.171 52.3551 154.848 53.1683L152.28 59.325L146.136 56.7517C145.325 56.4091 144.683 55.7591 144.349 54.9434C144.015 54.1278 144.017 53.213 144.354 52.3987Z" fill="#37474F"/>
<path opacity="0.6" d="M144.354 52.3987C144.521 51.9936 144.766 51.6255 145.075 51.3155C145.384 51.0055 145.751 50.7597 146.155 50.5921C146.559 50.4246 146.993 50.3386 147.43 50.3391C147.867 50.3395 148.3 50.4265 148.704 50.5949C149.054 49.793 149.705 49.161 150.516 48.8353C151.327 48.5097 152.233 48.5164 153.039 48.8539C153.845 49.1915 154.486 49.833 154.825 50.64C155.163 51.4471 155.171 52.3551 154.848 53.1683L152.28 59.325L146.136 56.7517C145.325 56.4091 144.683 55.7591 144.349 54.9434C144.015 54.1278 144.017 53.213 144.354 52.3987Z" fill="white"/>
<path d="M181.176 211.296H176.268L175.938 199.896H180.852L181.176 211.296Z" fill="#FFB573"/>
<path d="M219.156 193.403L214.854 195.778L207.99 186.549L212.292 184.18L219.156 193.403Z" fill="#FFB573"/>
<path d="M175.938 199.896L176.106 205.776H181.02L180.852 199.896H175.938Z" fill="#EF9F5E"/>
<path d="M212.298 184.18L207.99 186.549L211.53 191.304L215.838 188.935L212.298 184.18Z" fill="#EF9F5E"/>
<path d="M172.572 100.48C172.572 100.48 168.696 138.401 169.02 153.39C169.356 169.022 175.062 204.616 175.062 204.616H181.71C181.71 204.616 180.654 169.918 181.242 154.586C181.884 137.866 187.182 100.474 187.182 100.474L172.572 100.48Z" fill="#37474F"/>
<path opacity="0.3" d="M172.572 100.48C172.572 100.48 168.696 138.401 169.02 153.39C169.356 169.022 175.062 204.616 175.062 204.616H181.71C181.71 204.616 180.654 169.918 181.242 154.586C181.884 137.866 187.182 100.474 187.182 100.474L172.572 100.48Z" fill="black"/>
<path opacity="0.2" d="M181.2 109.914C176.304 119.792 180.216 137.811 181.95 144.515C182.838 134.445 184.35 122.137 185.508 113.1C184.74 107.984 183.438 105.362 181.2 109.914Z" fill="black"/>
<path d="M177.84 100.48C177.84 100.48 182.358 139.904 185.772 152.56C189.828 167.591 209.946 190.884 209.946 190.884L215.814 187.649C215.814 187.649 201.858 161.495 198.762 153.576C192.162 136.681 197.808 111.489 192.522 100.48H177.84Z" fill="#37474F"/>
<path opacity="0.3" d="M177.84 100.48C177.84 100.48 182.358 139.904 185.772 152.56C189.828 167.591 209.946 190.884 209.946 190.884L215.814 187.649C215.814 187.649 201.858 161.495 198.762 153.576C192.162 136.681 197.808 111.489 192.522 100.48H177.84Z" fill="black"/>
<path d="M173.646 76.767C173.55 78.4325 173.352 79.9597 173.136 81.5469C172.92 83.1342 172.62 84.6734 172.284 86.2246C171.948 87.7758 171.57 89.3331 171.084 90.8602C170.621 92.411 170.066 93.9328 169.422 95.4177L168.918 96.536C168.852 96.7104 168.714 96.9569 168.606 97.1673C168.498 97.3777 168.366 97.5761 168.252 97.7685C167.783 98.4986 167.261 99.1939 166.692 99.8489C165.63 101.072 164.488 102.223 163.272 103.294C160.915 105.372 158.409 107.273 155.772 108.982L154.242 107.022C155.316 105.982 156.408 104.905 157.464 103.835C158.52 102.765 159.564 101.671 160.554 100.564C161.535 99.4915 162.458 98.3676 163.32 97.1974C163.716 96.6603 164.073 96.0957 164.388 95.5079C164.454 95.3756 164.532 95.2373 164.586 95.111C164.64 94.9848 164.688 94.8826 164.76 94.6962L165.138 93.6921C166.116 90.9331 166.872 88.1002 167.4 85.2206C167.694 83.7716 167.898 82.2985 168.12 80.8254C168.342 79.3524 168.498 77.8192 168.624 76.4544L173.646 76.767Z" fill="#FFB573"/>
<path d="M170.226 70.7666C168.198 71.2837 166.782 79.635 166.782 79.635L172.362 83.4349C172.362 83.4349 177.714 75.0174 176.154 72.7808C174.594 70.5442 173.178 70.0151 170.226 70.7666Z" fill="#37474F"/>
<path opacity="0.6" d="M170.226 70.7666C168.198 71.2837 166.782 79.635 166.782 79.635L172.362 83.4349C172.362 83.4349 177.714 75.0174 176.154 72.7808C174.594 70.5442 173.178 70.0151 170.226 70.7666Z" fill="white"/>
<path d="M170.406 72.6365L168.852 81.048L171.99 83.1824L170.406 72.6365Z" fill="#37474F"/>
<path opacity="0.4" d="M170.406 72.6365L168.852 81.048L171.99 83.1824L170.406 72.6365Z" fill="white"/>
<path d="M170.226 70.7667C170.226 70.7667 167.886 71.5964 172.572 100.48H192.522C192.186 92.3454 192.18 87.325 196.062 70.6284C193.269 70.0487 190.438 69.675 187.59 69.5101C184.574 69.2936 181.546 69.2936 178.53 69.5101C174.636 69.8648 170.226 70.7667 170.226 70.7667Z" fill="#37474F"/>
<path opacity="0.6" d="M170.226 70.7667C170.226 70.7667 167.886 71.5964 172.572 100.48H192.522C192.186 92.3454 192.18 87.325 196.062 70.6284C193.269 70.0487 190.438 69.675 187.59 69.5101C184.574 69.2936 181.546 69.2936 178.53 69.5101C174.636 69.8648 170.226 70.7667 170.226 70.7667Z" fill="white"/>
<path d="M155.166 106.306L149.604 106.709L152.928 110.443C152.928 110.443 156 109.739 156.528 107.767L155.166 106.306Z" fill="#FFB573"/>
<path d="M146.526 108.687L148.812 112.204L152.928 110.443L149.604 106.709L146.526 108.687Z" fill="#FFB573"/>
<path d="M213.924 195.194L218.316 191.845C218.39 191.784 218.484 191.753 218.58 191.758C218.676 191.764 218.766 191.806 218.832 191.876L221.976 194.972C222.049 195.045 222.108 195.131 222.148 195.227C222.187 195.322 222.208 195.425 222.208 195.528C222.208 195.632 222.187 195.734 222.148 195.829C222.108 195.925 222.049 196.012 221.976 196.084C221.946 196.119 221.912 196.149 221.874 196.174C220.326 197.317 219.516 197.792 217.584 199.265C216.384 200.173 214.758 201.622 213.12 202.872C211.482 204.123 210.156 202.566 210.72 201.898C213.282 198.892 213.072 197.623 213.444 195.964C213.505 195.658 213.676 195.384 213.924 195.194Z" fill="#263238"/>
<path d="M176.1 210.724H181.62C181.714 210.725 181.806 210.759 181.877 210.821C181.949 210.882 181.996 210.968 182.01 211.061L182.61 215.438C182.622 215.541 182.613 215.645 182.584 215.744C182.555 215.844 182.507 215.936 182.443 216.017C182.378 216.097 182.298 216.164 182.207 216.213C182.116 216.263 182.017 216.293 181.914 216.304H181.8C179.88 216.304 178.95 216.16 176.526 216.16C175.032 216.16 171.942 216.316 169.878 216.316C167.814 216.316 167.706 214.272 168.57 214.085C172.416 213.256 173.934 212.113 175.23 211.019C175.474 210.818 175.784 210.713 176.1 210.724Z" fill="#263238"/>
<path d="M198.216 75.8893C199.375 78.724 200.364 81.6251 201.18 84.5773C202.07 87.5714 202.672 90.6436 202.98 93.7523L203.04 94.9548V95.7425C203.015 96.0519 202.969 96.3593 202.902 96.6624C202.66 97.5747 202.292 98.4489 201.81 99.2597C201.004 100.638 200.083 101.946 199.056 103.168C197.103 105.511 194.977 107.704 192.696 109.727L190.896 108.014C192.642 105.669 194.412 103.294 195.954 100.877C196.718 99.7219 197.403 98.5167 198.006 97.2696C198.245 96.7768 198.42 96.2556 198.528 95.7184C198.534 95.6584 198.534 95.598 198.528 95.538V95.4719L198.498 95.2254L198.39 94.2213C197.933 91.428 197.269 88.6727 196.404 85.9782C195.552 83.2305 194.604 80.4468 193.566 77.7953L198.216 75.8893Z" fill="#FFB573"/>
<path d="M212.268 197.269H212.208C212.095 197.258 211.987 197.218 211.895 197.152C211.802 197.087 211.728 196.999 211.68 196.896C211.645 196.835 211.626 196.765 211.626 196.695C211.626 196.624 211.645 196.554 211.68 196.493C211.974 195.94 213.744 195.802 213.948 195.79C213.97 195.787 213.992 195.791 214.012 195.802C214.031 195.812 214.047 195.829 214.056 195.85C214.07 195.868 214.078 195.89 214.078 195.913C214.078 195.936 214.07 195.958 214.056 195.976C213.63 196.463 212.88 197.269 212.268 197.269ZM213.672 196.066C212.964 196.138 212.028 196.331 211.872 196.625C211.853 196.682 211.853 196.743 211.872 196.8C211.902 196.869 211.949 196.929 212.009 196.974C212.069 197.019 212.14 197.048 212.214 197.058H212.256C212.828 196.888 213.326 196.53 213.672 196.042V196.066Z" fill="#37474F"/>
<path d="M213.774 196.006C213.174 196.006 212.046 195.717 211.824 195.26C211.784 195.177 211.773 195.082 211.793 194.991C211.814 194.9 211.865 194.819 211.938 194.761C212.001 194.698 212.077 194.649 212.161 194.619C212.245 194.589 212.335 194.578 212.424 194.587C213.138 194.641 214.002 195.76 214.038 195.79C214.05 195.807 214.056 195.828 214.056 195.85C214.056 195.871 214.05 195.892 214.038 195.91C214.03 195.928 214.017 195.943 214.002 195.955C213.986 195.966 213.967 195.974 213.948 195.976C213.891 195.992 213.833 196.002 213.774 196.006ZM212.4 194.804C212.299 194.804 212.201 194.845 212.13 194.918C212.022 195.02 212.04 195.092 212.064 195.146C212.214 195.453 213.138 195.747 213.738 195.747C213.432 195.387 212.862 194.822 212.436 194.785L212.4 194.804Z" fill="#37474F"/>
<path d="M174.252 211.584C173.829 211.625 173.406 211.519 173.052 211.284C172.967 211.211 172.903 211.117 172.867 211.011C172.83 210.906 172.821 210.792 172.842 210.682C172.845 210.618 172.865 210.556 172.9 210.503C172.935 210.449 172.983 210.405 173.04 210.376C173.64 210.039 175.596 211.043 175.818 211.157C175.839 211.169 175.857 211.186 175.869 211.208C175.88 211.229 175.886 211.253 175.884 211.278C175.878 211.302 175.867 211.324 175.85 211.342C175.833 211.36 175.812 211.373 175.788 211.38C175.283 211.496 174.769 211.564 174.252 211.584ZM173.4 210.568C173.325 210.564 173.251 210.579 173.184 210.61C173.16 210.622 173.14 210.64 173.127 210.662C173.113 210.684 173.106 210.71 173.106 210.737C173.096 210.805 173.104 210.875 173.128 210.94C173.152 211.005 173.192 211.063 173.244 211.109C173.538 211.374 174.348 211.422 175.44 211.242C174.802 210.904 174.113 210.676 173.4 210.568Z" fill="#37474F"/>
<path d="M175.8 211.41H175.752C175.152 211.145 174.012 210.087 174.102 209.528C174.102 209.396 174.216 209.233 174.54 209.197C174.655 209.185 174.772 209.196 174.882 209.232C174.993 209.267 175.095 209.325 175.182 209.402C175.782 209.913 175.914 211.242 175.92 211.296C175.92 211.316 175.915 211.336 175.906 211.354C175.897 211.372 175.883 211.387 175.866 211.398C175.856 211.404 175.846 211.409 175.834 211.411C175.823 211.413 175.811 211.413 175.8 211.41ZM174.6 209.414H174.534C174.318 209.414 174.306 209.522 174.3 209.546C174.246 209.883 175.032 210.749 175.626 211.079C175.59 210.522 175.38 209.99 175.026 209.558C174.908 209.456 174.755 209.405 174.6 209.414Z" fill="#37474F"/>
<path d="M191.532 107.461L186.27 108.152L189.96 111.525C189.96 111.525 192.96 110.509 193.278 108.489L191.532 107.461Z" fill="#FFB573"/>
<path d="M187.59 69.5101C184.574 69.2936 181.546 69.2936 178.53 69.5101C177.444 69.6063 176.316 69.7506 175.254 69.9009C174.792 71.6565 174.882 74.1096 176.67 77.3203L177.702 79.1661L179.658 78.3785C181.11 77.7772 188.46 74.6808 190.824 70.8449L191.424 69.8528C190.248 69.7025 188.928 69.5762 187.59 69.5101Z" fill="#37474F"/>
<path opacity="0.6" d="M187.59 69.5101C184.574 69.2936 181.546 69.2936 178.53 69.5101C177.444 69.6063 176.316 69.7506 175.254 69.9009C174.792 71.6565 174.882 74.1096 176.67 77.3203L177.702 79.1661L179.658 78.3785C181.11 77.7772 188.46 74.6808 190.824 70.8449L191.424 69.8528C190.248 69.7025 188.928 69.5762 187.59 69.5101Z" fill="black"/>
<path d="M187.584 69.5101C184.57 69.2936 181.544 69.2936 178.53 69.5101L177.93 69.5702C177.21 70.9411 177.024 73.0514 178.758 76.1539C178.758 76.1539 186.702 72.9432 188.772 69.5883C188.4 69.5522 187.986 69.5281 187.584 69.5101Z" fill="#FFB573"/>
<path d="M175.716 47.4985C177.294 45.0935 179.916 44.3539 181.938 44.0593C183.96 43.7647 190.59 43.5904 192.564 50.9737C194.124 56.8238 195.666 61.7179 200.436 65.4035C197.22 68.1452 183.132 70.2977 175.326 67.6101C172.044 62.6318 171.876 53.3065 175.716 47.4985Z" fill="#263238"/>
<path d="M186.69 59.2828C186.12 62.2048 185.55 67.5559 187.59 69.504C187.59 69.504 186.792 72.4621 181.374 72.4621C175.422 72.4621 178.53 69.504 178.53 69.504C181.782 68.7223 181.698 66.3053 181.128 64.0386L186.69 59.2828Z" fill="#FFB573"/>
<path d="M184.422 61.2249L181.134 64.0387C181.271 64.5672 181.363 65.1062 181.41 65.6501C182.652 65.4757 184.356 64.1049 184.488 62.8062C184.562 62.2794 184.54 61.7436 184.422 61.2249Z" fill="#EF9F5E"/>
<path d="M190.008 53.8657C188.976 58.6396 188.634 60.6838 185.808 62.7821C181.608 65.9387 175.956 63.6239 175.548 58.6335C175.182 54.1422 176.94 47.0896 181.944 45.8992C183.046 45.6295 184.199 45.6468 185.293 45.9495C186.387 46.2522 187.385 46.8301 188.194 47.6285C189.002 48.4268 189.593 49.4189 189.91 50.5106C190.228 51.6023 190.261 52.7572 190.008 53.8657Z" fill="#FFB573"/>
<path d="M182.142 53.9619C182.082 54.3587 181.824 54.6413 181.572 54.6052C181.32 54.5691 181.158 54.2144 181.218 53.8236C181.278 53.4328 181.53 53.1442 181.818 53.1803C182.106 53.2163 182.202 53.5711 182.142 53.9619Z" fill="#263238"/>
<path d="M177.714 53.2825C177.654 53.6733 177.402 53.9619 177.144 53.9198C176.886 53.8777 176.73 53.529 176.79 53.1382C176.85 52.7473 177.108 52.4588 177.39 52.5008C177.672 52.5429 177.774 52.9097 177.714 53.2825Z" fill="#263238"/>
<path d="M177.474 52.5369L176.574 52.122C176.574 52.122 176.94 52.9096 177.474 52.5369Z" fill="#263238"/>
<path d="M178.974 54.1963C178.481 55.0385 177.875 55.8092 177.174 56.4871C177.351 56.6615 177.565 56.7949 177.799 56.878C178.033 56.9611 178.283 56.9918 178.53 56.9681L178.974 54.1963Z" fill="#ED893E"/>
<path d="M180.444 58.832C180.243 58.8341 180.042 58.818 179.844 58.7838C179.829 58.7817 179.814 58.7765 179.801 58.7686C179.788 58.7607 179.777 58.7503 179.768 58.738C179.759 58.7257 179.753 58.7117 179.749 58.6968C179.746 58.682 179.745 58.6666 179.748 58.6516C179.75 58.6365 179.755 58.622 179.763 58.609C179.771 58.5959 179.781 58.5846 179.794 58.5756C179.806 58.5666 179.82 58.5602 179.835 58.5567C179.85 58.5533 179.865 58.5528 179.88 58.5554C180.366 58.6409 180.865 58.6109 181.337 58.4678C181.809 58.3248 182.241 58.0726 182.598 57.7317C182.609 57.7209 182.621 57.7124 182.635 57.7066C182.649 57.7008 182.664 57.6978 182.679 57.6978C182.694 57.6978 182.709 57.7008 182.723 57.7066C182.737 57.7124 182.749 57.7209 182.76 57.7317C182.772 57.7424 182.781 57.7554 182.787 57.7699C182.794 57.7844 182.797 57.8 182.797 57.8158C182.797 57.8317 182.794 57.8473 182.787 57.8618C182.781 57.8763 182.772 57.8893 182.76 57.9C182.141 58.5053 181.309 58.8403 180.444 58.832Z" fill="#263238"/>
<path d="M187.116 51.0037C186.204 52.6571 186.516 56.2165 188.802 57.1845C191.088 58.1525 191.352 52.14 190.77 51.0037C190.188 49.8673 187.116 51.0037 187.116 51.0037Z" fill="#263238"/>
<path d="M182.052 45.5204C182.052 45.5204 181.032 46.7228 180.534 49.4766C182.334 50.7151 185.838 53.0299 190.47 52.4828C190.47 51.3344 189.15 47.8472 187.986 46.9453C186.212 45.8451 184.131 45.3456 182.052 45.5204Z" fill="#263238"/>
<path d="M177.846 48.8812C177.846 48.8812 178.596 48.6227 179.994 49.2299C180.581 48.051 181.383 46.9925 182.358 46.1095C180 45.0453 178.968 47.2939 177.846 48.8812Z" fill="#263238"/>
<path d="M190.632 58.4893C190.168 59.3108 189.401 59.9174 188.496 60.1788C187.296 60.5035 186.696 59.4272 187.038 58.2909C187.344 57.2628 188.34 55.8859 189.546 56.0302C189.965 56.0981 190.341 56.3301 190.589 56.6751C190.838 57.02 190.94 57.4499 190.872 57.87C190.836 58.0908 190.754 58.3017 190.632 58.4893Z" fill="#FFB573"/>
<path d="M184.056 53.3366C184.007 53.3348 183.96 53.3184 183.92 53.2894C183.881 53.2605 183.851 53.2204 183.834 53.1743C183.504 52.1522 182.184 51.7313 182.166 51.7253C182.138 51.7135 182.112 51.6962 182.09 51.6742C182.069 51.6523 182.052 51.6262 182.041 51.5976C182.03 51.5689 182.024 51.5383 182.025 51.5076C182.026 51.4769 182.033 51.4466 182.046 51.4187C182.067 51.3697 182.104 51.3293 182.151 51.3041C182.198 51.279 182.252 51.2706 182.304 51.2804C182.741 51.41 183.143 51.6338 183.484 51.9361C183.825 52.2383 184.096 52.6117 184.278 53.03C184.288 53.058 184.293 53.0878 184.292 53.1176C184.29 53.1475 184.283 53.1767 184.27 53.2037C184.257 53.2306 184.239 53.2546 184.217 53.2744C184.194 53.2941 184.168 53.3092 184.14 53.3186L184.056 53.3366Z" fill="#263238"/>
<path d="M176.7 51.0277C176.65 51.0267 176.601 51.0094 176.561 50.9785C176.521 50.9476 176.493 50.9046 176.479 50.856C176.466 50.8074 176.468 50.7557 176.486 50.7087C176.505 50.6616 176.537 50.6217 176.58 50.5948C176.893 50.3979 177.249 50.2789 177.617 50.2475C177.986 50.2161 178.356 50.2733 178.698 50.4144C178.728 50.4265 178.755 50.4445 178.777 50.4674C178.8 50.4903 178.817 50.5176 178.829 50.5476C178.84 50.5776 178.846 50.6097 178.844 50.6418C178.843 50.6739 178.835 50.7053 178.821 50.7343C178.807 50.7632 178.787 50.7889 178.763 50.8098C178.738 50.8307 178.71 50.8464 178.679 50.8559C178.649 50.8653 178.616 50.8684 178.585 50.8649C178.553 50.8613 178.522 50.8513 178.494 50.8353C178.222 50.7292 177.929 50.6881 177.639 50.7153C177.348 50.7424 177.068 50.837 176.82 50.9916C176.785 51.0152 176.743 51.0278 176.7 51.0277Z" fill="#263238"/>
<path d="M181.896 53.2222L181.002 52.8014C181.002 52.8014 181.368 53.613 181.896 53.2222Z" fill="#263238"/>
<path d="M196.062 70.6283C198.06 71.2296 200.46 78.1319 200.46 78.1319L192.708 83.6874C192.708 83.6874 189.876 77.9335 190.716 75.3421C191.592 72.6485 193.8 69.9309 196.062 70.6283Z" fill="#37474F"/>
<path opacity="0.6" d="M196.062 70.6283C198.06 71.2296 200.46 78.1319 200.46 78.1319L192.708 83.6874C192.708 83.6874 189.876 77.9335 190.716 75.3421C191.592 72.6485 193.8 69.9309 196.062 70.6283Z" fill="white"/>
<path d="M192.822 99.3078L193.332 101.111C193.404 101.25 193.236 101.394 193.008 101.394H172.476C172.296 101.394 172.146 101.304 172.134 101.19L171.954 99.3859C171.954 99.2597 172.098 99.1574 172.296 99.1574H192.498C192.56 99.1521 192.623 99.1632 192.68 99.1895C192.737 99.2159 192.786 99.2566 192.822 99.3078Z" fill="#37474F"/>
<path opacity="0.3" d="M192.822 99.3078L193.332 101.111C193.404 101.25 193.236 101.394 193.008 101.394H172.476C172.296 101.394 172.146 101.304 172.134 101.19L171.954 99.3859C171.954 99.2597 172.098 99.1574 172.296 99.1574H192.498C192.56 99.1521 192.623 99.1632 192.68 99.1895C192.737 99.2159 192.786 99.2566 192.822 99.3078Z" fill="white"/>
<path d="M190.11 101.568H190.65C190.758 101.568 190.842 101.514 190.83 101.448L190.578 99.1213C190.578 99.0552 190.476 98.9951 190.368 98.9951H189.828C189.72 98.9951 189.636 99.0552 189.648 99.1213L189.9 101.448C189.906 101.514 190.002 101.568 190.11 101.568Z" fill="#37474F"/>
<path d="M174 101.568H174.54C174.648 101.568 174.732 101.514 174.726 101.448L174.468 99.1213C174.468 99.0552 174.366 98.9951 174.264 98.9951H173.718C173.61 98.9951 173.532 99.0552 173.538 99.1213L173.79 101.448C173.79 101.514 173.886 101.568 174 101.568Z" fill="#37474F"/>
<path d="M182.052 101.568H182.592C182.7 101.568 182.784 101.514 182.778 101.448L182.52 99.1213C182.52 99.0552 182.418 98.9951 182.31 98.9951H181.8C181.692 98.9951 181.614 99.0552 181.62 99.1213L181.872 101.448C181.848 101.514 181.944 101.568 182.052 101.568Z" fill="#37474F"/>
<path d="M182.286 204.874H174.486L173.916 202.385L182.646 202.079L182.286 204.874Z" fill="#37474F"/>
<path opacity="0.6" d="M182.286 204.874H174.486L173.916 202.385L182.646 202.079L182.286 204.874Z" fill="black"/>
<path d="M216.66 187.583L209.376 191.593L207.342 189.729L215.7 184.618L216.66 187.583Z" fill="#37474F"/>
<path opacity="0.6" d="M216.66 187.583L209.376 191.593L207.342 189.729L215.7 184.618L216.66 187.583Z" fill="black"/>
<g opacity="0.3">
<path d="M190.11 101.568H190.65C190.758 101.568 190.842 101.514 190.83 101.448L190.578 99.1213C190.578 99.0552 190.476 98.9951 190.368 98.9951H189.828C189.72 98.9951 189.636 99.0552 189.648 99.1213L189.9 101.448C189.906 101.514 190.002 101.568 190.11 101.568Z" fill="black"/>
<path d="M174 101.568H174.54C174.648 101.568 174.732 101.514 174.726 101.448L174.468 99.1213C174.468 99.0552 174.366 98.9951 174.264 98.9951H173.718C173.61 98.9951 173.532 99.0552 173.538 99.1213L173.79 101.448C173.79 101.514 173.886 101.568 174 101.568Z" fill="black"/>
<path d="M182.052 101.568H182.592C182.7 101.568 182.784 101.514 182.778 101.448L182.52 99.1213C182.52 99.0552 182.418 98.9951 182.31 98.9951H181.8C181.692 98.9951 181.614 99.0552 181.62 99.1213L181.872 101.448C181.848 101.514 181.944 101.568 182.052 101.568Z" fill="black"/>
</g>
<path d="M192.222 127.741C192.18 127.754 192.134 127.751 192.094 127.732C192.054 127.713 192.022 127.68 192.006 127.638L179.232 88.7017C179.219 88.6579 179.223 88.6106 179.245 88.5701C179.266 88.5296 179.302 88.4991 179.346 88.4853C179.368 88.4777 179.391 88.4745 179.414 88.4758C179.436 88.4772 179.459 88.483 179.479 88.4931C179.5 88.5032 179.519 88.5172 179.534 88.5344C179.549 88.5517 179.561 88.5717 179.568 88.5935L192.336 127.53C192.344 127.552 192.347 127.575 192.345 127.598C192.344 127.621 192.338 127.643 192.328 127.664C192.318 127.685 192.304 127.703 192.287 127.718C192.27 127.734 192.25 127.745 192.228 127.753L192.222 127.741Z" fill="#263238"/>
<path d="M181.29 87.7459L180.864 86.4412C180.691 85.9173 180.318 85.4833 179.827 85.2342C179.335 84.9852 178.766 84.9414 178.242 85.1124C177.955 85.2066 177.693 85.3633 177.474 85.5712C177.255 85.7792 177.085 86.0332 176.976 86.3149C177.757 86.1503 178.568 86.196 179.326 86.4473C180.083 86.6987 180.761 87.1467 181.29 87.7459Z" fill="#263238"/>
<path d="M178.638 86.5794C178.977 87.1137 179.093 87.7607 178.959 88.3799C178.826 88.999 178.454 89.5403 177.924 89.8862L175.338 85.8699C175.87 85.529 176.516 85.4123 177.133 85.5452C177.751 85.678 178.292 86.0496 178.638 86.5794Z" fill="#263238"/>
<path d="M178.878 95.2734L181.512 96.8366C181.973 97.1052 182.32 97.5326 182.49 98.0391L183.588 101.394L179.988 99.2536C179.53 98.9813 179.184 98.5553 179.01 98.0512L178.266 95.7724C178.234 95.664 178.245 95.5473 178.298 95.4473C178.351 95.3473 178.44 95.2719 178.548 95.2373C178.658 95.2068 178.776 95.2197 178.878 95.2734Z" fill="#263238"/>
<path d="M185.244 98.2375L184.044 101.063C183.836 101.56 183.815 102.115 183.984 102.627L185.082 105.982L186.72 102.11C186.928 101.613 186.95 101.057 186.78 100.546L186.036 98.2736C185.999 98.1669 185.922 98.0792 185.821 98.0296C185.719 97.98 185.603 97.9726 185.496 98.009C185.44 98.0271 185.389 98.0568 185.346 98.0962C185.302 98.1356 185.268 98.1837 185.244 98.2375Z" fill="#263238"/>
<path d="M179.04 86.7358C179.082 87.3686 179.371 87.9593 179.845 88.3794C180.319 88.7994 180.94 89.0147 181.572 88.9784L181.278 84.1685C180.643 84.2102 180.051 84.5028 179.631 84.9819C179.211 85.4611 178.999 86.0876 179.04 86.7238V86.7358Z" fill="#37474F"/>
<path opacity="0.2" d="M179.04 86.7358C179.082 87.3686 179.371 87.9593 179.845 88.3794C180.319 88.7994 180.94 89.0147 181.572 88.9784L181.278 84.1685C180.643 84.2102 180.051 84.5028 179.631 84.9819C179.211 85.4611 178.999 86.0876 179.04 86.7238V86.7358Z" fill="black"/>
<path d="M178.062 88.0405C177.902 87.9173 177.719 87.8269 177.525 87.7744C177.33 87.7219 177.127 87.7084 176.927 87.7347C176.727 87.7609 176.534 87.8264 176.359 87.9273C176.184 88.0283 176.031 88.1628 175.908 88.323L178.344 90.1989C178.467 90.0387 178.557 89.8557 178.609 89.6605C178.662 89.4652 178.675 89.2616 178.649 89.0612C178.623 88.8607 178.558 88.6674 178.457 88.4923C178.356 88.3172 178.222 88.1636 178.062 88.0405Z" fill="#37474F"/>
<path opacity="0.2" d="M178.062 88.0405C177.902 87.9173 177.719 87.8269 177.525 87.7744C177.33 87.7219 177.127 87.7084 176.927 87.7347C176.727 87.7609 176.534 87.8264 176.359 87.9273C176.184 88.0283 176.031 88.1628 175.908 88.323L178.344 90.1989C178.467 90.0387 178.557 89.8557 178.609 89.6605C178.662 89.4652 178.675 89.2616 178.649 89.0612C178.623 88.8607 178.558 88.6674 178.457 88.4923C178.356 88.3172 178.222 88.1636 178.062 88.0405Z" fill="black"/>
<path d="M177.912 90.7882C178.098 91.2946 178.472 91.7089 178.957 91.9439C179.441 92.1789 179.998 92.216 180.509 92.0476C181.021 91.8791 181.447 91.5181 181.698 91.0409C181.949 90.5636 182.005 90.0074 181.854 89.4895L181.29 87.7699C180.759 87.1745 180.08 86.7302 179.323 86.4821C178.565 86.234 177.756 86.1909 176.976 86.357C176.79 86.8043 176.771 87.3036 176.922 87.7639L177.912 90.7882Z" fill="#37474F"/>
<path opacity="0.2" d="M177.924 90.7882C178.096 91.3112 178.468 91.7444 178.959 91.9925C179.449 92.2405 180.018 92.2831 180.54 92.1109C181.062 91.9387 181.494 91.5658 181.742 91.0741C181.989 90.5825 182.032 90.0125 181.86 89.4895L181.296 87.7699C180.765 87.1745 180.086 86.7302 179.329 86.4821C178.571 86.234 177.762 86.1909 176.982 86.357C176.796 86.8043 176.777 87.3036 176.928 87.7639L177.924 90.7882Z" fill="black"/>
<path d="M183.378 111.104L186.618 113.762L189.96 111.525L186.27 108.152L183.378 111.104Z" fill="#FFB573"/>
<path d="M151.776 112.09L154.644 110.407L152.652 108.11L148.794 110.443L151.776 112.09Z" fill="#FF8B7B"/>
<path d="M99.4199 212.282L95.0759 211.073L97.4279 200.87L101.778 202.079L99.4199 212.282Z" fill="#FF8B7B"/>
<path d="M151.362 212.143L146.904 212.847L144.936 202.656H149.448L151.362 212.143Z" fill="#FF8B7B"/>
<path d="M146.508 212.378L151.512 211.59C151.6 211.576 151.69 211.592 151.767 211.635C151.845 211.679 151.905 211.748 151.938 211.831L153.444 215.661C153.476 215.742 153.491 215.828 153.489 215.915C153.488 216.002 153.468 216.087 153.433 216.167C153.398 216.246 153.348 216.318 153.284 216.378C153.221 216.437 153.147 216.484 153.066 216.514C153.019 216.537 152.968 216.552 152.916 216.557C151.164 216.803 150.3 216.839 148.116 217.188C146.766 217.398 145.47 217.735 139.488 217.735C137.634 217.735 137.346 215.859 138.12 215.691C141.594 214.933 144.9 213.935 145.848 212.769C146.012 212.562 146.247 212.422 146.508 212.378Z" fill="#263238"/>
<path d="M95.244 210.58L99.99 211.897C100.075 211.923 100.15 211.977 100.202 212.05C100.254 212.122 100.281 212.21 100.278 212.3L100.062 216.406C100.05 216.575 99.9718 216.733 99.8451 216.845C99.7184 216.958 99.5529 217.016 99.384 217.008C99.3303 217.016 99.2756 217.016 99.222 217.008C97.518 216.503 95.076 215.715 92.922 215.12C90.402 214.422 88.194 213.953 85.242 213.136C83.442 212.637 83.442 210.695 84.258 210.731C87.858 210.929 90.66 211.62 94.098 210.622C94.4689 210.503 94.8653 210.489 95.244 210.58Z" fill="#263238"/>
<path d="M97.4281 200.87L96.2161 206.131L100.566 207.34L101.778 202.079L97.4281 200.87Z" fill="#EA7063"/>
<path d="M149.448 202.656H144.936L145.98 208.055H150.54L149.448 202.656Z" fill="#EA7063"/>
<path d="M113.112 59.0845C113.112 59.0845 107.79 72.7328 112.848 98.1655H136.974C137.136 94.4558 134.808 76.3523 138.384 58.8681C135.717 58.3501 133.02 58.0087 130.308 57.8459C126.893 57.6475 123.469 57.6475 120.054 57.8459C117.711 58.0752 115.39 58.4894 113.112 59.0845Z" fill="#263238"/>
<path d="M145.158 213.394C144.858 213.467 144.543 213.435 144.264 213.304C144.173 213.248 144.097 213.171 144.043 213.078C143.99 212.986 143.961 212.882 143.958 212.775C143.948 212.714 143.955 212.651 143.978 212.594C144.002 212.537 144.04 212.487 144.09 212.45C144.54 212.119 146.118 212.775 146.298 212.853C146.317 212.86 146.334 212.873 146.346 212.891C146.358 212.908 146.364 212.928 146.364 212.949C146.363 212.97 146.356 212.991 146.345 213.009C146.333 213.027 146.317 213.042 146.298 213.051C145.932 213.207 145.549 213.322 145.158 213.394ZM144.348 212.576C144.301 212.583 144.256 212.6 144.216 212.624C144.196 212.639 144.18 212.66 144.172 212.683C144.163 212.707 144.162 212.732 144.168 212.757C144.17 212.829 144.19 212.899 144.225 212.962C144.261 213.025 144.311 213.078 144.372 213.117C144.906 213.268 145.477 213.207 145.968 212.949C145.457 212.721 144.907 212.594 144.348 212.576Z" fill="#37474F"/>
<path d="M146.274 213.057H146.22C145.722 212.877 144.672 212.041 144.69 211.53C144.69 211.434 144.732 211.272 144.984 211.199C145.062 211.176 145.144 211.17 145.225 211.181C145.306 211.192 145.383 211.221 145.452 211.266C146.052 211.608 146.346 212.877 146.358 212.931C146.364 212.949 146.364 212.969 146.358 212.987C146.353 213.005 146.342 213.021 146.328 213.033L146.274 213.057ZM145.074 211.386H145.032C144.894 211.428 144.894 211.488 144.894 211.518C144.894 211.819 145.566 212.468 146.094 212.721C145.982 212.216 145.72 211.757 145.344 211.404C145.261 211.374 145.169 211.374 145.086 211.404L145.074 211.386Z" fill="#37474F"/>
<path d="M93.222 210.839C92.8413 210.771 92.4958 210.573 92.244 210.28C92.1902 210.198 92.1572 210.104 92.1478 210.007C92.1384 209.909 92.1529 209.811 92.19 209.72C92.2066 209.664 92.2384 209.614 92.2818 209.574C92.3252 209.535 92.3785 209.509 92.436 209.498C93.036 209.342 94.542 210.7 94.716 210.875C94.7277 210.894 94.7339 210.916 94.7339 210.938C94.7339 210.96 94.7277 210.982 94.716 211.001C94.707 211.022 94.6916 211.038 94.6721 211.049C94.6526 211.06 94.6301 211.064 94.608 211.061C94.1402 211.029 93.6763 210.955 93.222 210.839ZM92.688 209.72C92.6212 209.702 92.5508 209.702 92.484 209.72C92.4615 209.726 92.4408 209.737 92.424 209.753C92.4071 209.768 92.3947 209.788 92.388 209.811C92.3645 209.87 92.355 209.934 92.3602 209.997C92.3654 210.061 92.3852 210.123 92.418 210.177C92.622 210.49 93.324 210.73 94.332 210.839C93.851 210.375 93.2952 209.997 92.688 209.72Z" fill="#37474F"/>
<path d="M94.6139 211.037H94.5719C94.1159 210.658 93.3359 209.426 93.5519 208.957C93.5999 208.843 93.7199 208.722 94.0139 208.777C94.1191 208.792 94.2199 208.83 94.3098 208.886C94.3998 208.943 94.4768 209.019 94.5359 209.107C94.9619 209.708 94.7519 210.911 94.7459 210.977C94.7434 210.995 94.7358 211.012 94.7242 211.026C94.7125 211.039 94.6972 211.05 94.6799 211.055C94.6683 211.059 94.656 211.059 94.6444 211.055C94.6328 211.052 94.6222 211.046 94.6139 211.037ZM94.0139 208.975H93.9539C93.7619 208.939 93.7319 209.011 93.7199 209.035C93.5879 209.318 94.0919 210.238 94.5359 210.725C94.6247 210.215 94.5556 209.69 94.3379 209.221C94.2641 209.117 94.159 209.039 94.0379 208.999L94.0139 208.975Z" fill="#37474F"/>
<path d="M147.93 106.968L148.794 110.443L152.652 108.11C152.652 108.11 152.088 104.376 149.148 104.316L147.93 106.968Z" fill="#FF8B7B"/>
<path d="M112.848 98.1534C112.848 98.1534 103.842 134.078 102 147.774C100.086 161.988 95.52 204.129 95.52 204.129L102.6 206.396C102.6 206.396 112.674 165 115.38 151.183C118.332 136.116 128.694 98.1534 128.694 98.1534H112.848Z" fill="#37474F"/>
<path opacity="0.6" d="M112.848 98.1534C112.848 98.1534 103.842 134.078 102 147.774C100.086 161.988 95.52 204.129 95.52 204.129L102.6 206.396C102.6 206.396 112.674 165 115.38 151.183C118.332 136.116 128.694 98.1534 128.694 98.1534H112.848Z" fill="white"/>
<path d="M102.954 206.895L95.0459 204.405L95.1539 201.465L103.782 204.291L102.954 206.895Z" fill="#37474F"/>
<path d="M123.678 100.811L125.778 109.042C123.828 116.395 121.218 126.364 119.016 135.328C118.806 123.652 120.378 112.011 123.678 100.811Z" fill="#37474F"/>
<path opacity="0.4" d="M123.678 100.811L125.778 109.042C123.828 116.395 121.218 126.364 119.016 135.328C118.806 123.652 120.378 112.011 123.678 100.811Z" fill="white"/>
<path d="M121.404 98.1534C121.404 98.1534 123.45 135.1 126.264 148.057C129.336 162.21 144 207.009 144 207.009H152.262C152.262 207.009 141.546 163.352 139.8 149.325C137.892 134.096 136.98 98.1534 136.98 98.1534H121.404Z" fill="#37474F"/>
<path opacity="0.6" d="M121.404 98.1534C121.404 98.1534 123.45 135.1 126.264 148.057C129.336 162.21 144 207.009 144 207.009H152.262C152.262 207.009 141.546 163.352 139.8 149.325C137.892 134.096 136.98 98.1534 136.98 98.1534H121.404Z" fill="white"/>
<path d="M152.868 207.135H143.4L142.536 204.592H152.868V207.135Z" fill="#37474F"/>
<path d="M120 86.0202C117 85.8699 113.91 85.6414 111.042 85.2205C109.705 85.0512 108.39 84.7408 107.118 84.2946L106.974 84.2405L107.478 83.2544C107.844 82.551 108.186 81.8415 108.528 81.1381C109.218 79.7191 109.89 78.3062 110.538 76.8812C111.852 74.0374 113.082 71.1754 114.246 68.2654L107.646 65.5117C106.404 68.3376 105.204 71.2055 104.046 74.0734L102.312 78.3723L101.454 80.5128L101.022 81.571L100.806 82.1001C100.655 82.4387 100.531 82.7884 100.434 83.1462C100.17 84.122 100.193 85.1533 100.5 86.1164C100.815 87.0351 101.383 87.8459 102.138 88.4552C102.661 88.8754 103.241 89.2195 103.86 89.4773C104.351 89.6815 104.856 89.8503 105.372 89.9824C106.265 90.2026 107.173 90.3514 108.09 90.4273C108.954 90.5055 109.8 90.5476 110.628 90.5476C113.873 90.5293 117.108 90.193 120.288 89.5435L120 86.0202Z" fill="#FF8B7B"/>
<path d="M118.47 62.1809C119.988 66.2213 112.29 78.1319 112.29 78.1319L103.29 73.2258C104.645 69.5217 106.393 65.9741 108.504 62.6439C111.672 57.876 116.802 57.7197 118.47 62.1809Z" fill="#263238"/>
<path d="M142.674 63.7982C144.006 67.2253 145.242 70.6644 146.412 74.1456C147.012 75.8893 147.564 77.6389 148.104 79.4065C148.644 81.1742 149.178 82.9419 149.646 84.8177C150.095 86.6962 150.433 88.5994 150.66 90.5175C150.912 92.3814 151.062 94.2272 151.212 96.073C151.494 99.7647 151.62 103.432 151.596 107.136L148.08 107.485C147.312 103.931 146.592 100.354 145.866 96.8246C145.512 95.0569 145.128 93.2953 144.744 91.5637C144.36 89.8321 143.928 88.1546 143.418 86.5854C142.908 85.0161 142.254 83.2725 141.618 81.5891L139.722 76.5085C138.45 73.1235 137.19 69.7084 135.972 66.2874L142.674 63.7982Z" fill="#FF8B7B"/>
<path d="M138.384 58.8559C142.65 59.4572 147.54 74.2959 147.54 74.2959L138.6 79.3644C138.6 79.3644 134.652 72.3178 132.702 67.087C130.638 61.6036 133.8 58.1885 138.384 58.8559Z" fill="#263238"/>
<path d="M127.404 83.5191L127.824 88.2809L123.54 88.8461L122.814 83.6273L127.404 83.5191Z" fill="#FF8B7B"/>
<path d="M119.4 86.2667L122.802 83.6272L123.528 88.846C123.528 88.846 120.474 91.0526 118.368 88.9963L119.4 86.2667Z" fill="#FF8B7B"/>
<path d="M129.288 46.2599C128.646 49.5668 127.998 55.6273 130.308 57.8339C130.308 57.8339 128.982 61.1888 122.85 61.1888C117.246 61.1888 120.054 57.8339 120.054 57.8339C123.732 56.9501 123.456 52.2844 122.58 48.8633L129.288 46.2599Z" fill="#FF8B7B"/>
<path d="M128.718 50.8714L126.504 49.2601C126.384 49.6028 124.5 50.8714 124.782 51.5508C125.742 53.8296 127.53 54.6472 128.82 54.2384C128.681 53.1217 128.647 51.9945 128.718 50.8714Z" fill="#EA7063"/>
<path d="M133.386 37.5118C135.54 38.594 136.332 44.9011 133.386 46.1396C130.44 47.3782 129.312 35.4735 133.386 37.5118Z" fill="#263238"/>
<path d="M122.19 41.967C122.19 46.4523 121.926 49.0797 124.026 51.5208C127.182 55.1944 132.822 53.5169 134.178 49.1158C135.378 45.1656 135.234 38.4978 130.992 36.4235C130.057 35.963 129.02 35.7498 127.98 35.8042C126.939 35.8586 125.93 36.1788 125.048 36.7344C124.166 37.2899 123.44 38.0624 122.94 38.9783C122.44 39.8941 122.182 40.923 122.19 41.967Z" fill="#FF8B7B"/>
<path d="M119.07 36.2132C114.702 38.0951 120.81 45.5265 122.586 45.4724C126.462 45.3401 122.844 43.8971 124.65 40.8007C125.147 39.8828 125.329 38.8262 125.166 37.7945C126.888 37.578 131.724 37.9268 133.566 38.7264C136.026 39.7846 139.218 35.7202 135.918 31.8602C136.092 34.8664 133.854 32.0406 130.878 31.3191C127.986 30.6871 124.969 30.9773 122.25 32.1488C120.33 32.8943 118.608 34.4756 119.07 36.2132Z" fill="#263238"/>
<path d="M120.102 36.676C119.598 36.2144 118.932 35.9723 118.25 36.0027C117.569 36.0331 116.927 36.3337 116.466 36.8383L116.358 36.9646C117.33 36.5257 118.842 36.5557 120.102 36.676Z" fill="#263238"/>
<path d="M120.3 37.596C120.271 37.2587 120.176 36.9303 120.021 36.6298C119.865 36.3293 119.652 36.0625 119.393 35.8446C119.135 35.6268 118.836 35.4623 118.514 35.3604C118.192 35.2586 117.852 35.2214 117.516 35.2511H117.348C118.38 35.5938 119.472 36.64 120.3 37.596Z" fill="#263238"/>
<path d="M119.85 46.7589C120.385 47.7519 121.291 48.4915 122.37 48.8152C123.798 49.23 124.53 47.9494 124.17 46.5845C123.828 45.3821 122.664 43.6625 121.218 43.8429C120.969 43.8761 120.729 43.9584 120.511 44.0851C120.294 44.2117 120.103 44.3802 119.951 44.5808C119.799 44.7814 119.688 45.0101 119.624 45.2539C119.561 45.4977 119.546 45.7517 119.58 46.0013C119.615 46.2704 119.707 46.5288 119.85 46.7589Z" fill="#FF8B7B"/>
<path d="M128.868 43.6685C128.868 44.0293 129.018 44.3419 129.252 44.354C129.486 44.366 129.702 44.0894 129.726 43.7226C129.75 43.3559 129.576 43.0553 129.342 43.0372C129.108 43.0192 128.892 43.2897 128.868 43.6685Z" fill="#263238"/>
<path d="M132.972 43.9391C132.972 44.3059 133.116 44.6125 133.356 44.6305C133.596 44.6486 133.806 44.366 133.83 44.0293C133.854 43.6926 133.68 43.3559 133.446 43.3439C133.212 43.3318 132.996 43.5784 132.972 43.9391Z" fill="#263238"/>
<path d="M131.652 44.0352C132.013 45.1763 132.527 46.2625 133.182 47.2639C132.918 47.4354 132.62 47.5455 132.308 47.5861C131.997 47.6267 131.68 47.5967 131.382 47.4984L131.652 44.0352Z" fill="#FF5652"/>
<path d="M130.302 48.4063C130.316 48.4071 130.331 48.4051 130.344 48.4004C130.357 48.3957 130.37 48.3884 130.38 48.3789C130.391 48.3694 130.4 48.358 130.406 48.3451C130.412 48.3323 130.415 48.3183 130.416 48.3041C130.416 48.2764 130.406 48.2498 130.387 48.2296C130.368 48.2095 130.342 48.1974 130.314 48.1959C129.862 48.1757 129.42 48.0486 129.026 47.825C128.632 47.6014 128.296 47.2876 128.046 46.9092C128.034 46.8829 128.012 46.8624 127.985 46.8523C127.958 46.8421 127.928 46.8432 127.902 46.8551C127.876 46.8671 127.855 46.889 127.845 46.9161C127.835 46.9431 127.836 46.9731 127.848 46.9994C128.115 47.4137 128.477 47.7578 128.904 48.0026C129.331 48.2474 129.811 48.3859 130.302 48.4063Z" fill="#263238"/>
<path d="M127.722 42.2615C127.755 42.2615 127.787 42.2545 127.817 42.241C127.847 42.2276 127.874 42.2079 127.896 42.1834C128.067 41.9791 128.284 41.8181 128.529 41.7136C128.774 41.6092 129.04 41.5641 129.306 41.5821C129.36 41.5848 129.413 41.5671 129.454 41.5327C129.496 41.4983 129.523 41.4496 129.531 41.3961C129.538 41.3427 129.525 41.2883 129.495 41.2437C129.465 41.1992 129.419 41.1676 129.366 41.1552C129.026 41.129 128.685 41.1853 128.372 41.3192C128.059 41.4532 127.782 41.661 127.566 41.9248C127.528 41.9642 127.506 42.0171 127.506 42.0722C127.506 42.1272 127.528 42.1801 127.566 42.2195C127.612 42.2511 127.667 42.266 127.722 42.2615Z" fill="#263238"/>
<path d="M134.91 42.6102H135C135.026 42.5981 135.049 42.5809 135.067 42.5596C135.086 42.5383 135.101 42.5134 135.11 42.4865C135.119 42.4595 135.122 42.431 135.12 42.4027C135.117 42.3743 135.109 42.3468 135.096 42.3216C134.955 42.0136 134.742 41.7438 134.476 41.5346C134.21 41.3255 133.898 41.183 133.566 41.1191C133.536 41.112 133.506 41.1112 133.476 41.1168C133.446 41.1224 133.418 41.1342 133.393 41.1515C133.368 41.1688 133.347 41.1912 133.331 41.2172C133.315 41.2432 133.305 41.2722 133.301 41.3024C133.297 41.3326 133.3 41.3632 133.309 41.3923C133.318 41.4214 133.332 41.4484 133.352 41.4714C133.372 41.4943 133.397 41.5129 133.424 41.5257C133.452 41.5386 133.482 41.5455 133.512 41.546C133.774 41.6007 134.02 41.7169 134.228 41.8852C134.437 42.0535 134.603 42.269 134.712 42.514C134.732 42.5473 134.762 42.5741 134.797 42.5912C134.832 42.6082 134.871 42.6148 134.91 42.6102Z" fill="#263238"/>
<path d="M148.938 202.121C148.948 202.119 148.957 202.116 148.965 202.111C148.973 202.106 148.98 202.099 148.986 202.091C148.991 202.083 148.995 202.075 148.998 202.065C149 202.056 149 202.046 148.998 202.036C148.932 201.616 138.966 162.438 137.388 149.836C135.672 136.158 135.138 103.426 135.102 103.12C135.102 103.11 135.1 103.1 135.096 103.091C135.092 103.082 135.086 103.074 135.079 103.068C135.071 103.062 135.063 103.057 135.053 103.055C135.044 103.052 135.034 103.052 135.024 103.053C135.014 103.053 135.005 103.055 134.996 103.059C134.987 103.063 134.979 103.069 134.973 103.077C134.966 103.084 134.962 103.093 134.959 103.103C134.957 103.112 134.956 103.122 134.958 103.132C134.994 103.438 135.558 136.2 137.238 149.848C138.816 162.475 148.782 201.634 148.854 202.055C148.857 202.074 148.867 202.092 148.883 202.104C148.899 202.117 148.918 202.122 148.938 202.121Z" fill="#37474F"/>
<path opacity="0.5" d="M148.95 202.127C148.97 202.122 148.987 202.111 148.998 202.094C149.01 202.077 149.014 202.056 149.01 202.036C148.944 201.622 138.978 162.444 137.4 149.842C135.684 136.164 135.15 103.426 135.114 103.126C135.111 103.105 135.101 103.087 135.086 103.074C135.07 103.06 135.051 103.053 135.03 103.053C135.02 103.055 135.01 103.058 135.001 103.064C134.992 103.069 134.984 103.076 134.978 103.085C134.972 103.093 134.968 103.103 134.965 103.113C134.963 103.123 134.962 103.133 134.964 103.144C135 103.444 135.534 136.182 137.244 149.86C138.822 162.487 148.788 201.646 148.86 202.067C148.861 202.076 148.864 202.085 148.868 202.093C148.872 202.101 148.878 202.108 148.886 202.114C148.893 202.12 148.902 202.124 148.911 202.126C148.92 202.128 148.929 202.128 148.938 202.127H148.95Z" fill="white"/>
</svg>
