<svg width="434" height="329" viewBox="0 0 434 329" fill="none" xmlns="http://www.w3.org/2000/svg">
<mask id="mask0_49_957" style="mask-type:alpha" maskUnits="userSpaceOnUse" x="58" y="44" width="303" height="182">
<path d="M70.499 145.391C53.6772 109.926 50.1878 67.9622 85.4894 49.1349C115.696 33.0099 142.517 63.8205 170.284 71.0176C227.902 85.9417 343.355 11.5422 359.066 105.988C381.972 243.73 129.054 268.88 70.499 145.391Z" fill="#37474F"/>
</mask>
<g mask="url(#mask0_49_957)">
<path d="M70.499 145.391C53.6772 109.926 50.1878 67.9622 85.4894 49.1349C115.696 33.0099 142.517 63.8205 170.284 71.0176C227.902 85.9417 343.355 11.5422 359.066 105.988C381.972 243.73 129.054 268.88 70.499 145.391Z" fill="#A1CDF1"/>
<path d="M192.204 -9.17233C233.735 -6.04031 274.045 13.2269 272.298 56.8198C270.816 94.129 228.169 102.98 206.639 125.43C161.975 172.021 168.006 321.49 73.0546 285.576C-65.422 233.19 47.6039 -20.0968 192.204 -9.17233Z" fill="#F0A6CA"/>
</g>
<path d="M217 329C309.948 329 385.297 324.524 385.297 319.003C385.297 313.483 309.948 309.007 217 309.007C124.053 309.007 48.7036 313.483 48.7036 319.003C48.7036 324.524 124.053 329 217 329Z" fill="#F5F5F5"/>
<path d="M137.665 104.203C137.517 106.72 137.231 109.034 136.91 111.427C136.589 113.82 136.146 116.16 135.651 118.492C134.685 123.27 133.284 127.947 131.467 132.462L130.721 134.158L130.53 134.581L130.434 134.793C130.434 134.864 130.382 134.917 130.313 135.067C130.047 135.604 129.718 136.105 129.332 136.559C128.418 137.628 127.147 138.313 125.765 138.485C124.735 138.599 123.693 138.487 122.709 138.158C121.329 137.681 120.027 136.996 118.847 136.127C117.824 135.381 116.844 134.576 115.913 133.716C112.45 130.428 109.337 126.779 106.625 122.828L109.507 120.346C111.113 121.883 112.797 123.437 114.472 124.921C116.147 126.404 117.875 127.817 119.602 129.08C120.439 129.693 121.308 130.259 122.206 130.775C122.918 131.21 123.686 131.54 124.489 131.756C124.758 131.809 124.931 131.756 124.81 131.756C124.571 131.78 124.348 131.886 124.176 132.056C124.115 132.109 124.107 132.118 124.115 132.056L124.376 131.358L124.94 129.839C126.358 125.649 127.466 121.357 128.256 116.999C128.69 114.809 128.994 112.584 129.323 110.359C129.653 108.133 129.879 105.855 130.07 103.744L137.665 104.203Z" fill="#EEC1BB"/>
<path d="M132.483 94.9842C129.41 95.7789 127.275 108.628 127.275 108.628L135.729 114.483C135.729 114.483 143.828 101.554 141.484 98.0838C139.14 94.6133 136.953 93.8273 132.483 94.9842Z" fill="#37474F"/>
<path opacity="0.3" d="M132.483 94.9842C129.41 95.7789 127.275 108.628 127.275 108.628L135.729 114.483C135.729 114.483 143.828 101.554 141.484 98.0838C139.14 94.6133 136.953 93.8273 132.483 94.9842Z" fill="black"/>
<path d="M132.752 97.8542L130.4 110.809L135.148 114.085L132.752 97.8542Z" fill="#37474F"/>
<path opacity="0.5" d="M132.752 97.8542L130.4 110.809L135.148 114.085L132.752 97.8542Z" fill="black"/>
<path d="M109.594 119.843L105.566 113.379L103.292 120.726C103.292 120.726 106.59 124.258 109.576 123.375L109.594 119.843Z" fill="#EEC1BB"/>
<path d="M99.6724 111.242L98.084 117.494L103.283 120.726L105.566 113.379L99.6724 111.242Z" fill="#EEC1BB"/>
<path d="M149.088 311.268H141.64L141.137 293.721H148.584L149.088 311.268Z" fill="#EEC1BB"/>
<path d="M214.795 276.077L209.119 280.978L196.133 269.18L201.81 264.279L214.795 276.077Z" fill="#EEC1BB"/>
<path d="M207.565 280.396L213.068 273.984C213.16 273.871 213.29 273.797 213.433 273.776C213.575 273.754 213.721 273.788 213.841 273.87L219.457 277.57C219.59 277.668 219.702 277.792 219.785 277.936C219.868 278.08 219.921 278.24 219.941 278.406C219.961 278.572 219.946 278.741 219.899 278.901C219.851 279.06 219.772 279.209 219.665 279.336C217.712 281.535 216.662 282.497 214.24 285.314C212.747 287.08 210.768 289.73 208.693 292.132C206.619 294.534 204.197 292.591 204.848 291.408C207.739 286.109 207.044 284.228 207.088 281.614C207.107 281.165 207.275 280.735 207.565 280.396Z" fill="#263238"/>
<path d="M141.38 310.385H149.747C149.892 310.383 150.033 310.435 150.143 310.531C150.253 310.627 150.325 310.76 150.346 310.906L151.292 317.644C151.312 317.814 151.296 317.986 151.245 318.149C151.194 318.312 151.11 318.462 150.997 318.589C150.884 318.716 150.746 318.818 150.592 318.886C150.438 318.954 150.271 318.989 150.103 318.986C147.187 318.933 145.763 318.765 142.1 318.765C139.835 318.765 135.156 319.004 132.031 319.004C128.907 319.004 128.733 315.86 130.035 315.569C135.877 314.297 138.168 312.531 140.138 310.853C140.486 310.555 140.925 310.39 141.38 310.385Z" fill="#263238"/>
<path d="M141.137 293.73L141.397 302.773H148.845L148.593 293.73H141.137Z" fill="#DB9792"/>
<path d="M201.81 264.279L196.133 269.189L202.834 275.265L208.511 270.355L201.81 264.279Z" fill="#DB9792"/>
<path d="M137.821 60.7825C142.847 53.1792 154.895 50.6536 162.394 57.471C171.942 66.1516 166.153 83.1686 180.83 78.6649C195.508 74.1612 209.257 75.2385 209.336 82.9655C209.414 90.6924 218.38 80.8814 228.935 88.8115C250.305 104.857 233.961 146.123 215.168 130.36C202.843 120.028 198.529 115.595 192.383 123.472C186.238 131.349 164.356 127.632 162.394 117.697C160.432 107.762 146.475 112.593 138.88 103.912C131.285 95.2314 127.101 76.987 137.821 60.7825Z" fill="#263238"/>
<path d="M132.483 94.9842C132.483 94.9842 128.933 96.2558 136.041 140.71H166.283C165.77 128.188 165.762 120.47 171.647 94.7899C167.411 93.9054 163.117 93.3329 158.8 93.0767C154.229 92.7408 149.64 92.7408 145.069 93.0767C139.166 93.6066 132.483 94.9842 132.483 94.9842Z" fill="#37474F"/>
<path opacity="0.3" d="M132.483 94.9842C132.483 94.9842 128.933 96.2558 136.041 140.71H166.283C165.77 128.188 165.762 120.47 171.647 94.7899C167.411 93.9054 163.117 93.3329 158.8 93.0767C154.229 92.7408 149.64 92.7408 145.069 93.0767C139.166 93.6066 132.483 94.9842 132.483 94.9842Z" fill="black"/>
<path d="M157.438 77.3138C156.57 81.8087 155.702 90.0478 158.801 93.0502C158.801 93.0502 157.594 97.6069 149.383 97.6069C140.356 97.6069 145.043 93.0502 145.043 93.0502C149.964 91.8493 149.843 88.1315 148.984 84.6345L157.438 77.3138Z" fill="#EEC1BB"/>
<path d="M154.001 80.2985L149.01 84.6344C149.227 85.4464 149.369 86.2771 149.435 87.1159C151.318 86.8333 153.905 84.7316 154.105 82.7005C154.212 81.9 154.177 81.0863 154.001 80.2985Z" fill="#DB9792"/>
<path d="M162.099 69.0658C160.363 76.3777 159.79 79.5126 155.459 82.6387C148.949 87.3543 140.503 83.5836 140.052 75.9008C139.644 68.9774 142.552 58.1862 150.173 56.526C151.851 56.1513 153.597 56.2197 155.242 56.7247C156.888 57.2297 158.379 58.1545 159.574 59.4111C160.769 60.6678 161.629 62.2146 162.071 63.9044C162.513 65.5942 162.522 67.371 162.099 69.0658Z" fill="#EEC1BB"/>
<path d="M136.042 140.71C136.042 140.71 130.165 199.073 130.651 222.174C131.163 246.212 139.817 301.015 139.817 301.015H149.886C149.886 301.015 148.289 247.616 149.183 224.011C150.155 198.287 158.184 140.71 158.184 140.71H136.042Z" fill="#37474F"/>
<path opacity="0.5" d="M136.042 140.71C136.042 140.71 130.165 199.073 130.651 222.174C131.163 246.212 139.817 301.015 139.817 301.015H149.886C149.886 301.015 148.289 247.616 149.183 224.011C150.155 198.287 158.184 140.71 158.184 140.71H136.042Z" fill="black"/>
<path d="M150.754 301.386H138.941L138.073 297.554L151.31 297.086L150.754 301.386Z" fill="#37474F"/>
<path opacity="0.3" d="M150.754 301.386H138.941L138.073 297.554L151.31 297.086L150.754 301.386Z" fill="white"/>
<path d="M149.079 155.237C141.657 170.434 147.595 198.172 150.216 208.486C151.57 192.997 153.836 174.046 155.606 160.138C154.504 152.269 152.507 148.225 149.079 155.237Z" fill="#37474F"/>
<path opacity="0.6" d="M149.079 155.237C141.657 170.434 147.595 198.172 150.216 208.486C151.57 192.997 153.836 174.046 155.606 160.138C154.504 152.269 152.507 148.225 149.079 155.237Z" fill="black"/>
<path d="M144.027 140.71C144.027 140.71 150.876 201.386 156.049 220.867C162.195 243.995 200.317 275.115 200.317 275.115L208.051 268.43C208.051 268.43 180.397 234.617 175.701 222.439C165.675 196.432 174.26 157.683 166.248 140.71H144.027Z" fill="#37474F"/>
<path opacity="0.5" d="M144.027 140.71C144.027 140.71 150.876 201.386 156.049 220.867C162.195 243.995 200.317 275.115 200.317 275.115L208.051 268.43C208.051 268.43 180.397 234.617 175.701 222.439C165.675 196.432 174.26 157.683 166.248 140.71H144.027Z" fill="black"/>
<path d="M209.327 268.068L199.718 276.369L196.133 274.179L206.992 263.9L209.327 268.068Z" fill="#37474F"/>
<path opacity="0.3" d="M209.327 268.068L199.718 276.369L196.133 274.179L206.992 263.9L209.327 268.068Z" fill="white"/>
<path d="M150.711 69.1315C150.816 68.5312 150.587 67.988 150.2 67.9183C149.812 67.8486 149.414 68.2787 149.31 68.879C149.205 69.4793 149.434 70.0225 149.821 70.0922C150.208 70.1619 150.607 69.7318 150.711 69.1315Z" fill="#263238"/>
<path d="M144.036 67.9443C143.932 68.5448 143.532 68.9775 143.168 68.9068C142.803 68.8362 142.552 68.2887 142.656 67.6882C142.76 67.0877 143.159 66.655 143.524 66.7256C143.888 66.7963 144.14 67.3438 144.036 67.9443Z" fill="#263238"/>
<path d="M143.689 66.7874L142.344 66.1163C142.344 66.1163 142.873 67.3791 143.689 66.7874Z" fill="#263238"/>
<path d="M145.625 69.2954C144.858 70.5726 143.923 71.7372 142.847 72.7571C143.112 73.0288 143.431 73.2389 143.783 73.373C144.135 73.5072 144.512 73.5622 144.887 73.5342L145.625 69.2954Z" fill="#D4827D"/>
<path d="M147.56 76.3777C147.222 76.3786 146.885 76.3461 146.553 76.2805C146.509 76.2719 146.469 76.2458 146.443 76.2079C146.417 76.1699 146.407 76.123 146.414 76.0774C146.423 76.0314 146.448 75.9903 146.485 75.9624C146.522 75.9346 146.568 75.922 146.614 75.9273C147.348 76.0752 148.105 76.046 148.826 75.8421C149.546 75.6381 150.21 75.265 150.763 74.7528C150.795 74.7204 150.839 74.7023 150.885 74.7023C150.93 74.7023 150.974 74.7204 151.006 74.7528C151.023 74.7693 151.037 74.7892 151.046 74.8112C151.055 74.8332 151.06 74.8569 151.06 74.8809C151.06 74.9048 151.055 74.9285 151.046 74.9505C151.037 74.9725 151.023 74.9924 151.006 75.0089C150.077 75.9053 148.84 76.3966 147.56 76.3777Z" fill="#263238"/>
<path d="M150.468 55.9079C147.143 57.8507 155.346 76.2187 161.344 73.6401C167.342 71.0616 165.397 60.809 162.429 58.2304C159.46 55.6518 155.077 53.2233 150.468 55.9079Z" fill="#263238"/>
<path d="M148.602 55.0425C148.602 55.0425 144.6 55.6341 141.927 60.7119C139.253 65.7896 154.617 55.7489 152.447 55.0425C151.199 54.619 149.85 54.619 148.602 55.0425Z" fill="#263238"/>
<path d="M162.403 74.5762C162.132 75.2415 161.733 75.8456 161.231 76.3534C160.729 76.8611 160.133 77.2626 159.478 77.5345C157.742 78.2587 156.639 76.7133 156.952 74.8853C157.238 73.2693 158.488 70.9468 160.337 70.9909C160.744 71.0062 161.14 71.1257 161.49 71.3383C161.839 71.5508 162.131 71.8496 162.337 72.207C162.543 72.5644 162.657 72.9689 162.668 73.383C162.68 73.7971 162.588 74.2075 162.403 74.5762Z" fill="#EEC1BB"/>
<path d="M152.551 65.1891C152.457 65.1882 152.367 65.1502 152.299 65.0831C152.005 64.7452 151.636 64.4838 151.222 64.321C150.808 64.1581 150.362 64.0985 149.921 64.147C149.829 64.1625 149.735 64.1406 149.658 64.0861C149.582 64.0316 149.53 63.9489 149.513 63.8556C149.504 63.8098 149.504 63.7627 149.514 63.7169C149.523 63.6712 149.541 63.6277 149.567 63.5892C149.593 63.5506 149.626 63.5176 149.664 63.4921C149.703 63.4666 149.746 63.4491 149.791 63.4406C150.348 63.3691 150.914 63.4362 151.44 63.6362C151.966 63.8361 152.437 64.163 152.811 64.5886C152.876 64.6561 152.911 64.7463 152.911 64.8403C152.911 64.9342 152.876 65.0244 152.811 65.0919C152.778 65.1264 152.737 65.1529 152.692 65.1697C152.647 65.1865 152.599 65.1931 152.551 65.1891Z" fill="#263238"/>
<path d="M141.606 64.2707C141.56 64.2705 141.515 64.261 141.473 64.2428C141.432 64.2246 141.394 64.1981 141.362 64.1647C141.298 64.0972 141.262 64.0069 141.262 63.913C141.262 63.8191 141.298 63.7289 141.362 63.6613C141.738 63.2373 142.209 62.9122 142.735 62.7138C143.261 62.5154 143.827 62.4496 144.383 62.5222C144.466 62.5489 144.536 62.6055 144.581 62.6814C144.626 62.7573 144.641 62.8471 144.625 62.934C144.609 63.0209 144.563 63.0989 144.494 63.1531C144.425 63.2074 144.34 63.2343 144.253 63.2286C143.813 63.1812 143.368 63.2405 142.954 63.4016C142.541 63.5628 142.171 63.8213 141.875 64.1559C141.84 64.1924 141.798 64.2214 141.752 64.2411C141.705 64.2609 141.656 64.2709 141.606 64.2707Z" fill="#263238"/>
<path d="M174.911 102.861C176.54 106.901 177.952 111.028 179.138 115.224C180.386 119.475 181.306 123.818 181.89 128.214C182.002 129.354 182.133 130.475 182.167 131.658V132.542C182.207 133.134 182.164 133.728 182.037 134.308C181.919 134.793 181.728 135.258 181.473 135.685C181.176 136.173 180.79 136.599 180.336 136.939C179.644 137.444 178.832 137.75 177.984 137.822C177.469 137.873 176.95 137.858 176.438 137.778C176.052 137.725 175.669 137.645 175.293 137.54C174.661 137.361 174.041 137.143 173.435 136.886C172.372 136.426 171.337 135.901 170.336 135.314C166.611 133.086 163.093 130.518 159.825 127.64L161.96 124.47C165.615 126.351 169.33 128.312 172.966 129.822C173.834 130.201 174.781 130.528 175.614 130.784C175.987 130.899 176.367 130.99 176.751 131.058C176.884 131.069 177.017 131.069 177.15 131.058C177.237 131.058 177.28 131.058 177.15 131.058C176.833 131.092 176.532 131.217 176.282 131.42C175.858 131.749 175.553 132.212 175.414 132.736C175.327 133.027 175.362 133.275 175.327 132.886L175.249 132.171C175.171 131.226 174.998 130.254 174.841 129.283C174.494 127.323 174.078 125.353 173.548 123.384C173.019 121.415 172.489 119.437 171.89 117.467C170.649 113.555 169.286 109.564 167.863 105.784L174.911 102.861Z" fill="#EEC1BB"/>
<path d="M171.647 94.7634C174.676 95.7083 178.313 106.323 178.313 106.323L166.561 114.871C166.561 114.871 162.273 106.04 163.54 102.022C164.868 97.8719 168.184 93.6949 171.647 94.7634Z" fill="#37474F"/>
<path opacity="0.3" d="M171.647 94.7634C174.676 95.7083 178.313 106.323 178.313 106.323L166.561 114.871C166.561 114.871 162.273 106.04 163.54 102.022C164.868 97.8719 168.184 93.6949 171.647 94.7634Z" fill="black"/>
<path d="M205.534 284.051C205.38 284.047 205.229 284.007 205.093 283.935C204.956 283.863 204.837 283.761 204.744 283.636C204.669 283.558 204.617 283.461 204.593 283.356C204.568 283.25 204.573 283.139 204.605 283.036C204.874 282.109 207.461 281.358 207.756 281.27C207.789 281.262 207.823 281.263 207.856 281.274C207.888 281.285 207.916 281.305 207.938 281.332C207.957 281.36 207.967 281.394 207.967 281.429C207.967 281.463 207.957 281.497 207.938 281.526C207.469 282.409 206.558 283.937 205.612 284.043L205.534 284.051ZM207.443 281.747C206.419 282.073 205.082 282.63 204.943 283.142C204.925 283.188 204.923 283.238 204.935 283.286C204.948 283.334 204.975 283.376 205.013 283.407C205.079 283.501 205.169 283.577 205.272 283.626C205.375 283.676 205.489 283.698 205.603 283.689C206.107 283.628 206.784 282.912 207.452 281.747H207.443Z" fill="#37474F"/>
<path d="M206.627 281.773C205.858 281.851 205.087 281.634 204.466 281.164C204.38 281.052 204.332 280.913 204.332 280.771C204.332 280.628 204.38 280.49 204.466 280.378C204.538 280.26 204.636 280.161 204.752 280.089C204.868 280.017 204.999 279.974 205.135 279.963C206.202 279.813 207.825 281.252 207.895 281.314C207.917 281.335 207.935 281.361 207.945 281.39C207.956 281.42 207.959 281.451 207.956 281.482C207.948 281.513 207.933 281.541 207.912 281.564C207.89 281.587 207.864 281.605 207.834 281.614C207.442 281.727 207.035 281.78 206.627 281.773ZM205.317 280.307H205.204C205.119 280.318 205.036 280.347 204.963 280.393C204.889 280.438 204.827 280.5 204.779 280.572C204.657 280.758 204.701 280.864 204.779 280.934C205.091 281.358 206.558 281.517 207.452 281.349C206.846 280.812 206.108 280.452 205.317 280.307Z" fill="#37474F"/>
<path d="M138.585 311.727C137.949 311.786 137.313 311.624 136.779 311.268C136.66 311.158 136.569 311.02 136.513 310.866C136.457 310.712 136.439 310.547 136.458 310.385C136.464 310.285 136.495 310.189 136.548 310.105C136.601 310.022 136.675 309.954 136.762 309.908C137.674 309.396 140.642 310.941 140.981 311.118C141.013 311.135 141.039 311.162 141.055 311.195C141.071 311.229 141.075 311.267 141.067 311.303C141.063 311.34 141.047 311.374 141.022 311.401C140.997 311.428 140.964 311.446 140.929 311.453C140.157 311.617 139.373 311.708 138.585 311.727ZM137.257 310.164C137.144 310.159 137.031 310.18 136.927 310.226C136.894 310.246 136.866 310.275 136.847 310.309C136.827 310.342 136.816 310.381 136.814 310.42C136.797 310.525 136.806 310.633 136.841 310.733C136.876 310.834 136.935 310.924 137.014 310.994C137.465 311.409 138.689 311.48 140.347 311.206C139.384 310.675 138.339 310.317 137.257 310.146V310.164Z" fill="#37474F"/>
<path d="M140.894 311.445C140.871 311.453 140.847 311.453 140.824 311.445C139.956 311.038 138.177 309.405 138.316 308.548C138.316 308.345 138.489 308.089 138.975 308.045C139.151 308.022 139.33 308.038 139.499 308.091C139.668 308.145 139.824 308.234 139.956 308.354C140.894 309.14 141.067 311.18 141.067 311.268C141.072 311.298 141.068 311.33 141.056 311.358C141.044 311.386 141.023 311.41 140.998 311.427C140.966 311.444 140.929 311.45 140.894 311.445ZM139.158 308.371H139.054C138.724 308.371 138.706 308.539 138.698 308.575C138.62 309.096 139.809 310.341 140.711 310.941C140.644 310.08 140.313 309.261 139.765 308.601C139.679 308.521 139.578 308.459 139.467 308.42C139.357 308.38 139.24 308.364 139.123 308.371H139.158Z" fill="#37474F"/>
<path d="M166.734 138.909L167.507 141.664C167.611 141.876 167.368 142.096 167.012 142.096H135.885C135.616 142.096 135.391 141.955 135.373 141.787L135.095 139.032C135.095 138.838 135.312 138.679 135.616 138.679H166.239C166.334 138.67 166.43 138.686 166.517 138.727C166.604 138.767 166.678 138.83 166.734 138.909Z" fill="#37474F"/>
<path opacity="0.6" d="M166.734 138.909L167.507 141.664C167.611 141.876 167.368 142.096 167.012 142.096H135.885C135.616 142.096 135.391 141.955 135.373 141.787L135.095 139.032C135.095 138.838 135.312 138.679 135.616 138.679H166.239C166.334 138.67 166.43 138.686 166.517 138.727C166.604 138.767 166.678 138.83 166.734 138.909Z" fill="white"/>
<path d="M162.62 142.388H163.488C163.644 142.388 163.774 142.308 163.766 142.202L163.375 138.626C163.375 138.52 163.219 138.432 163.062 138.432H162.238C162.073 138.432 161.951 138.52 161.96 138.626L162.316 142.176C162.316 142.308 162.455 142.388 162.62 142.388Z" fill="#37474F"/>
<path opacity="0.5" d="M162.62 142.388H163.488C163.644 142.388 163.774 142.308 163.766 142.202L163.375 138.626C163.375 138.52 163.219 138.432 163.062 138.432H162.238C162.073 138.432 161.951 138.52 161.96 138.626L162.316 142.176C162.316 142.308 162.455 142.388 162.62 142.388Z" fill="black"/>
<path d="M138.194 142.388H139.01C139.175 142.388 139.305 142.308 139.288 142.202L138.88 138.644C138.88 138.538 138.724 138.449 138.559 138.449H137.743C137.578 138.449 137.457 138.538 137.465 138.644L137.847 142.22C137.891 142.308 138.012 142.388 138.194 142.388Z" fill="#37474F"/>
<path opacity="0.5" d="M138.194 142.388H139.01C139.175 142.388 139.305 142.308 139.288 142.202L138.88 138.644C138.88 138.538 138.724 138.449 138.559 138.449H137.743C137.578 138.449 137.457 138.538 137.465 138.644L137.847 142.22C137.891 142.308 138.012 142.388 138.194 142.388Z" fill="black"/>
<path d="M150.407 142.388H151.232C151.388 142.388 151.518 142.308 151.501 142.202L151.119 138.644C151.119 138.538 150.963 138.449 150.798 138.449H149.982C149.817 138.449 149.695 138.538 149.704 138.644L150.086 142.22C150.103 142.308 150.242 142.388 150.407 142.388Z" fill="#37474F"/>
<path opacity="0.5" d="M150.407 142.388H151.232C151.388 142.388 151.518 142.308 151.501 142.202L151.119 138.644C151.119 138.538 150.963 138.449 150.798 138.449H149.982C149.817 138.449 149.695 138.538 149.704 138.644L150.086 142.22C150.103 142.308 150.242 142.388 150.407 142.388Z" fill="black"/>
<path d="M162.984 125.283L160.485 117.503L156.492 124.055C156.492 124.055 158.844 128.294 161.934 128.232L162.984 125.283Z" fill="#EEC1BB"/>
<path d="M157.828 108.619L155.867 134.44C155.814 135.113 155.501 135.737 154.996 136.175C154.492 136.614 153.837 136.832 153.176 136.78L104.863 132.992C104.201 132.938 103.587 132.62 103.154 132.107C102.722 131.594 102.506 130.928 102.554 130.254L104.516 104.433C104.546 104.089 104.644 103.755 104.805 103.452C104.967 103.148 105.187 102.881 105.453 102.667C105.945 102.27 106.563 102.072 107.189 102.111L155.502 105.908C156.165 105.96 156.781 106.277 157.213 106.791C157.646 107.304 157.861 107.971 157.811 108.645L157.828 108.619Z" fill="#37474F"/>
<path opacity="0.8" d="M157.828 108.619L155.867 134.44C155.814 135.113 155.501 135.737 154.996 136.175C154.492 136.614 153.837 136.832 153.176 136.78L104.863 132.992C104.201 132.938 103.587 132.62 103.154 132.107C102.722 131.594 102.506 130.928 102.554 130.254L104.516 104.433C104.546 104.089 104.644 103.755 104.805 103.452C104.967 103.148 105.187 102.881 105.453 102.667C105.945 102.27 106.563 102.072 107.189 102.111L155.502 105.908C156.165 105.96 156.781 106.277 157.213 106.791C157.646 107.304 157.861 107.971 157.811 108.645L157.828 108.619Z" fill="white"/>
<path d="M157.169 106.658L136.476 121.061C134.561 122.399 132.255 123.032 129.938 122.857C127.622 122.682 125.433 121.709 123.733 120.099L105.453 102.64C105.945 102.243 106.563 102.045 107.189 102.084L155.502 105.881C156.133 105.921 156.727 106.198 157.169 106.658Z" fill="#37474F"/>
<path opacity="0.6" d="M157.169 106.658L136.476 121.061C134.561 122.399 132.255 123.032 129.938 122.857C127.622 122.682 125.433 121.709 123.733 120.099L105.453 102.64C105.945 102.243 106.563 102.045 107.189 102.084L155.502 105.881C156.133 105.921 156.727 106.198 157.169 106.658Z" fill="white"/>
<path d="M155.285 113.962L152.239 119.622L157.169 125.088L160.485 117.503L155.285 113.962Z" fill="#EEC1BB"/>
<path d="M150.381 67.9972L149.027 67.3261C149.027 67.3261 149.565 68.5801 150.381 67.9972Z" fill="#263238"/>
<path d="M289.296 172.201H278.654V319.004H289.296V172.201Z" fill="#37474F"/>
<path opacity="0.6" d="M289.296 172.201H278.654V319.004H289.296V172.201Z" fill="white"/>
<path d="M278.654 172.201H289.296V183.027L278.654 179.045V172.201Z" fill="#37474F"/>
<path opacity="0.4" d="M278.654 172.201H289.296V183.027L278.654 179.045V172.201Z" fill="white"/>
<path d="M267.17 136.983C267.233 133.541 266.62 130.121 265.369 126.922C264.117 123.724 262.252 120.811 259.881 118.354C257.51 115.897 254.682 113.946 251.562 112.614C248.442 111.282 245.092 110.596 241.708 110.596C238.324 110.596 234.974 111.282 231.853 112.614C228.733 113.946 225.905 115.897 223.534 118.354C221.163 120.811 219.298 123.724 218.046 126.922C216.795 130.121 216.182 133.541 216.245 136.983V172.201H267.17V136.983Z" fill="#37474F"/>
<path opacity="0.3" d="M267.17 136.983C267.233 133.541 266.62 130.121 265.369 126.922C264.117 123.724 262.252 120.811 259.881 118.354C257.51 115.897 254.682 113.946 251.562 112.614C248.442 111.282 245.092 110.596 241.708 110.596C238.324 110.596 234.974 111.282 231.853 112.614C228.733 113.946 225.905 115.897 223.534 118.354C221.163 120.811 219.298 123.724 218.046 126.922C216.795 130.121 216.182 133.541 216.245 136.983V172.201H267.17V136.983Z" fill="black"/>
<path d="M211.419 187.31C208.016 201.616 216.627 213.211 230.723 213.211C244.819 213.211 258.942 201.616 262.344 187.31L265.886 172.413C265.935 172.212 265.938 172.003 265.895 171.8C265.852 171.598 265.765 171.409 265.639 171.246C265.514 171.083 265.354 170.952 265.171 170.862C264.988 170.772 264.787 170.725 264.584 170.726H216.418C216.117 170.727 215.825 170.832 215.589 171.022C215.353 171.213 215.186 171.479 215.116 171.777L211.419 187.31Z" fill="#37474F"/>
<path opacity="0.4" d="M211.419 187.31C208.016 201.616 216.627 213.211 230.723 213.211C244.819 213.211 258.942 201.616 262.344 187.31L265.886 172.413C265.935 172.212 265.938 172.003 265.895 171.8C265.852 171.598 265.765 171.409 265.639 171.246C265.514 171.083 265.354 170.952 265.171 170.862C264.988 170.772 264.787 170.725 264.584 170.726H216.418C216.117 170.727 215.825 170.832 215.589 171.022C215.353 171.213 215.186 171.479 215.116 171.777L211.419 187.31Z" fill="white"/>
<path d="M209.37 187.31C205.968 201.616 214.578 213.211 228.674 213.211C242.771 213.211 256.893 201.616 260.296 187.31L263.872 172.413C263.921 172.212 263.924 172.003 263.881 171.8C263.839 171.598 263.751 171.409 263.626 171.246C263.5 171.083 263.34 170.952 263.157 170.862C262.974 170.772 262.773 170.725 262.57 170.726H214.396C214.095 170.727 213.802 170.832 213.566 171.022C213.33 171.213 213.164 171.479 213.094 171.777L209.37 187.31Z" fill="#37474F"/>
<path opacity="0.5" d="M209.37 187.31C205.968 201.616 214.578 213.211 228.674 213.211C242.771 213.211 256.893 201.616 260.296 187.31L263.872 172.413C263.921 172.212 263.924 172.003 263.881 171.8C263.839 171.598 263.751 171.409 263.626 171.246C263.5 171.083 263.34 170.952 263.157 170.862C262.974 170.772 262.773 170.725 262.57 170.726H214.396C214.095 170.727 213.802 170.832 213.566 171.022C213.33 171.213 213.164 171.479 213.094 171.777L209.37 187.31Z" fill="white"/>
<path d="M327.097 136.975V172.201H267.205V136.975C267.203 130.106 264.52 123.519 259.746 118.663C254.972 113.806 248.498 111.076 241.747 111.074H301.682C308.433 111.076 314.907 113.806 319.681 118.663C324.455 123.519 327.138 130.106 327.14 136.975H327.097Z" fill="#37474F"/>
<path opacity="0.5" d="M327.097 136.975V172.201H267.205V136.975C267.203 130.106 264.52 123.519 259.746 118.663C254.972 113.806 248.498 111.076 241.747 111.074H301.682C308.433 111.076 314.907 113.806 319.681 118.663C324.455 123.519 327.138 130.106 327.14 136.975H327.097Z" fill="white"/>
<path d="M327.097 136.975V146.397H267.205V136.975C267.217 131.215 265.328 125.617 261.841 121.079H321.776C325.248 125.623 327.121 131.22 327.097 136.975Z" fill="#37474F"/>
<path opacity="0.7" d="M327.097 136.975V146.397H267.205V136.975C267.217 131.215 265.328 125.617 261.841 121.079H321.776C325.248 125.623 327.121 131.22 327.097 136.975Z" fill="white"/>
<path d="M275.512 150.936V98.8344C275.511 98.3699 275.609 97.9107 275.8 97.4889C275.992 97.067 276.271 96.6926 276.619 96.3917C276.966 96.0908 277.374 95.8706 277.814 95.7465C278.254 95.6224 278.716 95.5973 279.166 95.673L291.44 97.7394C291.88 97.8129 292.279 98.0435 292.567 98.3898C292.855 98.7362 293.013 99.1756 293.011 99.6292V102.861C293.011 103.369 292.812 103.857 292.459 104.216C292.106 104.576 291.627 104.778 291.127 104.778H279.418V150.918C279.418 151.445 279.212 151.951 278.846 152.323C278.48 152.696 277.983 152.905 277.465 152.905C276.95 152.905 276.456 152.698 276.09 152.33C275.724 151.961 275.516 151.46 275.512 150.936Z" fill="#37474F"/>
<path opacity="0.3" d="M275.512 150.936V98.8344C275.511 98.3699 275.609 97.9107 275.8 97.4889C275.992 97.067 276.271 96.6926 276.619 96.3917C276.966 96.0908 277.374 95.8706 277.814 95.7465C278.254 95.6224 278.716 95.5973 279.166 95.673L291.44 97.7394C291.88 97.8129 292.279 98.0435 292.567 98.3898C292.855 98.7362 293.013 99.1756 293.011 99.6292V102.861C293.011 103.369 292.812 103.857 292.459 104.216C292.106 104.576 291.627 104.778 291.127 104.778H279.418V150.918C279.418 151.445 279.212 151.951 278.846 152.323C278.48 152.696 277.983 152.905 277.465 152.905C276.95 152.905 276.456 152.698 276.09 152.33C275.724 151.961 275.516 151.46 275.512 150.936Z" fill="black"/>
<path d="M241.703 117.953V143.845C241.701 144.52 241.437 145.166 240.969 145.644C240.501 146.122 239.866 146.392 239.203 146.397H190.743C190.08 146.392 189.445 146.122 188.977 145.644C188.509 145.166 188.245 144.52 188.243 143.845V117.953C188.245 117.278 188.509 116.632 188.977 116.154C189.445 115.676 190.08 115.406 190.743 115.401H239.203C239.866 115.406 240.501 115.676 240.969 116.154C241.437 116.632 241.701 117.278 241.703 117.953Z" fill="#37474F"/>
<path opacity="0.8" d="M241.703 117.953V143.845C241.701 144.52 241.437 145.166 240.969 145.644C240.501 146.122 239.866 146.392 239.203 146.397H190.743C190.08 146.392 189.445 146.122 188.977 145.644C188.509 145.166 188.245 144.52 188.243 143.845V117.953C188.245 117.278 188.509 116.632 188.977 116.154C189.445 115.676 190.08 115.406 190.743 115.401H239.203C239.866 115.406 240.501 115.676 240.969 116.154C241.437 116.632 241.701 117.278 241.703 117.953Z" fill="white"/>
<path d="M240.905 116.09L221.34 132.065C219.526 133.543 217.271 134.349 214.947 134.349C212.623 134.349 210.368 133.543 208.554 132.065L189.016 116.09C189.486 115.642 190.107 115.395 190.752 115.401H239.212C239.841 115.407 240.445 115.652 240.905 116.09Z" fill="#37474F"/>
<path opacity="0.6" d="M240.905 116.09L221.34 132.065C219.526 133.543 217.271 134.349 214.947 134.349C212.623 134.349 210.368 133.543 208.554 132.065L189.016 116.09C189.486 115.642 190.107 115.395 190.752 115.401H239.212C239.841 115.407 240.445 115.652 240.905 116.09Z" fill="white"/>
<path d="M204.57 156.835V182.736C204.57 183.411 204.307 184.059 203.839 184.537C203.37 185.016 202.734 185.286 202.07 185.288H153.636C152.973 185.283 152.338 185.013 151.87 184.535C151.402 184.057 151.139 183.41 151.136 182.736V156.835C151.136 156.161 151.4 155.514 151.868 155.037C152.337 154.56 152.973 154.292 153.636 154.292H202.07C202.733 154.292 203.369 154.56 203.838 155.037C204.307 155.514 204.57 156.161 204.57 156.835Z" fill="#37474F"/>
<path opacity="0.8" d="M204.57 156.835V182.736C204.57 183.411 204.307 184.059 203.839 184.537C203.37 185.016 202.734 185.286 202.07 185.288H153.636C152.973 185.283 152.338 185.013 151.87 184.535C151.402 184.057 151.139 183.41 151.136 182.736V156.835C151.136 156.161 151.4 155.514 151.868 155.037C152.337 154.56 152.973 154.292 153.636 154.292H202.07C202.733 154.292 203.369 154.56 203.838 155.037C204.307 155.514 204.57 156.161 204.57 156.835Z" fill="white"/>
<path d="M203.772 154.972L184.233 170.947C182.421 172.43 180.165 173.238 177.84 173.238C175.515 173.238 173.259 172.43 171.447 170.947L151.9 154.972C152.371 154.526 152.993 154.283 153.636 154.292H202.07C202.702 154.289 203.311 154.532 203.772 154.972Z" fill="#37474F"/>
<path opacity="0.6" d="M203.772 154.972L184.233 170.947C182.421 172.43 180.165 173.238 177.84 173.238C175.515 173.238 173.259 172.43 171.447 170.947L151.9 154.972C152.371 154.526 152.993 154.283 153.636 154.292H202.07C202.702 154.289 203.311 154.532 203.772 154.972Z" fill="white"/>
<path d="M267.17 137.425V168.421H249.064C248.399 168.419 247.763 168.149 247.293 167.671C246.823 167.193 246.558 166.545 246.555 165.869V139.977C246.56 139.302 246.826 138.655 247.295 138.178C247.765 137.7 248.4 137.43 249.064 137.425H267.17Z" fill="#37474F"/>
<path opacity="0.8" d="M267.17 137.425V168.421H249.064C248.399 168.419 247.763 168.149 247.293 167.671C246.823 167.193 246.558 166.545 246.555 165.869V139.977C246.56 139.302 246.826 138.655 247.295 138.178C247.765 137.7 248.4 137.43 249.064 137.425H267.17Z" fill="white"/>
<path d="M267.17 137.425V154.292C267.077 154.229 266.987 154.161 266.901 154.089L247.38 138.114C247.848 137.663 248.471 137.416 249.116 137.425H267.17Z" fill="#37474F"/>
<path opacity="0.6" d="M267.17 137.425V154.292C267.077 154.229 266.987 154.161 266.901 154.089L247.38 138.114C247.848 137.663 248.471 137.416 249.116 137.425H267.17Z" fill="white"/>
<path opacity="0.5" d="M267.162 137.425H263.195V168.421H267.162V137.425Z" fill="#37474F"/>
</svg>
