<svg width="533" height="420" viewBox="0 0 533 420" fill="none" xmlns="http://www.w3.org/2000/svg">
<mask id="mask0_49_822" style="mask-type:alpha" maskUnits="userSpaceOnUse" x="46" y="3" width="419" height="315">
<path d="M186.305 133.122C147.257 177.317 68.224 145.195 49.036 216.957C35.178 269.096 81.5703 319.156 134.316 310.048C165.507 304.63 176.22 273.629 203.777 266.377C232.559 258.805 264.123 287.194 287.319 299.149C346.599 329.703 401.754 323.39 439.565 263.081C467.068 219.228 485.03 139.116 421.07 117.765C368.9 100.339 331.771 147.21 310.451 79.8954C297.467 38.8794 281.669 -18.6881 221.973 13.0177C167.362 42.0148 221.824 92.9489 186.305 133.122Z" fill="#37474F"/>
</mask>
<g mask="url(#mask0_49_822)">
<path d="M186.305 133.122C147.257 177.317 68.224 145.195 49.036 216.957C35.178 269.096 81.5703 319.156 134.316 310.048C165.507 304.63 176.22 273.629 203.777 266.377C232.559 258.805 264.123 287.194 287.319 299.149C346.599 329.703 401.754 323.39 439.565 263.081C467.068 219.228 485.03 139.116 421.07 117.765C368.9 100.339 331.771 147.21 310.451 79.8954C297.467 38.8794 281.669 -18.6881 221.973 13.0177C167.362 42.0148 221.824 92.9489 186.305 133.122Z" fill="#A1CDF1"/>
<path d="M244.614 86.7684C186.834 75.0346 175.124 -9.50055 103.409 9.75602C51.3452 23.8191 31.2071 89.0431 65.4639 130.188C85.7493 154.503 117.943 148.284 137.999 168.533C158.944 189.684 150.151 231.225 151.4 257.3C154.591 323.938 187.634 368.567 258.745 371.172C310.458 373.074 388.789 348.58 375.291 282.49C364.291 228.577 305.152 219.844 352.764 167.715C381.777 135.958 423.712 93.4867 366.417 57.6191C314.011 24.8025 297.15 97.4553 244.614 86.7684Z" fill="#F0A6CA"/>
</g>
<path d="M266.5 420C380.65 420 473.187 414.595 473.187 407.928C473.187 401.26 380.65 395.855 266.5 395.855C152.35 395.855 59.8132 401.26 59.8132 407.928C59.8132 414.595 152.35 420 266.5 420Z" fill="#F5F5F5"/>
<path d="M174.248 91.712C173.991 91.711 173.737 91.654 173.505 91.545C173.272 91.4359 173.065 91.2774 172.9 91.0805C172.735 90.8836 172.614 90.653 172.547 90.4047C172.48 90.1565 172.467 89.8966 172.511 89.6431L173.097 86.2624C173.114 86.1506 173.104 86.0365 173.069 85.9291C173.034 85.8217 172.974 85.724 172.894 85.6438L170.432 83.2443C170.195 83.015 170.027 82.7236 169.948 82.4036C169.869 82.0835 169.881 81.7475 169.983 81.434C170.085 81.1205 170.273 80.842 170.526 80.6303C170.779 80.4187 171.086 80.2823 171.413 80.2369L174.813 79.7463C174.924 79.7281 175.03 79.6838 175.12 79.617C175.211 79.5503 175.285 79.4631 175.336 79.3624L176.849 76.2803C176.993 75.9775 177.219 75.7217 177.502 75.5425C177.785 75.3634 178.113 75.2683 178.448 75.2683C178.783 75.2683 179.111 75.3634 179.394 75.5425C179.677 75.7217 179.904 75.9775 180.047 76.2803L181.561 79.3624C181.613 79.4644 181.688 79.5525 181.781 79.6193C181.874 79.6861 181.981 79.7297 182.094 79.7463L185.484 80.2689C185.81 80.3143 186.118 80.4507 186.37 80.6623C186.623 80.874 186.811 81.1525 186.914 81.466C187.016 81.7795 187.028 82.1155 186.949 82.4356C186.869 82.7556 186.702 83.047 186.465 83.2763L183.97 85.6012C183.89 85.6809 183.831 85.7789 183.798 85.8867C183.764 85.9944 183.758 86.1088 183.778 86.2197L184.354 89.6004C184.41 89.9249 184.375 90.2588 184.251 90.564C184.127 90.8692 183.92 91.1335 183.654 91.3269C183.387 91.5202 183.071 91.6349 182.743 91.6577C182.415 91.6805 182.086 91.6106 181.796 91.456L178.757 89.8563C178.658 89.8013 178.546 89.7724 178.432 89.7724C178.319 89.7724 178.207 89.8013 178.107 89.8563L175.069 91.4454C174.822 91.6015 174.54 91.6931 174.248 91.712ZM178.438 76.3656C178.307 76.3613 178.178 76.3954 178.066 76.4636C177.954 76.5318 177.865 76.6312 177.809 76.7496L176.284 79.8316C176.159 80.0886 175.974 80.3113 175.743 80.4804C175.513 80.6495 175.245 80.7599 174.962 80.8021L171.562 81.2927C171.434 81.3111 171.313 81.3651 171.214 81.4486C171.115 81.5321 171.041 81.6417 171.001 81.765C170.961 81.8882 170.957 82.0202 170.988 82.146C171.019 82.2718 171.085 82.3862 171.178 82.4764L173.641 84.876C173.845 85.0772 173.997 85.325 174.084 85.598C174.172 85.8711 174.191 86.1613 174.142 86.4437L173.566 89.8244C173.543 89.9518 173.557 90.083 173.605 90.2031C173.653 90.3232 173.734 90.4275 173.838 90.504C173.943 90.5806 174.066 90.6265 174.195 90.6364C174.324 90.6463 174.453 90.6199 174.568 90.5602L177.617 88.9605C177.868 88.8288 178.148 88.76 178.432 88.76C178.716 88.76 178.996 88.8288 179.248 88.9605L182.297 90.5602C182.409 90.6315 182.54 90.6689 182.673 90.6678C182.806 90.6667 182.936 90.6273 183.048 90.5541C183.159 90.481 183.247 90.3772 183.301 90.2554C183.355 90.1335 183.373 89.9987 183.352 89.867L182.776 86.4863C182.729 86.204 182.75 85.9145 182.837 85.6419C182.925 85.3693 183.075 85.1214 183.277 84.9186L185.74 82.5191C185.835 82.4299 185.903 82.3151 185.935 82.1884C185.967 82.0618 185.962 81.9285 185.921 81.8046C185.88 81.6813 185.806 81.5719 185.706 81.4889C185.606 81.406 185.485 81.3527 185.356 81.3353L181.955 80.8448C181.673 80.8026 181.405 80.6921 181.175 80.523C180.944 80.3539 180.759 80.1313 180.634 79.8743L179.088 76.7496C179.03 76.6277 178.938 76.526 178.822 76.4575C178.706 76.3891 178.572 76.357 178.438 76.3656Z" fill="#37474F"/>
<path opacity="0.5" d="M174.248 91.712C173.991 91.711 173.737 91.654 173.505 91.545C173.272 91.4359 173.065 91.2774 172.9 91.0805C172.735 90.8836 172.614 90.653 172.547 90.4047C172.48 90.1565 172.467 89.8966 172.511 89.6431L173.097 86.2624C173.114 86.1506 173.104 86.0365 173.069 85.9291C173.034 85.8217 172.974 85.724 172.894 85.6438L170.432 83.2443C170.195 83.015 170.027 82.7236 169.948 82.4036C169.869 82.0835 169.881 81.7475 169.983 81.434C170.085 81.1205 170.273 80.842 170.526 80.6303C170.779 80.4187 171.086 80.2823 171.413 80.2369L174.813 79.7463C174.924 79.7281 175.03 79.6838 175.12 79.617C175.211 79.5503 175.285 79.4631 175.336 79.3624L176.849 76.2803C176.993 75.9775 177.219 75.7217 177.502 75.5425C177.785 75.3634 178.113 75.2683 178.448 75.2683C178.783 75.2683 179.111 75.3634 179.394 75.5425C179.677 75.7217 179.904 75.9775 180.047 76.2803L181.561 79.3624C181.613 79.4644 181.688 79.5525 181.781 79.6193C181.874 79.6861 181.981 79.7297 182.094 79.7463L185.484 80.2689C185.81 80.3143 186.118 80.4507 186.37 80.6623C186.623 80.874 186.811 81.1525 186.914 81.466C187.016 81.7795 187.028 82.1155 186.949 82.4356C186.869 82.7556 186.702 83.047 186.465 83.2763L183.97 85.6012C183.89 85.6809 183.831 85.7789 183.798 85.8867C183.764 85.9944 183.758 86.1088 183.778 86.2197L184.354 89.6004C184.41 89.9249 184.375 90.2588 184.251 90.564C184.127 90.8692 183.92 91.1335 183.654 91.3269C183.387 91.5202 183.071 91.6349 182.743 91.6577C182.415 91.6805 182.086 91.6106 181.796 91.456L178.757 89.8563C178.658 89.8013 178.546 89.7724 178.432 89.7724C178.319 89.7724 178.207 89.8013 178.107 89.8563L175.069 91.4454C174.822 91.6015 174.54 91.6931 174.248 91.712ZM178.438 76.3656C178.307 76.3613 178.178 76.3954 178.066 76.4636C177.954 76.5318 177.865 76.6312 177.809 76.7496L176.284 79.8316C176.159 80.0886 175.974 80.3113 175.743 80.4804C175.513 80.6495 175.245 80.7599 174.962 80.8021L171.562 81.2927C171.434 81.3111 171.313 81.3651 171.214 81.4486C171.115 81.5321 171.041 81.6417 171.001 81.765C170.961 81.8882 170.957 82.0202 170.988 82.146C171.019 82.2718 171.085 82.3862 171.178 82.4764L173.641 84.876C173.845 85.0772 173.997 85.325 174.084 85.598C174.172 85.8711 174.191 86.1613 174.142 86.4437L173.566 89.8244C173.543 89.9518 173.557 90.083 173.605 90.2031C173.653 90.3232 173.734 90.4275 173.838 90.504C173.943 90.5806 174.066 90.6265 174.195 90.6364C174.324 90.6463 174.453 90.6199 174.568 90.5602L177.617 88.9605C177.868 88.8288 178.148 88.76 178.432 88.76C178.716 88.76 178.996 88.8288 179.248 88.9605L182.297 90.5602C182.409 90.6315 182.54 90.6689 182.673 90.6678C182.806 90.6667 182.936 90.6273 183.048 90.5541C183.159 90.481 183.247 90.3772 183.301 90.2554C183.355 90.1335 183.373 89.9987 183.352 89.867L182.776 86.4863C182.729 86.204 182.75 85.9145 182.837 85.6419C182.925 85.3693 183.075 85.1214 183.277 84.9186L185.74 82.5191C185.835 82.4299 185.903 82.3151 185.935 82.1884C185.967 82.0618 185.962 81.9285 185.921 81.8046C185.88 81.6813 185.806 81.5719 185.706 81.4889C185.606 81.406 185.485 81.3527 185.356 81.3353L181.955 80.8448C181.673 80.8026 181.405 80.6921 181.175 80.523C180.944 80.3539 180.759 80.1313 180.634 79.8743L179.088 76.7496C179.03 76.6277 178.938 76.526 178.822 76.4575C178.706 76.3891 178.572 76.357 178.438 76.3656Z" fill="white"/>
<path d="M235.213 60.5287L235.522 67.1088C235.534 67.4862 235.637 67.8551 235.823 68.1838C236.008 68.5126 236.271 68.7914 236.588 68.9964L242.174 72.4731C242.546 72.706 242.845 73.0381 243.038 73.4321C243.232 73.826 243.311 74.2662 243.268 74.7029C243.225 75.1397 243.061 75.5557 242.794 75.9041C242.527 76.2525 242.168 76.5195 241.758 76.6749L235.607 78.9998C235.25 79.1323 234.932 79.3503 234.679 79.6348C234.426 79.9193 234.247 80.2616 234.157 80.6315L232.58 87.0302C232.475 87.4576 232.254 87.8473 231.94 88.1552C231.625 88.463 231.231 88.6768 230.802 88.7722C230.373 88.8677 229.925 88.841 229.51 88.6952C229.096 88.5494 228.73 88.2904 228.454 87.9474L224.34 82.8071C224.104 82.5066 223.798 82.2693 223.448 82.1167C223.098 81.964 222.716 81.9007 222.335 81.9326L215.78 82.4018C215.343 82.431 214.907 82.338 214.52 82.1332C214.134 81.9285 213.812 81.6201 213.59 81.2425C213.369 80.865 213.257 80.4333 213.267 79.9957C213.277 79.5582 213.409 79.1321 213.648 78.7652L217.261 73.2622C217.465 72.9499 217.591 72.5931 217.628 72.2218C217.665 71.8506 217.613 71.4759 217.475 71.1293L215.001 65.0292C214.827 64.6212 214.771 64.1722 214.84 63.7338C214.909 63.2954 215.101 62.8855 215.393 62.5513C215.685 62.217 216.065 61.972 216.49 61.8443C216.914 61.7167 217.367 61.7116 217.794 61.8298L224.137 63.5681C224.504 63.6678 224.889 63.6772 225.261 63.5955C225.632 63.5137 225.978 63.3434 226.269 63.0989L231.301 58.833C231.636 58.5373 232.049 58.3432 232.49 58.2734C232.932 58.2036 233.384 58.2609 233.795 58.4387C234.205 58.6166 234.556 58.9075 234.807 59.2776C235.058 59.6477 235.199 60.0816 235.213 60.5287Z" fill="#37474F"/>
<path opacity="0.2" d="M235.213 60.5287L235.522 67.1088C235.534 67.4862 235.637 67.8551 235.823 68.1838C236.008 68.5126 236.271 68.7914 236.588 68.9964L242.174 72.4731C242.546 72.706 242.845 73.0381 243.038 73.4321C243.232 73.826 243.311 74.2662 243.268 74.7029C243.225 75.1397 243.061 75.5557 242.794 75.9041C242.527 76.2525 242.168 76.5195 241.758 76.6749L235.607 78.9998C235.25 79.1323 234.932 79.3503 234.679 79.6348C234.426 79.9193 234.247 80.2616 234.157 80.6315L232.58 87.0302C232.475 87.4576 232.254 87.8473 231.94 88.1552C231.625 88.463 231.231 88.6768 230.802 88.7722C230.373 88.8677 229.925 88.841 229.51 88.6952C229.096 88.5494 228.73 88.2904 228.454 87.9474L224.34 82.8071C224.104 82.5066 223.798 82.2693 223.448 82.1167C223.098 81.964 222.716 81.9007 222.335 81.9326L215.78 82.4018C215.343 82.431 214.907 82.338 214.52 82.1332C214.134 81.9285 213.812 81.6201 213.59 81.2425C213.369 80.865 213.257 80.4333 213.267 79.9957C213.277 79.5582 213.409 79.1321 213.648 78.7652L217.261 73.2622C217.465 72.9499 217.591 72.5931 217.628 72.2218C217.665 71.8506 217.613 71.4759 217.475 71.1293L215.001 65.0292C214.827 64.6212 214.771 64.1722 214.84 63.7338C214.909 63.2954 215.101 62.8855 215.393 62.5513C215.685 62.217 216.065 61.972 216.49 61.8443C216.914 61.7167 217.367 61.7116 217.794 61.8298L224.137 63.5681C224.504 63.6678 224.889 63.6772 225.261 63.5955C225.632 63.5137 225.978 63.3434 226.269 63.0989L231.301 58.833C231.636 58.5373 232.049 58.3432 232.49 58.2734C232.932 58.2036 233.384 58.2609 233.795 58.4387C234.205 58.6166 234.556 58.9075 234.807 59.2776C235.058 59.6477 235.199 60.0816 235.213 60.5287Z" fill="black"/>
<path d="M371.106 173.989C370.712 173.984 370.322 173.899 369.961 173.739C369.6 173.579 369.275 173.348 369.006 173.059C368.737 172.77 368.53 172.429 368.396 172.057C368.262 171.686 368.205 171.291 368.228 170.897L368.676 164.327C368.696 164.033 368.645 163.739 368.526 163.47C368.407 163.2 368.224 162.964 367.994 162.781L362.845 158.686C362.423 158.352 362.102 157.907 361.919 157.402C361.736 156.896 361.698 156.349 361.809 155.822C361.919 155.296 362.175 154.811 362.546 154.422C362.918 154.033 363.39 153.755 363.911 153.62L370.307 152.02C370.594 151.952 370.86 151.813 371.079 151.615C371.299 151.418 371.466 151.168 371.565 150.89L373.867 144.726C374.057 144.222 374.383 143.781 374.809 143.453C375.235 143.125 375.745 142.922 376.28 142.868C376.815 142.813 377.355 142.909 377.838 143.145C378.321 143.381 378.729 143.748 379.016 144.203L382.513 149.781C382.668 150.032 382.882 150.241 383.136 150.389C383.391 150.538 383.678 150.622 383.973 150.634L390.55 150.922C391.091 150.939 391.616 151.107 392.066 151.408C392.515 151.709 392.872 152.13 393.094 152.624C393.316 153.117 393.395 153.663 393.322 154.199C393.25 154.736 393.028 155.241 392.682 155.657L388.418 160.701C388.218 160.928 388.077 161.2 388.008 161.494C387.94 161.788 387.945 162.095 388.024 162.386L389.783 168.732C389.929 169.25 389.926 169.799 389.776 170.315C389.625 170.832 389.332 171.296 388.93 171.654C388.528 172.014 388.034 172.254 387.503 172.348C386.972 172.443 386.425 172.387 385.924 172.187L379.826 169.724C379.553 169.614 379.256 169.572 378.963 169.601C378.67 169.631 378.388 169.732 378.142 169.894L372.663 173.531C372.197 173.827 371.658 173.986 371.106 173.989ZM376.596 143.915H376.404C376.065 143.944 375.74 144.07 375.47 144.278C375.2 144.486 374.995 144.767 374.88 145.088L372.577 151.252C372.417 151.693 372.15 152.087 371.8 152.4C371.45 152.712 371.029 152.934 370.573 153.044L364.177 154.644C363.847 154.726 363.546 154.899 363.308 155.144C363.071 155.388 362.907 155.694 362.835 156.028C362.763 156.361 362.785 156.707 362.9 157.028C363.015 157.349 363.217 157.632 363.484 157.843L368.633 161.938C368.997 162.23 369.284 162.606 369.469 163.033C369.655 163.46 369.734 163.927 369.699 164.391L369.252 170.961C369.224 171.299 369.293 171.639 369.452 171.939C369.61 172.24 369.852 172.489 370.147 172.656C370.435 172.836 370.767 172.931 371.106 172.931C371.446 172.931 371.778 172.836 372.066 172.656L377.556 169.02C377.944 168.762 378.39 168.602 378.854 168.553C379.318 168.505 379.787 168.57 380.221 168.742L386.329 171.206C386.64 171.327 386.977 171.36 387.306 171.302C387.634 171.244 387.94 171.097 388.191 170.877C388.441 170.657 388.627 170.372 388.727 170.054C388.827 169.736 388.838 169.397 388.759 169.073L387 162.728C386.875 162.277 386.86 161.803 386.959 161.346C387.057 160.889 387.265 160.463 387.565 160.104L391.829 155.06C392.045 154.797 392.183 154.48 392.23 154.144C392.276 153.808 392.228 153.465 392.09 153.154C391.953 152.844 391.733 152.577 391.453 152.384C391.174 152.192 390.846 152.08 390.508 152.063L383.941 151.786C383.473 151.764 383.017 151.63 382.613 151.394C382.208 151.158 381.866 150.828 381.617 150.431L378.131 144.854C377.981 144.576 377.76 144.342 377.49 144.178C377.22 144.013 376.912 143.922 376.596 143.915Z" fill="#37474F"/>
<path opacity="0.5" d="M371.106 173.989C370.712 173.984 370.322 173.899 369.961 173.739C369.6 173.579 369.275 173.348 369.006 173.059C368.737 172.77 368.53 172.429 368.396 172.057C368.262 171.686 368.205 171.291 368.228 170.897L368.676 164.327C368.696 164.033 368.645 163.739 368.526 163.47C368.407 163.2 368.224 162.964 367.994 162.781L362.845 158.686C362.423 158.352 362.102 157.907 361.919 157.402C361.736 156.896 361.698 156.349 361.809 155.822C361.919 155.296 362.175 154.811 362.546 154.422C362.918 154.033 363.39 153.755 363.911 153.62L370.307 152.02C370.594 151.952 370.86 151.813 371.079 151.615C371.299 151.418 371.466 151.168 371.565 150.89L373.867 144.726C374.057 144.222 374.383 143.781 374.809 143.453C375.235 143.125 375.745 142.922 376.28 142.868C376.815 142.813 377.355 142.909 377.838 143.145C378.321 143.381 378.729 143.748 379.016 144.203L382.513 149.781C382.668 150.032 382.882 150.241 383.136 150.389C383.391 150.538 383.678 150.622 383.973 150.634L390.55 150.922C391.091 150.939 391.616 151.107 392.066 151.408C392.515 151.709 392.872 152.13 393.094 152.624C393.316 153.117 393.395 153.663 393.322 154.199C393.25 154.736 393.028 155.241 392.682 155.657L388.418 160.701C388.218 160.928 388.077 161.2 388.008 161.494C387.94 161.788 387.945 162.095 388.024 162.386L389.783 168.732C389.929 169.25 389.926 169.799 389.776 170.315C389.625 170.832 389.332 171.296 388.93 171.654C388.528 172.014 388.034 172.254 387.503 172.348C386.972 172.443 386.425 172.387 385.924 172.187L379.826 169.724C379.553 169.614 379.256 169.572 378.963 169.601C378.67 169.631 378.388 169.732 378.142 169.894L372.663 173.531C372.197 173.827 371.658 173.986 371.106 173.989ZM376.596 143.915H376.404C376.065 143.944 375.74 144.07 375.47 144.278C375.2 144.486 374.995 144.767 374.88 145.088L372.577 151.252C372.417 151.693 372.15 152.087 371.8 152.4C371.45 152.712 371.029 152.934 370.573 153.044L364.177 154.644C363.847 154.726 363.546 154.899 363.308 155.144C363.071 155.388 362.907 155.694 362.835 156.028C362.763 156.361 362.785 156.707 362.9 157.028C363.015 157.349 363.217 157.632 363.484 157.843L368.633 161.938C368.997 162.23 369.284 162.606 369.469 163.033C369.655 163.46 369.734 163.927 369.699 164.391L369.252 170.961C369.224 171.299 369.293 171.639 369.452 171.939C369.61 172.24 369.852 172.489 370.147 172.656C370.435 172.836 370.767 172.931 371.106 172.931C371.446 172.931 371.778 172.836 372.066 172.656L377.556 169.02C377.944 168.762 378.39 168.602 378.854 168.553C379.318 168.505 379.787 168.57 380.221 168.742L386.329 171.206C386.64 171.327 386.977 171.36 387.306 171.302C387.634 171.244 387.94 171.097 388.191 170.877C388.441 170.657 388.627 170.372 388.727 170.054C388.827 169.736 388.838 169.397 388.759 169.073L387 162.728C386.875 162.277 386.86 161.803 386.959 161.346C387.057 160.889 387.265 160.463 387.565 160.104L391.829 155.06C392.045 154.797 392.183 154.48 392.23 154.144C392.276 153.808 392.228 153.465 392.09 153.154C391.953 152.844 391.733 152.577 391.453 152.384C391.174 152.192 390.846 152.08 390.508 152.063L383.941 151.786C383.473 151.764 383.017 151.63 382.613 151.394C382.208 151.158 381.866 150.828 381.617 150.431L378.131 144.854C377.981 144.576 377.76 144.342 377.49 144.178C377.22 144.013 376.912 143.922 376.596 143.915Z" fill="white"/>
<path d="M376.074 217.373L375.2 220.658C375.154 220.843 375.153 221.037 375.197 221.222C375.242 221.408 375.33 221.58 375.456 221.724L377.663 224.305C377.81 224.478 377.907 224.688 377.941 224.913C377.975 225.138 377.945 225.368 377.855 225.577C377.765 225.785 377.619 225.965 377.432 226.094C377.245 226.224 377.026 226.299 376.799 226.31L373.409 226.491C373.212 226.504 373.022 226.565 372.853 226.667C372.684 226.769 372.542 226.91 372.439 227.078L370.67 229.978C370.546 230.158 370.376 230.302 370.178 230.394C369.98 230.486 369.761 230.524 369.544 230.504C369.327 230.483 369.119 230.405 368.942 230.277C368.765 230.149 368.625 229.976 368.538 229.776L367.322 226.576C367.249 226.393 367.134 226.23 366.986 226.101C366.837 225.971 366.66 225.878 366.47 225.83L363.165 225.041C362.942 224.99 362.739 224.877 362.577 224.716C362.415 224.554 362.303 224.351 362.251 224.128C362.2 223.905 362.213 223.673 362.288 223.457C362.362 223.241 362.497 223.051 362.675 222.908L365.318 220.775C365.474 220.647 365.595 220.483 365.671 220.297C365.747 220.111 365.776 219.908 365.755 219.708L365.489 216.317C365.482 216.096 365.535 215.877 365.642 215.684C365.75 215.491 365.909 215.331 366.1 215.222C366.292 215.112 366.51 215.057 366.731 215.062C366.952 215.067 367.168 215.132 367.354 215.251L370.211 217.096C370.378 217.202 370.567 217.266 370.763 217.285C370.96 217.303 371.158 217.275 371.341 217.202L374.475 215.89C374.687 215.814 374.916 215.797 375.136 215.841C375.357 215.886 375.561 215.991 375.727 216.144C375.892 216.297 376.012 216.493 376.073 216.709C376.134 216.926 376.135 217.156 376.074 217.373Z" fill="#37474F"/>
<path opacity="0.2" d="M376.074 217.373L375.2 220.658C375.154 220.843 375.153 221.037 375.197 221.222C375.242 221.408 375.33 221.58 375.456 221.724L377.663 224.305C377.81 224.478 377.907 224.688 377.941 224.913C377.975 225.138 377.945 225.368 377.855 225.577C377.765 225.785 377.619 225.965 377.432 226.094C377.245 226.224 377.026 226.299 376.799 226.31L373.409 226.491C373.212 226.504 373.022 226.565 372.853 226.667C372.684 226.769 372.542 226.91 372.439 227.078L370.67 229.978C370.546 230.158 370.376 230.302 370.178 230.394C369.98 230.486 369.761 230.524 369.544 230.504C369.327 230.483 369.119 230.405 368.942 230.277C368.765 230.149 368.625 229.976 368.538 229.776L367.322 226.576C367.249 226.393 367.134 226.23 366.986 226.101C366.837 225.971 366.66 225.878 366.47 225.83L363.165 225.041C362.942 224.99 362.739 224.877 362.577 224.716C362.415 224.554 362.303 224.351 362.251 224.128C362.2 223.905 362.213 223.673 362.288 223.457C362.362 223.241 362.497 223.051 362.675 222.908L365.318 220.775C365.474 220.647 365.595 220.483 365.671 220.297C365.747 220.111 365.776 219.908 365.755 219.708L365.489 216.317C365.482 216.096 365.535 215.877 365.642 215.684C365.75 215.491 365.909 215.331 366.1 215.222C366.292 215.112 366.51 215.057 366.731 215.062C366.952 215.067 367.168 215.132 367.354 215.251L370.211 217.096C370.378 217.202 370.567 217.266 370.763 217.285C370.96 217.303 371.158 217.275 371.341 217.202L374.475 215.89C374.687 215.814 374.916 215.797 375.136 215.841C375.357 215.886 375.561 215.991 375.727 216.144C375.892 216.297 376.012 216.493 376.073 216.709C376.134 216.926 376.135 217.156 376.074 217.373Z" fill="black"/>
<path d="M177.159 221.671L176.562 223.9C176.53 224.029 176.529 224.164 176.558 224.293C176.588 224.423 176.647 224.544 176.732 224.646L178.235 226.374C178.334 226.492 178.398 226.635 178.421 226.787C178.443 226.94 178.423 227.095 178.362 227.237C178.301 227.379 178.203 227.5 178.077 227.589C177.951 227.678 177.803 227.73 177.649 227.739L175.346 227.867C175.214 227.873 175.085 227.913 174.971 227.982C174.858 228.051 174.763 228.147 174.696 228.261L173.491 230.224C173.412 230.356 173.298 230.463 173.161 230.533C173.023 230.604 172.869 230.634 172.716 230.62C172.562 230.607 172.416 230.551 172.293 230.458C172.17 230.365 172.075 230.24 172.02 230.096L171.189 227.963C171.142 227.837 171.065 227.724 170.965 227.635C170.864 227.546 170.744 227.483 170.613 227.451L168.375 226.918C168.225 226.883 168.087 226.807 167.978 226.698C167.87 226.589 167.794 226.451 167.759 226.301C167.725 226.151 167.733 225.994 167.783 225.849C167.834 225.703 167.924 225.575 168.044 225.478L169.824 224.028C169.929 223.944 170.013 223.837 170.066 223.714C170.12 223.591 170.143 223.457 170.134 223.324L169.942 221.02C169.931 220.866 169.963 220.712 170.035 220.576C170.107 220.439 170.215 220.325 170.348 220.247C170.48 220.168 170.632 220.128 170.787 220.131C170.941 220.134 171.091 220.18 171.221 220.263L173.15 221.511C173.262 221.585 173.391 221.631 173.525 221.644C173.659 221.657 173.794 221.637 173.918 221.585L176.05 220.7C176.191 220.641 176.347 220.623 176.498 220.648C176.649 220.673 176.791 220.739 176.906 220.84C177.022 220.941 177.106 221.073 177.151 221.219C177.196 221.366 177.198 221.523 177.159 221.671Z" fill="#37474F"/>
<path opacity="0.2" d="M177.159 221.671L176.562 223.9C176.53 224.029 176.529 224.164 176.558 224.293C176.588 224.423 176.647 224.544 176.732 224.646L178.235 226.374C178.334 226.492 178.398 226.635 178.421 226.787C178.443 226.94 178.423 227.095 178.362 227.237C178.301 227.379 178.203 227.5 178.077 227.589C177.951 227.678 177.803 227.73 177.649 227.739L175.346 227.867C175.214 227.873 175.085 227.913 174.971 227.982C174.858 228.051 174.763 228.147 174.696 228.261L173.491 230.224C173.412 230.356 173.298 230.463 173.161 230.533C173.023 230.604 172.869 230.634 172.716 230.62C172.562 230.607 172.416 230.551 172.293 230.458C172.17 230.365 172.075 230.24 172.02 230.096L171.189 227.963C171.142 227.837 171.065 227.724 170.965 227.635C170.864 227.546 170.744 227.483 170.613 227.451L168.375 226.918C168.225 226.883 168.087 226.807 167.978 226.698C167.87 226.589 167.794 226.451 167.759 226.301C167.725 226.151 167.733 225.994 167.783 225.849C167.834 225.703 167.924 225.575 168.044 225.478L169.824 224.028C169.929 223.944 170.013 223.837 170.066 223.714C170.12 223.591 170.143 223.457 170.134 223.324L169.942 221.02C169.931 220.866 169.963 220.712 170.035 220.576C170.107 220.439 170.215 220.325 170.348 220.247C170.48 220.168 170.632 220.128 170.787 220.131C170.941 220.134 171.091 220.18 171.221 220.263L173.15 221.511C173.262 221.585 173.391 221.631 173.525 221.644C173.659 221.657 173.794 221.637 173.918 221.585L176.05 220.7C176.191 220.641 176.347 220.623 176.498 220.648C176.649 220.673 176.791 220.739 176.906 220.84C177.022 220.941 177.106 221.073 177.151 221.219C177.196 221.366 177.198 221.523 177.159 221.671Z" fill="black"/>
<path d="M378.281 270.323C351.535 270.323 323.286 259.381 305.622 240.686C287.799 221.809 283.023 197.942 292.18 173.499L296.167 174.992C287.639 197.846 292.073 220.135 308.724 237.764C331.206 261.567 371.618 272.221 402.692 262.538C437.103 251.873 450.449 226.47 463.358 201.941C477.813 174.469 491.426 148.522 533 148.522V152.788C494.048 152.788 481.576 176.485 467.132 203.925C454.436 228.038 440.055 255.371 403.961 266.601C395.637 269.127 386.979 270.382 378.281 270.323Z" fill="#37474F"/>
<path opacity="0.5" d="M378.281 270.323C351.535 270.323 323.286 259.381 305.622 240.686C287.799 221.809 283.023 197.942 292.18 173.499L296.167 174.992C287.639 197.846 292.073 220.135 308.724 237.764C331.206 261.567 371.618 272.221 402.692 262.538C437.103 251.873 450.449 226.47 463.358 201.941C477.813 174.469 491.426 148.522 533 148.522V152.788C494.048 152.788 481.576 176.485 467.132 203.925C454.436 228.038 440.055 255.371 403.961 266.601C395.637 269.127 386.979 270.382 378.281 270.323Z" fill="white"/>
<path d="M284.835 144.758L283.396 145.323L282.064 145.824L279.399 146.731C277.619 147.317 275.828 147.797 274.069 148.32C270.393 149.297 266.663 150.055 262.897 150.591C258.879 151.185 254.814 151.407 250.755 151.252C248.471 151.139 246.2 150.84 243.965 150.357C241.693 149.843 239.47 149.129 237.324 148.224C228.998 144.544 223.007 138.732 218.274 132.664C215.954 129.635 213.879 126.426 212.07 123.066C211.185 121.402 210.343 119.749 209.586 118.043C209.203 117.19 208.84 116.326 208.52 115.462C208.201 114.598 207.881 113.745 207.508 112.711L216.974 108.029L218.413 109.842C218.925 110.471 219.426 111.1 219.959 111.719C221.025 112.967 222.091 114.193 223.157 115.377C225.262 117.722 227.501 119.944 229.862 122.031C232.064 124.013 234.436 125.797 236.951 127.364C238.109 128.077 239.305 128.729 240.532 129.315C241.678 129.834 242.861 130.265 244.072 130.606C246.287 131.275 248.617 131.479 250.915 131.203C253.765 130.982 256.594 130.551 259.379 129.913C262.343 129.273 265.381 128.484 268.408 127.588C269.933 127.172 271.446 126.692 272.96 126.223L275.625 125.252L284.835 144.758Z" fill="#37474F"/>
<path opacity="0.6" d="M284.835 144.758L283.396 145.323L282.064 145.824L279.399 146.731C277.619 147.317 275.828 147.797 274.069 148.32C270.393 149.297 266.663 150.055 262.897 150.591C258.879 151.185 254.814 151.407 250.755 151.252C248.471 151.139 246.2 150.84 243.965 150.357C241.693 149.843 239.47 149.129 237.324 148.224C228.998 144.544 223.007 138.732 218.274 132.664C215.954 129.635 213.879 126.426 212.07 123.066C211.185 121.402 210.343 119.749 209.586 118.043C209.203 117.19 208.84 116.326 208.52 115.462C208.201 114.598 207.881 113.745 207.508 112.711L216.974 108.029L218.413 109.842C218.925 110.471 219.426 111.1 219.959 111.719C221.025 112.967 222.091 114.193 223.157 115.377C225.262 117.722 227.501 119.944 229.862 122.031C232.064 124.013 234.436 125.797 236.951 127.364C238.109 128.077 239.305 128.729 240.532 129.315C241.678 129.834 242.861 130.265 244.072 130.606C246.287 131.275 248.617 131.479 250.915 131.203C253.765 130.982 256.594 130.551 259.379 129.913C262.343 129.273 265.381 128.484 268.408 127.588C269.933 127.172 271.446 126.692 272.96 126.223L275.625 125.252L284.835 144.758Z" fill="white"/>
<path d="M275.518 125.252C275.518 125.252 256.565 143.883 249.444 189.73L294.898 207.689C297.627 201.664 304.492 170.875 322.614 144.587C318.315 141.197 313.644 138.306 308.692 135.97C302.383 133.101 295.932 130.553 289.366 128.334C284.826 126.991 280.199 125.961 275.518 125.252Z" fill="#37474F"/>
<path opacity="0.6" d="M275.518 125.252C275.518 125.252 256.565 143.883 249.444 189.73L294.898 207.689C297.627 201.664 304.492 170.875 322.614 144.587C318.315 141.197 313.644 138.306 308.692 135.97C302.383 133.101 295.932 130.553 289.366 128.334C284.826 126.991 280.199 125.961 275.518 125.252Z" fill="white"/>
<path d="M311.986 115.11C308.788 120.165 303.714 129.763 306.102 134.936C306.102 134.936 304.791 137.207 295.548 133.528C288.001 130.52 289.099 128.196 289.099 128.196C295.772 129.145 297.403 124.559 298.022 119.877L311.986 115.11Z" fill="#E4897B"/>
<path d="M306.294 117.072L298.032 119.899C297.897 120.982 297.673 122.052 297.361 123.098C299.823 123.674 304.034 122.383 305.249 120.037C305.771 119.119 306.125 118.115 306.294 117.072Z" fill="#CE6F64"/>
<path d="M307.008 88.8006C302.744 88.182 294.216 97.8868 297.18 102.665C300.143 107.442 315.057 90.0163 307.008 88.8006Z" fill="#263238"/>
<path d="M316.122 109.266C311.144 115.515 308.554 119.419 302.915 120.453C294.387 122.021 288.47 113.382 291.476 105.779C294.184 98.9319 301.87 89.867 310.078 91.7546C311.888 92.1615 313.565 93.0246 314.948 94.2619C316.331 95.4993 317.375 97.0698 317.98 98.8244C318.586 100.579 318.733 102.459 318.408 104.287C318.083 106.114 317.296 107.828 316.122 109.266Z" fill="#E4897B"/>
<path d="M311.187 115.345C306.752 114.342 309.577 97.5561 321.037 100.649C334.916 104.392 318.361 116.955 311.187 115.345Z" fill="#263238"/>
<path d="M321.367 105.043C316.037 103.07 301.422 95.6153 304.098 86.6037C305.409 82.2205 313.777 82.9137 319.587 86.0171C310.153 86.3584 314.886 90.8482 321.058 92.7891C331.1 95.9459 328.499 107.709 321.367 105.043Z" fill="#263238"/>
<path d="M322.742 102.771C322.742 102.771 328.413 102.025 327.23 107.176C326.92 106.119 326.345 105.16 325.559 104.389C324.773 103.618 323.804 103.061 322.742 102.771Z" fill="#263238"/>
<path d="M322.998 102.302C322.998 102.302 326.463 106.845 329.288 102.387C328.319 102.909 327.232 103.175 326.132 103.161C325.031 103.146 323.953 102.85 322.998 102.302Z" fill="#263238"/>
<path d="M314.022 118.523C313.105 118.903 312.121 119.099 311.128 119.099C310.135 119.099 309.152 118.903 308.234 118.523C305.772 117.456 306.187 114.907 308.234 113.446C310.089 112.135 313.564 111.09 315.398 112.956C317.231 114.822 316.282 117.595 314.022 118.523Z" fill="#E4897B"/>
<path d="M249.444 189.73C249.444 189.73 213.755 216.616 202.626 238.489C191.081 261.258 180.208 307.425 180.208 307.425L197.125 313.568C197.125 313.568 211.271 274.375 224.127 252.854C238.145 229.392 261.373 224.006 279.356 201.493L249.444 189.73Z" fill="#37474F"/>
<path opacity="0.6" d="M249.444 189.73C249.444 189.73 213.755 216.616 202.626 238.489C191.081 261.258 180.208 307.425 180.208 307.425L197.125 313.568C197.125 313.568 211.271 274.375 224.127 252.854C238.145 229.392 261.373 224.006 279.356 201.493L249.444 189.73Z" fill="white"/>
<path d="M265.605 196.097C265.605 196.097 242.153 234.34 238.955 257.856C235.49 283.6 243.72 332.039 243.72 332.039L260.563 327.997C260.563 327.997 256.533 292.878 262.396 268.339C268.792 241.678 287.49 226.438 294.898 207.689L265.605 196.097Z" fill="#37474F"/>
<path opacity="0.6" d="M265.605 196.097C265.605 196.097 242.153 234.34 238.955 257.856C235.49 283.6 243.72 332.039 243.72 332.039L260.563 327.997C260.563 327.997 256.533 292.878 262.396 268.339C268.792 241.678 287.49 226.438 294.898 207.689L265.605 196.097Z" fill="white"/>
<path d="M304.951 104.147C304.578 104.68 303.992 104.915 303.65 104.67C303.309 104.424 303.32 103.806 303.65 103.272C303.981 102.739 304.61 102.505 304.951 102.75C305.293 102.995 305.325 103.624 304.951 104.147Z" fill="#263238"/>
<path d="M298.95 99.9344C298.577 100.468 297.99 100.702 297.649 100.457C297.307 100.212 297.318 99.5932 297.649 99.0599C297.979 98.5267 298.609 98.2921 298.95 98.5374C299.291 98.7826 299.323 99.4652 298.95 99.9344Z" fill="#263238"/>
<path d="M300.676 101.598C298.904 102.777 296.978 103.707 294.952 104.36C295.272 105.896 297.148 106.621 297.148 106.621L300.676 101.598Z" fill="#DE5753"/>
<path d="M300.964 110.194C299.782 110.191 298.63 109.818 297.67 109.127C297.647 109.114 297.627 109.096 297.611 109.074C297.595 109.052 297.584 109.027 297.578 109.001C297.573 108.975 297.573 108.948 297.578 108.921C297.584 108.895 297.595 108.87 297.61 108.848C297.626 108.827 297.646 108.808 297.67 108.795C297.693 108.781 297.719 108.773 297.745 108.77C297.772 108.767 297.799 108.77 297.825 108.778C297.85 108.786 297.874 108.8 297.894 108.818C298.544 109.296 299.299 109.614 300.095 109.746C300.892 109.877 301.708 109.819 302.478 109.575C302.525 109.56 302.575 109.563 302.62 109.582C302.665 109.602 302.702 109.637 302.723 109.682C302.74 109.729 302.739 109.78 302.719 109.826C302.699 109.872 302.662 109.908 302.616 109.927C302.086 110.115 301.526 110.206 300.964 110.194Z" fill="#263238"/>
<path d="M308.341 103.55C308.243 103.55 308.149 103.512 308.077 103.445C308.006 103.377 307.963 103.285 307.958 103.187C307.954 102.709 307.837 102.238 307.616 101.814C307.396 101.389 307.078 101.023 306.688 100.745C306.601 100.693 306.537 100.608 306.512 100.509C306.487 100.41 306.503 100.305 306.555 100.217C306.607 100.129 306.692 100.066 306.791 100.041C306.89 100.016 306.995 100.031 307.083 100.084C307.579 100.429 307.986 100.888 308.27 101.422C308.554 101.956 308.706 102.55 308.715 103.155C308.719 103.205 308.713 103.256 308.697 103.304C308.681 103.351 308.655 103.395 308.621 103.432C308.586 103.47 308.545 103.499 308.499 103.519C308.452 103.54 308.403 103.55 308.352 103.55H308.341Z" fill="#263238"/>
<path d="M297.99 96.1058C297.92 96.1052 297.852 96.0861 297.792 96.0505C297.732 96.0149 297.683 95.9641 297.649 95.9032C297.602 95.8151 297.592 95.7126 297.62 95.6171C297.648 95.5216 297.712 95.4406 297.798 95.3913C298.32 95.0851 298.908 94.908 299.512 94.8746C300.117 94.8412 300.72 94.9525 301.273 95.1993C301.318 95.2229 301.358 95.2551 301.391 95.2943C301.423 95.3334 301.447 95.3785 301.462 95.4272C301.477 95.4758 301.482 95.5269 301.477 95.5775C301.472 95.628 301.457 95.6771 301.433 95.7219C301.385 95.8101 301.305 95.8762 301.21 95.9061C301.114 95.936 301.011 95.9273 300.921 95.8818C300.482 95.6897 300.004 95.605 299.526 95.6347C299.047 95.6643 298.583 95.8076 298.171 96.0525C298.116 96.086 298.054 96.1044 297.99 96.1058Z" fill="#263238"/>
<path d="M322.657 144.587L323.36 145.28L324.16 146.347L325.684 148.48C326.654 149.909 327.603 151.348 328.499 152.82C329.394 154.292 330.257 155.796 331.089 157.331C331.92 158.867 332.688 160.424 333.445 162.013C334.977 165.27 336.281 168.631 337.346 172.07C337.624 172.934 337.869 173.84 338.093 174.757L338.444 176.122L338.53 176.464L338.636 176.954L338.849 177.925C339.273 180.217 339.412 182.552 339.265 184.878C338.986 188.69 338.271 192.458 337.133 196.108C336.123 199.432 334.909 202.691 333.498 205.866C332.134 208.98 330.62 211.966 329.01 214.888C327.401 217.81 325.695 220.594 323.68 223.42L314.214 218.727C315.835 212.872 317.519 206.804 318.787 200.971C319.384 198.038 319.971 195.148 320.301 192.364C320.472 190.957 320.589 189.613 320.685 188.312C320.755 187.108 320.755 185.901 320.685 184.697C320.613 183.837 320.441 182.989 320.173 182.169L320.098 181.988V181.892L320.003 181.678L319.619 180.772C319.363 180.175 319.107 179.567 318.798 178.959C317.625 176.443 316.326 173.987 314.907 171.6C314.204 170.363 313.468 169.137 312.69 167.911C311.912 166.684 311.165 165.458 310.355 164.242C309.545 163.026 308.756 161.81 307.946 160.605L305.622 157.171L322.657 144.587Z" fill="#37474F"/>
<path opacity="0.6" d="M322.657 144.587L323.36 145.28L324.16 146.347L325.684 148.48C326.654 149.909 327.603 151.348 328.499 152.82C329.394 154.292 330.257 155.796 331.089 157.331C331.92 158.867 332.688 160.424 333.445 162.013C334.977 165.27 336.281 168.631 337.346 172.07C337.624 172.934 337.869 173.84 338.093 174.757L338.444 176.122L338.53 176.464L338.636 176.954L338.849 177.925C339.273 180.217 339.412 182.552 339.265 184.878C338.986 188.69 338.271 192.458 337.133 196.108C336.123 199.432 334.909 202.691 333.498 205.866C332.134 208.98 330.62 211.966 329.01 214.888C327.401 217.81 325.695 220.594 323.68 223.42L314.214 218.727C315.835 212.872 317.519 206.804 318.787 200.971C319.384 198.038 319.971 195.148 320.301 192.364C320.472 190.957 320.589 189.613 320.685 188.312C320.755 187.108 320.755 185.901 320.685 184.697C320.613 183.837 320.441 182.989 320.173 182.169L320.098 181.988V181.892L320.003 181.678L319.619 180.772C319.363 180.175 319.107 179.567 318.798 178.959C317.625 176.443 316.326 173.987 314.907 171.6C314.204 170.363 313.468 169.137 312.69 167.911C311.912 166.684 311.165 165.458 310.355 164.242C309.545 163.026 308.756 161.81 307.946 160.605L305.622 157.171L322.657 144.587Z" fill="white"/>
<path opacity="0.1" d="M318.771 135.149C334.227 128.512 341.379 110.596 334.745 95.1328C328.111 79.6696 310.202 72.5146 294.746 79.1517C279.289 85.7889 272.137 103.705 278.772 119.168C285.406 134.631 303.314 141.786 318.771 135.149Z" fill="#37474F"/>
<path d="M306.774 138.7C302.171 138.692 297.625 137.681 293.454 135.736C289.282 133.791 285.584 130.959 282.618 127.438C282.528 127.331 282.461 127.206 282.419 127.072C282.378 126.938 282.363 126.797 282.376 126.658C282.389 126.518 282.429 126.383 282.494 126.258C282.56 126.134 282.649 126.024 282.757 125.935C282.864 125.845 282.989 125.778 283.123 125.736C283.257 125.694 283.397 125.68 283.537 125.693C283.676 125.705 283.812 125.746 283.936 125.811C284.06 125.876 284.17 125.966 284.26 126.073C287.521 129.949 291.726 132.918 296.469 134.692C301.213 136.467 306.333 136.988 311.336 136.205C311.619 136.161 311.907 136.231 312.138 136.4C312.369 136.569 312.523 136.823 312.567 137.106C312.611 137.389 312.541 137.677 312.372 137.908C312.203 138.139 311.949 138.294 311.667 138.338C310.048 138.586 308.412 138.708 306.774 138.7Z" fill="#263238"/>
<path d="M262.812 331.441L242.163 336.742L240.639 316.458L260.754 313.93L262.812 331.441Z" fill="#37474F"/>
<path opacity="0.2" d="M262.812 331.441L242.163 336.742L240.639 316.458L260.754 313.93L262.812 331.441Z" fill="black"/>
<path d="M243.229 332.476L260.882 328.53C261.138 328.485 261.402 328.528 261.63 328.652C261.859 328.776 262.038 328.973 262.14 329.213L266.767 340.197C266.876 340.465 266.924 340.755 266.906 341.044C266.889 341.334 266.806 341.615 266.665 341.868C266.524 342.121 266.327 342.339 266.09 342.506C265.853 342.673 265.581 342.784 265.296 342.831C260.232 343.663 257.727 343.812 251.374 344.964C247.461 345.679 239.466 347.556 234.072 348.537C228.679 349.518 227.143 344.612 229.116 343.418C236.354 339.003 238.635 337.072 241.289 333.638C241.773 333.027 242.463 332.614 243.229 332.476Z" fill="#37474F"/>
<path opacity="0.2" d="M243.229 332.476L260.882 328.53C261.138 328.485 261.402 328.528 261.63 328.652C261.859 328.776 262.038 328.973 262.14 329.213L266.767 340.197C266.876 340.465 266.924 340.755 266.906 341.044C266.889 341.334 266.806 341.615 266.665 341.868C266.524 342.121 266.327 342.339 266.09 342.506C265.853 342.673 265.581 342.784 265.296 342.831C260.232 343.663 257.727 343.812 251.374 344.964C247.461 345.679 239.466 347.556 234.072 348.537C228.679 349.518 227.143 344.612 229.116 343.418C236.354 339.003 238.635 337.072 241.289 333.638C241.773 333.027 242.463 332.614 243.229 332.476Z" fill="black"/>
<path d="M196.805 316.735L176.082 311.701L182.947 293.166L203.212 300.312L196.805 316.735Z" fill="#37474F"/>
<path opacity="0.2" d="M196.805 316.735L176.082 311.701L182.947 293.166L203.212 300.312L196.805 316.735Z" fill="black"/>
<path d="M179.088 308.491L196.517 313.322C196.764 313.399 196.978 313.559 197.121 313.774C197.265 313.99 197.33 314.248 197.306 314.506L196.24 326.376C196.212 326.665 196.12 326.944 195.968 327.192C195.817 327.44 195.612 327.651 195.368 327.808C195.123 327.965 194.847 328.065 194.558 328.099C194.27 328.134 193.977 328.102 193.703 328.007C188.842 326.365 186.561 325.32 180.399 323.347C176.615 322.142 168.673 320.041 163.461 318.367C158.248 316.692 159.197 311.648 161.488 311.52C169.953 311.029 172.873 310.4 176.828 308.619C177.541 308.302 178.344 308.257 179.088 308.491Z" fill="#37474F"/>
<path opacity="0.2" d="M179.088 308.491L196.517 313.322C196.764 313.399 196.978 313.559 197.121 313.774C197.265 313.99 197.33 314.248 197.306 314.506L196.24 326.376C196.212 326.665 196.12 326.944 195.968 327.192C195.817 327.44 195.612 327.651 195.368 327.808C195.123 327.965 194.847 328.065 194.558 328.099C194.27 328.134 193.977 328.102 193.703 328.007C188.842 326.365 186.561 325.32 180.399 323.347C176.615 322.142 168.673 320.041 163.461 318.367C158.248 316.692 159.197 311.648 161.488 311.52C169.953 311.029 172.873 310.4 176.828 308.619C177.541 308.302 178.344 308.257 179.088 308.491Z" fill="black"/>
<path d="M295.282 210.953C264.837 202.88 246.897 191.757 246.15 191.298L249.54 185.87C249.711 185.987 267.481 196.961 296.924 204.767L295.282 210.953Z" fill="#37474F"/>
<path opacity="0.2" d="M295.282 210.953C264.837 202.88 246.897 191.757 246.15 191.298L249.54 185.87C249.711 185.987 267.481 196.961 296.924 204.767L295.282 210.953Z" fill="black"/>
<path d="M204.086 250.007C203.484 250.011 202.889 249.876 202.348 249.612C200.803 248.823 199.875 247.042 199.747 244.589C199.759 241.868 200.41 239.189 201.647 236.766C202.884 234.343 204.672 232.245 206.868 230.64C208.915 229.307 210.908 229.008 212.454 229.797C214 230.586 214.938 232.367 215.066 234.81C215.11 237.548 214.457 240.253 213.168 242.669C211.968 245.157 210.129 247.281 207.838 248.823C206.72 249.555 205.422 249.965 204.086 250.007ZM210.599 229.573C209.311 229.633 208.068 230.062 207.017 230.81C204.855 232.397 203.094 234.469 201.878 236.861C200.662 239.252 200.023 241.895 200.014 244.578C200.131 246.925 201.005 248.631 202.476 249.377C203.947 250.124 205.674 249.761 207.668 248.546C209.93 247.03 211.747 244.939 212.934 242.488C214.2 240.118 214.842 237.465 214.799 234.778C214.671 232.431 213.797 230.725 212.337 229.979C211.797 229.708 211.202 229.569 210.599 229.573Z" fill="#37474F"/>
<path opacity="0.2" d="M204.086 250.007C203.484 250.011 202.889 249.876 202.348 249.612C200.803 248.823 199.875 247.042 199.747 244.589C199.759 241.868 200.41 239.189 201.647 236.766C202.884 234.343 204.672 232.245 206.868 230.64C208.915 229.307 210.908 229.008 212.454 229.797C214 230.586 214.938 232.367 215.066 234.81C215.11 237.548 214.457 240.253 213.168 242.669C211.968 245.157 210.129 247.281 207.838 248.823C206.72 249.555 205.422 249.965 204.086 250.007ZM210.599 229.573C209.311 229.633 208.068 230.062 207.017 230.81C204.855 232.397 203.094 234.469 201.878 236.861C200.662 239.252 200.023 241.895 200.014 244.578C200.131 246.925 201.005 248.631 202.476 249.377C203.947 250.124 205.674 249.761 207.668 248.546C209.93 247.03 211.747 244.939 212.934 242.488C214.2 240.118 214.842 237.465 214.799 234.778C214.671 232.431 213.797 230.725 212.337 229.979C211.797 229.708 211.202 229.569 210.599 229.573Z" fill="black"/>
<path d="M242.931 271.613H242.675C239.115 271.325 236.609 266.11 237.1 259.989C237.569 254.027 240.682 249.324 244.125 249.324H244.423C247.984 249.601 250.478 254.816 249.998 260.938C249.444 267.464 245.99 271.613 242.931 271.613ZM244.114 249.633C240.81 249.633 237.814 254.187 237.356 260.01C236.897 265.833 239.274 271.069 242.686 271.346C245.628 271.581 249.231 267.379 249.732 260.98C250.201 255.008 247.813 249.921 244.402 249.655L244.114 249.633Z" fill="#37474F"/>
<path opacity="0.2" d="M242.931 271.613H242.675C239.115 271.325 236.609 266.11 237.1 259.989C237.569 254.027 240.682 249.324 244.125 249.324H244.423C247.984 249.601 250.478 254.816 249.998 260.938C249.444 267.464 245.99 271.613 242.931 271.613ZM244.114 249.633C240.81 249.633 237.814 254.187 237.356 260.01C236.897 265.833 239.274 271.069 242.686 271.346C245.628 271.581 249.231 267.379 249.732 260.98C250.201 255.008 247.813 249.921 244.402 249.655L244.114 249.633Z" fill="black"/>
<path d="M281.126 169.617C279.838 169.621 278.562 169.367 277.373 168.87C271.425 166.386 269.08 158.408 272.128 151.071C273.494 147.649 275.988 144.797 279.196 142.987C280.574 142.141 282.134 141.634 283.746 141.509C285.358 141.385 286.977 141.646 288.468 142.271C289.96 142.896 291.281 143.868 292.323 145.105C293.365 146.342 294.098 147.81 294.461 149.386C295.425 152.924 295.158 156.685 293.704 160.051C292.339 163.473 289.845 166.325 286.637 168.135C284.953 169.084 283.058 169.593 281.126 169.617ZM284.697 141.782C282.828 141.811 280.996 142.306 279.367 143.222C276.211 145.003 273.758 147.81 272.416 151.178C269.421 158.376 271.713 166.204 277.522 168.625C278.983 169.198 280.555 169.432 282.119 169.308C283.683 169.184 285.199 168.707 286.551 167.911C289.708 166.129 292.16 163.322 293.502 159.955L293.619 160.008L293.502 159.955C294.941 156.633 295.204 152.92 294.248 149.429C293.862 147.906 293.134 146.492 292.12 145.293C291.106 144.093 289.832 143.141 288.396 142.508C287.223 142.023 285.965 141.777 284.697 141.782Z" fill="#37474F"/>
<path opacity="0.2" d="M281.126 169.617C279.838 169.621 278.562 169.367 277.373 168.87C271.425 166.386 269.08 158.408 272.128 151.071C273.494 147.649 275.988 144.797 279.196 142.987C280.574 142.141 282.134 141.634 283.746 141.509C285.358 141.385 286.977 141.646 288.468 142.271C289.96 142.896 291.281 143.868 292.323 145.105C293.365 146.342 294.098 147.81 294.461 149.386C295.425 152.924 295.158 156.685 293.704 160.051C292.339 163.473 289.845 166.325 286.637 168.135C284.953 169.084 283.058 169.593 281.126 169.617ZM284.697 141.782C282.828 141.811 280.996 142.306 279.367 143.222C276.211 145.003 273.758 147.81 272.416 151.178C269.421 158.376 271.713 166.204 277.522 168.625C278.983 169.198 280.555 169.432 282.119 169.308C283.683 169.184 285.199 168.707 286.551 167.911C289.708 166.129 292.16 163.322 293.502 159.955L293.619 160.008L293.502 159.955C294.941 156.633 295.204 152.92 294.248 149.429C293.862 147.906 293.134 146.492 292.12 145.293C291.106 144.093 289.832 143.141 288.396 142.508C287.223 142.023 285.965 141.777 284.697 141.782Z" fill="black"/>
<path d="M208.328 117.723L220.726 111.633C220.726 111.633 214 95.114 206.975 96.575C199.715 98.0787 201.805 105.203 208.328 117.723Z" fill="#37474F"/>
<path opacity="0.2" d="M208.328 117.723L220.726 111.633C220.726 111.633 214 95.114 206.975 96.575C199.715 98.0787 201.805 105.203 208.328 117.723Z" fill="black"/>
<path d="M214.266 107.197L219.809 110.396C219.809 110.396 220.214 98.772 217.485 98.2388C214.756 97.7055 213.648 100.948 214.266 107.197Z" fill="#37474F"/>
<path opacity="0.2" d="M214.266 107.197L219.809 110.396C219.809 110.396 220.214 98.772 217.485 98.2388C214.756 97.7055 213.648 100.948 214.266 107.197Z" fill="black"/>
<path d="M327.987 218.023L315.611 211.87C315.611 211.87 306.593 227.27 312.029 231.962C317.668 236.815 322.018 230.821 327.987 218.023Z" fill="#37474F"/>
<path opacity="0.2" d="M327.987 218.023L315.611 211.87C315.611 211.87 306.593 227.27 312.029 231.962C317.668 236.815 322.018 230.821 327.987 218.023Z" fill="black"/>
<path d="M316.037 219.73L315.238 213.331C315.238 213.331 305.761 220.082 307.008 222.567C308.255 225.051 311.432 223.996 316.037 219.73Z" fill="#37474F"/>
<path opacity="0.2" d="M316.037 219.73L315.238 213.331C315.238 213.331 305.761 220.082 307.008 222.567C308.255 225.051 311.432 223.996 316.037 219.73Z" fill="black"/>
<path d="M330.799 161.086L321.275 165.901L324.362 172.012L333.886 167.197L330.799 161.086Z" fill="#37474F"/>
<path opacity="0.2" d="M330.799 161.086L321.275 165.901L324.362 172.012L333.886 167.197L330.799 161.086Z" fill="black"/>
<path d="M294.899 193.815C294.757 193.8 294.625 193.741 294.518 193.647C294.412 193.553 294.338 193.428 294.306 193.29C294.274 193.151 294.286 193.007 294.34 192.875C294.394 192.744 294.488 192.633 294.608 192.558C294.729 192.482 294.869 192.446 295.011 192.455C295.153 192.463 295.288 192.516 295.399 192.605C295.509 192.694 295.589 192.815 295.628 192.951C295.666 193.088 295.661 193.233 295.613 193.367C295.575 193.52 295.479 193.651 295.346 193.735C295.213 193.818 295.053 193.847 294.899 193.815Z" fill="#37474F"/>
<path d="M293.95 196.449C293.822 196.365 293.727 196.24 293.679 196.095C293.631 195.95 293.633 195.793 293.684 195.649C293.736 195.506 293.834 195.383 293.964 195.302C294.093 195.221 294.246 195.185 294.398 195.201C294.525 195.286 294.62 195.41 294.668 195.555C294.716 195.7 294.714 195.857 294.663 196.001C294.611 196.144 294.513 196.267 294.384 196.348C294.254 196.429 294.102 196.465 293.95 196.449Z" fill="#37474F"/>
<path d="M293.001 199.072C292.859 199.06 292.725 199.003 292.617 198.91C292.509 198.816 292.433 198.692 292.4 198.554C292.366 198.415 292.377 198.27 292.43 198.138C292.483 198.006 292.577 197.893 292.697 197.817C292.817 197.74 292.958 197.703 293.1 197.711C293.242 197.719 293.379 197.771 293.49 197.86C293.601 197.949 293.682 198.071 293.72 198.208C293.759 198.345 293.753 198.491 293.705 198.625C293.669 198.776 293.576 198.908 293.444 198.992C293.313 199.075 293.154 199.104 293.001 199.072Z" fill="#37474F"/>
<path d="M295.847 195.649C295.706 195.636 295.571 195.579 295.463 195.486C295.356 195.393 295.28 195.269 295.246 195.13C295.212 194.992 295.223 194.846 295.276 194.714C295.329 194.582 295.423 194.47 295.543 194.394C295.663 194.317 295.804 194.28 295.946 194.288C296.089 194.296 296.225 194.348 296.336 194.437C296.447 194.526 296.528 194.647 296.566 194.784C296.605 194.922 296.6 195.067 296.551 195.201C296.516 195.353 296.422 195.485 296.291 195.568C296.159 195.652 296 195.681 295.847 195.649Z" fill="#37474F"/>
<path d="M294.899 198.273C294.757 198.26 294.623 198.203 294.515 198.11C294.407 198.017 294.331 197.892 294.297 197.754C294.264 197.615 294.274 197.47 294.327 197.338C294.381 197.206 294.474 197.094 294.594 197.017C294.714 196.941 294.855 196.904 294.998 196.911C295.14 196.919 295.276 196.971 295.387 197.06C295.498 197.149 295.579 197.271 295.618 197.408C295.656 197.545 295.651 197.691 295.602 197.825C295.567 197.976 295.473 198.108 295.342 198.192C295.21 198.276 295.051 198.305 294.899 198.273Z" fill="#37474F"/>
<path d="M293.95 200.907C293.81 200.834 293.705 200.709 293.658 200.559C293.61 200.41 293.623 200.247 293.694 200.107C293.703 200.029 293.73 199.954 293.772 199.888C293.814 199.821 293.87 199.765 293.937 199.724C294.004 199.682 294.079 199.656 294.157 199.648C294.235 199.639 294.314 199.649 294.388 199.675C294.462 199.701 294.529 199.744 294.584 199.8C294.64 199.856 294.682 199.923 294.707 199.998C294.733 200.072 294.741 200.151 294.732 200.229C294.723 200.307 294.696 200.382 294.654 200.448C294.62 200.602 294.528 200.736 294.396 200.822C294.264 200.908 294.104 200.938 293.95 200.907Z" fill="#37474F"/>
<g opacity="0.2">
<path d="M294.899 193.815C294.757 193.8 294.624 193.741 294.518 193.647C294.412 193.553 294.338 193.428 294.306 193.29C294.274 193.151 294.286 193.007 294.34 192.875C294.394 192.744 294.488 192.633 294.608 192.558C294.728 192.482 294.869 192.446 295.011 192.455C295.153 192.463 295.288 192.516 295.399 192.605C295.509 192.694 295.589 192.815 295.628 192.951C295.666 193.088 295.661 193.233 295.613 193.367C295.575 193.52 295.479 193.651 295.346 193.735C295.213 193.818 295.052 193.847 294.899 193.815Z" fill="black"/>
<path d="M293.95 196.449C293.823 196.365 293.727 196.24 293.679 196.095C293.631 195.95 293.633 195.793 293.685 195.649C293.736 195.506 293.834 195.383 293.964 195.302C294.093 195.221 294.246 195.185 294.398 195.201C294.525 195.286 294.62 195.41 294.668 195.555C294.717 195.7 294.715 195.857 294.663 196.001C294.611 196.144 294.513 196.267 294.384 196.348C294.255 196.429 294.102 196.465 293.95 196.449Z" fill="black"/>
<path d="M293.001 199.072C292.859 199.06 292.725 199.003 292.617 198.91C292.509 198.816 292.433 198.692 292.4 198.554C292.366 198.415 292.377 198.27 292.43 198.138C292.483 198.006 292.577 197.893 292.697 197.817C292.817 197.74 292.958 197.703 293.1 197.711C293.242 197.719 293.379 197.771 293.49 197.86C293.601 197.949 293.682 198.071 293.72 198.208C293.759 198.345 293.753 198.491 293.705 198.625C293.669 198.776 293.576 198.908 293.444 198.992C293.313 199.075 293.154 199.104 293.001 199.072Z" fill="black"/>
<path d="M295.847 195.649C295.706 195.636 295.571 195.579 295.463 195.486C295.356 195.393 295.28 195.269 295.246 195.13C295.212 194.992 295.223 194.846 295.276 194.714C295.329 194.582 295.423 194.47 295.543 194.394C295.663 194.317 295.804 194.28 295.946 194.288C296.089 194.296 296.225 194.348 296.336 194.437C296.447 194.526 296.528 194.647 296.566 194.784C296.605 194.922 296.6 195.067 296.551 195.201C296.516 195.353 296.422 195.485 296.29 195.568C296.159 195.652 296 195.681 295.847 195.649Z" fill="black"/>
<path d="M294.899 198.273C294.757 198.26 294.622 198.203 294.515 198.11C294.407 198.017 294.331 197.892 294.297 197.754C294.264 197.615 294.274 197.47 294.327 197.338C294.381 197.206 294.474 197.094 294.594 197.017C294.714 196.941 294.855 196.904 294.997 196.911C295.14 196.919 295.276 196.971 295.387 197.06C295.498 197.149 295.579 197.271 295.617 197.408C295.656 197.545 295.651 197.691 295.602 197.825C295.567 197.976 295.473 198.108 295.342 198.192C295.21 198.276 295.051 198.305 294.899 198.273Z" fill="black"/>
<path d="M293.95 200.907C293.81 200.834 293.705 200.709 293.657 200.559C293.61 200.41 293.623 200.247 293.694 200.107C293.703 200.029 293.729 199.954 293.772 199.888C293.814 199.821 293.87 199.765 293.937 199.724C294.003 199.682 294.079 199.656 294.157 199.648C294.235 199.639 294.314 199.649 294.388 199.675C294.462 199.701 294.529 199.744 294.584 199.8C294.64 199.856 294.681 199.923 294.707 199.998C294.733 200.072 294.741 200.151 294.732 200.229C294.722 200.307 294.696 200.382 294.654 200.448C294.62 200.602 294.528 200.736 294.396 200.822C294.264 200.908 294.104 200.938 293.95 200.907Z" fill="black"/>
</g>
</svg>
