<svg width="300" height="224" viewBox="0 0 300 224" fill="none" xmlns="http://www.w3.org/2000/svg">
<mask id="mask0_49_1095" style="mask-type:alpha" maskUnits="userSpaceOnUse" x="67" y="30" width="168" height="140">
<path d="M95.616 41.991C140.31 17.1655 195.318 35.9785 222.732 77.5787C246.018 112.92 236.262 182.316 186.948 167.585C155.556 158.206 155.646 113.473 124.626 104.779C109.536 100.54 94.944 113.022 80.04 103.041C53.118 85.0101 75.642 53.09 95.616 41.991Z" fill="#37474F"/>
</mask>
<g mask="url(#mask0_49_1095)">
<path d="M95.616 41.991C140.31 17.1655 195.318 35.9785 222.732 77.5787C246.018 112.92 236.262 182.316 186.948 167.585C155.556 158.206 155.646 113.473 124.626 104.779C109.536 100.54 94.944 113.022 80.04 103.041C53.118 85.0101 75.642 53.09 95.616 41.991Z" fill="#A1CDF1"/>
<path d="M249.61 39.5964C275.018 85.3345 255.764 141.628 213.187 169.682C177.017 193.512 105.994 183.528 121.07 133.062C130.669 100.937 176.451 101.029 185.349 69.2841C189.687 53.8416 176.913 38.9087 187.127 23.6565C205.582 -3.89452 238.251 19.1557 249.61 39.5964Z" fill="#F0A6CA"/>
</g>
<path d="M150 224C214.249 224 266.334 220.953 266.334 217.194C266.334 213.435 214.249 210.388 150 210.388C85.7504 210.388 33.6659 213.435 33.6659 217.194C33.6659 220.953 85.7504 224 150 224Z" fill="#F5F5F5"/>
<g style="mix-blend-mode:multiply">
<path d="M238.98 217.735C238.98 218.385 227.682 218.908 213.744 218.908C199.806 218.908 188.502 218.385 188.502 217.735C188.502 217.086 199.806 216.569 213.744 216.569C227.682 216.569 238.98 217.092 238.98 217.735Z" fill="#F5F5F5"/>
</g>
<path d="M239.382 108.182L238.399 119.394L239.016 119.448L239.998 108.236L239.382 108.182Z" fill="#263238"/>
<path d="M242.185 88.0765L240.753 104.022L241.372 104.077L242.804 88.1323L242.185 88.0765Z" fill="#263238"/>
<path d="M196.909 46.2721H189.432V46.8914H196.909V46.2721Z" fill="#263238"/>
<path d="M177.907 132.1H235.129L242.443 49.05H185.227L177.907 132.1Z" fill="#263238"/>
<path d="M194.443 217.735H191.845L211.147 90.4818H213.745L194.443 217.735Z" fill="#263238"/>
<path d="M233.047 217.735H235.639L216.336 90.4818H213.744L233.047 217.735Z" fill="#263238"/>
<path d="M174.372 133.236H233.472L240.792 50.1802H181.686L174.372 133.236Z" fill="#37474F"/>
<path opacity="0.8" d="M174.372 133.236H233.472L240.792 50.1802H181.686L174.372 133.236Z" fill="#FAFAFA"/>
<path d="M228.96 128.27L235.404 55.1407H186.204L179.76 128.27H228.96Z" fill="#37474F"/>
<path d="M245.4 87.7161C233.064 80.3688 228.504 88.8344 219.276 93.7826C211.38 98.0214 194.676 85.9003 185.802 101.262C176.928 116.624 202.704 153.51 236.646 137.379C255.036 128.625 265.506 99.6989 245.4 87.7161Z" fill="#37474F"/>
<path opacity="0.1" d="M245.4 87.7161C233.064 80.3688 228.504 88.8344 219.276 93.7826C211.38 98.0214 194.676 85.9003 185.802 101.262C176.928 116.624 202.704 153.51 236.646 137.379C255.036 128.625 265.506 99.6989 245.4 87.7161Z" fill="black"/>
<path d="M218.01 83.8801C225.21 86.0686 226.464 81.1925 230.544 77.5189C234.036 74.3744 244.044 78.4508 246.654 69.5223C249.264 60.5938 231.534 45.0456 216.27 57.4974C207.99 64.2674 206.268 80.2966 218.01 83.8801Z" fill="#37474F"/>
<path opacity="0.1" d="M218.01 83.8801C225.21 86.0686 226.464 81.1925 230.544 77.5189C234.036 74.3744 244.044 78.4508 246.654 69.5223C249.264 60.5938 231.534 45.0456 216.27 57.4974C207.99 64.2674 206.268 80.2966 218.01 83.8801Z" fill="black"/>
<path d="M190.242 57.0585C189.998 57.0633 189.756 57.0151 189.532 56.9172C189.308 56.8192 189.108 56.6738 188.945 56.491C188.783 56.3082 188.662 56.0923 188.59 55.8581C188.519 55.6239 188.499 55.3771 188.532 55.1345C188.599 54.6149 188.85 54.1366 189.238 53.7859C189.627 53.4353 190.128 53.2354 190.65 53.2226C190.893 53.2185 191.133 53.2662 191.356 53.3627C191.578 53.4591 191.777 53.6019 191.94 53.7817C192.102 53.9679 192.224 54.1862 192.296 54.4224C192.368 54.6585 192.39 54.9073 192.36 55.1526C192.292 55.671 192.041 56.148 191.653 56.4974C191.264 56.8468 190.764 57.0458 190.242 57.0585ZM190.65 53.3789C190.165 53.3893 189.699 53.5741 189.338 53.8996C188.977 54.2251 188.744 54.6697 188.682 55.1526C188.654 55.3754 188.674 55.6017 188.74 55.8163C188.807 56.0309 188.918 56.2289 189.066 56.3971C189.218 56.5629 189.404 56.6939 189.611 56.7811C189.818 56.8682 190.042 56.9095 190.266 56.9022C190.75 56.8917 191.215 56.7076 191.575 56.3832C191.935 56.0588 192.167 55.6157 192.228 55.1345C192.258 54.912 192.239 54.6858 192.174 54.4711C192.109 54.2564 191.999 54.0582 191.85 53.8899C191.699 53.7224 191.514 53.5899 191.307 53.5016C191.099 53.4134 190.875 53.3715 190.65 53.3789Z" fill="#FAFAFA"/>
<path d="M195.648 57.0585C195.405 57.063 195.163 57.0155 194.94 56.9191C194.716 56.8227 194.516 56.6796 194.352 56.4993C194.19 56.3142 194.069 56.097 193.997 55.8618C193.924 55.6266 193.902 55.3788 193.932 55.1345C194 54.6154 194.251 54.1378 194.639 53.7873C195.028 53.4369 195.528 53.2366 196.05 53.2225C196.295 53.2176 196.538 53.2659 196.762 53.3642C196.987 53.4625 197.187 53.6085 197.35 53.792C197.512 53.9755 197.633 54.1922 197.704 54.4271C197.775 54.662 197.794 54.9095 197.76 55.1525C197.694 55.671 197.445 56.1485 197.057 56.4983C196.67 56.8481 196.17 57.0468 195.648 57.0585ZM196.05 53.3789C195.566 53.3907 195.101 53.5762 194.741 53.9015C194.381 54.2269 194.15 54.6707 194.088 55.1525C194.057 55.3738 194.074 55.5993 194.138 55.8133C194.203 56.0273 194.313 56.2245 194.462 56.3912C194.61 56.5579 194.794 56.69 194.999 56.7782C195.204 56.8665 195.425 56.9088 195.648 56.9022C196.132 56.8905 196.595 56.7059 196.955 56.3818C197.315 56.0576 197.547 55.6152 197.61 55.1345C197.638 54.9121 197.619 54.6863 197.554 54.4718C197.489 54.2573 197.379 54.0591 197.232 53.8899C197.083 53.7251 196.9 53.5941 196.697 53.506C196.493 53.4178 196.272 53.3745 196.05 53.3789Z" fill="#FAFAFA"/>
<path d="M207.889 76.5871C199.555 76.5871 192.198 83.3571 191.466 91.7084C191.256 93.7463 191.499 95.8057 192.18 97.7377C192.861 99.6697 193.962 101.426 195.403 102.88L217.705 80.5312C216.408 79.2593 214.873 78.2563 213.189 77.5795C211.505 76.9027 209.704 76.5655 207.889 76.5871Z" fill="#FAFAFA"/>
<path d="M220.903 79.6352C222.239 81.0555 223.254 82.7464 223.882 84.5937C224.509 86.441 224.733 88.4018 224.54 90.3434C223.801 98.5264 216.601 105.182 208.423 105.182C204.944 105.22 201.584 103.915 199.039 101.539L220.903 79.6352ZM220.903 79.1963L198.601 101.545C199.899 102.817 201.434 103.821 203.12 104.498C204.805 105.174 206.607 105.511 208.423 105.489C216.757 105.489 224.107 98.7188 224.846 90.3675C225.055 88.3291 224.811 86.2694 224.129 84.3374C223.447 82.4054 222.345 80.6494 220.903 79.1963Z" fill="#37474F"/>
<path opacity="0.2" d="M220.903 79.6352C222.239 81.0555 223.254 82.7464 223.882 84.5937C224.509 86.441 224.733 88.4018 224.54 90.3434C223.801 98.5264 216.601 105.182 208.423 105.182C204.944 105.22 201.584 103.915 199.039 101.539L220.903 79.6352ZM220.903 79.1963L198.601 101.545C199.899 102.817 201.434 103.821 203.12 104.498C204.805 105.174 206.607 105.511 208.423 105.489C216.757 105.489 224.107 98.7188 224.846 90.3675C225.055 88.3291 224.811 86.2694 224.129 84.3374C223.447 82.4054 222.345 80.6494 220.903 79.1963Z" fill="black"/>
<path d="M180.462 128.27L186.912 55.1407H186.204L179.76 128.27H180.462Z" fill="#263238"/>
<path d="M175.068 132.707L175.296 133.236H233.472L233.52 132.707H175.068Z" fill="#37474F"/>
<path opacity="0.1" d="M175.068 132.707L175.296 133.236H233.472L233.52 132.707H175.068Z" fill="#FAFAFA"/>
<path d="M170.148 131.523L170.37 133.236H229.476L229.248 131.523H170.148Z" fill="#37474F"/>
<path opacity="0.3" d="M170.148 131.523L170.37 133.236H229.476L229.248 131.523H170.148Z" fill="#FAFAFA"/>
<g style="mix-blend-mode:multiply">
<path d="M126.863 217.735C126.863 218.384 115.565 218.907 101.627 218.907C87.6895 218.907 76.3855 218.384 76.3855 217.735C76.3855 217.086 87.6895 216.569 101.627 216.569C115.565 216.569 126.863 217.092 126.863 217.735Z" fill="#F5F5F5"/>
</g>
<path d="M108.671 213.123H113.184L113.634 202.656H109.121L108.671 213.123Z" fill="#E58A7B"/>
<path d="M81.5935 213.123H86.0996L88.3677 202.656H83.8556L81.5935 213.123Z" fill="#E58A7B"/>
<path d="M86.3999 212.601H81.3298C81.2407 212.601 81.1543 212.631 81.0846 212.687C81.015 212.743 80.966 212.82 80.9458 212.907L80.0578 216.923C80.0358 217.022 80.0365 217.123 80.0597 217.221C80.0829 217.319 80.1281 217.41 80.1917 217.488C80.2553 217.565 80.3357 217.627 80.4269 217.669C80.5181 217.711 80.6175 217.732 80.7178 217.729C82.5178 217.699 83.3458 217.597 85.5719 217.597C86.9459 217.597 89.772 217.735 91.6621 217.735C93.5521 217.735 93.8041 215.859 93.0301 215.691C89.55 214.933 88.23 213.887 87.132 212.877C86.9301 212.698 86.6696 212.6 86.3999 212.601Z" fill="#263238"/>
<path d="M113.154 212.601H108.228C108.138 212.6 108.051 212.63 107.982 212.686C107.912 212.741 107.863 212.82 107.844 212.907L106.956 216.923C106.933 217.021 106.932 217.122 106.954 217.219C106.977 217.316 107.021 217.407 107.083 217.485C107.146 217.563 107.225 217.625 107.315 217.668C107.405 217.71 107.504 217.731 107.604 217.729C109.404 217.699 111.948 217.597 114.204 217.597C116.814 217.597 119.07 217.735 122.13 217.735C123.984 217.735 124.53 215.859 123.726 215.691C120.192 214.921 117.312 214.837 114.264 212.949C113.934 212.73 113.549 212.609 113.154 212.601Z" fill="#263238"/>
<path d="M116.477 65.4336L122.555 63.0286C122.555 63.0286 129.564 77.3623 131.766 78.0597C134.766 79.0458 140.928 81.7814 144.654 82.2684C145.122 82.8697 145.854 84.7335 145.728 85.413C140.592 87.0964 129.654 84.8658 127.386 83.0982C122.219 79.1119 116.477 65.4336 116.477 65.4336Z" fill="#E58A7B"/>
<path d="M114.834 62.181C113.316 66.2214 121.014 78.132 121.014 78.132L130.014 73.2259C128.658 69.5223 126.91 65.9748 124.8 62.6439C121.632 57.8761 116.502 57.7197 114.834 62.181Z" fill="#37474F"/>
<path d="M114.702 62.6918C116.502 61.8501 118.452 62.5535 120.444 65.8965C122.436 69.2394 124.044 74.8189 124.182 76.4122L121.014 78.1619C121.014 78.1619 113.904 67.135 114.702 62.6918Z" fill="#37474F"/>
<path opacity="0.2" d="M114.702 62.6918C116.502 61.8501 118.452 62.5535 120.444 65.8965C122.436 69.2394 124.044 74.8189 124.182 76.4122L121.014 78.1619C121.014 78.1619 113.904 67.135 114.702 62.6918Z" fill="black"/>
<path d="M119.4 77.7288C119.344 77.7288 119.29 77.7137 119.242 77.6851C119.195 77.6566 119.156 77.6155 119.13 77.5665C119.11 77.5315 119.097 77.4929 119.092 77.4529C119.087 77.4129 119.091 77.3723 119.102 77.3336C119.113 77.2949 119.132 77.2589 119.157 77.2276C119.183 77.1963 119.214 77.1705 119.25 77.1517L128.25 72.2395C128.321 72.2012 128.405 72.193 128.483 72.2167C128.561 72.2404 128.626 72.294 128.664 72.3657C128.684 72.4007 128.696 72.4394 128.701 72.4794C128.706 72.5194 128.703 72.5599 128.692 72.5986C128.68 72.6373 128.661 72.6734 128.636 72.7046C128.611 72.7359 128.579 72.7617 128.544 72.7806L119.544 77.6928C119.499 77.7167 119.45 77.7291 119.4 77.7288Z" fill="#FAFAFA"/>
<path d="M143.892 82.2625L148.98 80.1702L150.702 85.6776C148.668 85.9878 146.598 85.9878 144.564 85.6776L143.892 82.2625Z" fill="#E58A7B"/>
<path d="M152.676 80.0379L152.592 83.6995L150.702 85.6775L148.98 80.1701L152.676 80.0379Z" fill="#E58A7B"/>
<path d="M113.634 202.656L113.4 208.055H108.887L109.121 202.656H113.634Z" fill="#CF6F64"/>
<path d="M83.8558 202.656H88.368L87.1979 208.055H82.6858L83.8558 202.656Z" fill="#CF6F64"/>
<path d="M120.192 59.0844C120.192 59.0844 125.515 72.7327 120.456 98.1654H96.3357C96.1677 94.4557 98.4958 76.3522 94.9197 58.8679C97.5866 58.3511 100.284 58.0096 102.996 57.8458C106.413 57.6473 109.839 57.6473 113.256 57.8458C115.597 58.0776 117.916 58.4917 120.192 59.0844Z" fill="#37474F"/>
<path d="M113.4 77.1339C111.06 77.1339 109.025 74.771 108.845 71.8069C108.777 71.0282 108.865 70.2439 109.103 69.4995C109.341 68.7552 109.725 68.0659 110.231 67.4719C110.562 67.0945 110.965 66.788 111.417 66.571C111.868 66.354 112.359 66.2309 112.86 66.2093C115.224 66.1491 117.33 68.5301 117.51 71.5363C117.578 72.3135 117.491 73.0966 117.254 73.8398C117.017 74.583 116.635 75.2715 116.13 75.8653C115.8 76.2435 115.397 76.5505 114.945 76.7676C114.493 76.9847 114.002 77.1073 113.502 77.1279L113.4 77.1339ZM112.962 66.8225H112.878C112.46 66.8385 112.049 66.9408 111.672 67.1229C111.296 67.3049 110.96 67.5629 110.688 67.8807C110.241 68.4167 109.906 69.0358 109.7 69.7025C109.494 70.3691 109.422 71.07 109.487 71.7648C109.649 74.4403 111.456 76.5747 113.508 76.5086C113.926 76.4911 114.336 76.3876 114.713 76.2046C115.09 76.0215 115.425 75.7627 115.698 75.4444C116.144 74.9097 116.48 74.2916 116.686 73.6259C116.892 72.9602 116.964 72.2602 116.898 71.5664C116.76 68.9329 115.008 66.8225 112.986 66.8225H112.962Z" fill="#FAFAFA"/>
<path d="M100.164 63.1729C100.566 66.0469 99.6599 72.9311 96.9238 80.8916C96.9688 74.0895 96.4106 67.2967 95.2557 60.5936V60.5575C96.8458 60.3952 99.7799 60.4733 100.164 63.1729Z" fill="#37474F"/>
<path opacity="0.2" d="M100.164 63.1729C100.566 66.0469 99.6599 72.9311 96.9238 80.8916C96.9688 74.0895 96.4106 67.2967 95.2557 60.5936V60.5575C96.8458 60.3952 99.7799 60.4733 100.164 63.1729Z" fill="black"/>
<path d="M114.81 58.0081C114.306 57.9419 113.784 57.8818 113.256 57.8277C109.839 57.6322 106.413 57.6322 102.996 57.8277L101.706 57.9179L101.856 58.2846C101.922 58.453 103.566 62.4212 110.454 62.4212C111.36 62.4212 114.096 62.4212 114.96 60.5694C115.128 60.1584 115.202 59.7149 115.176 59.2716C115.15 58.8283 115.025 58.3965 114.81 58.0081Z" fill="#FAFAFA"/>
<path d="M104.016 46.26C104.664 49.5669 105.306 55.6274 102.995 57.834C102.995 57.834 104.322 61.189 110.454 61.189C116.058 61.189 113.256 57.834 113.256 57.834C109.572 56.9502 109.656 54.2265 110.31 51.6472L104.016 46.26Z" fill="#E58A7B"/>
<path d="M106.584 48.4605L110.31 51.6471C110.151 52.2376 110.044 52.8412 109.992 53.4508C108.792 54.5932 106.656 51.7012 106.506 50.2281C106.424 49.6391 106.45 49.0399 106.584 48.4605Z" fill="#CF6F64"/>
<path d="M114.504 36.0747C116.724 37.0187 117.93 43.2536 115.104 44.6906C112.278 46.1276 110.298 34.3071 114.504 36.0747Z" fill="#263238"/>
<path d="M103.62 41.2876C103.896 45.7608 103.83 48.3943 106.086 50.6971C109.482 54.1542 114.996 52.098 116.064 47.6307C117.024 43.6084 116.412 36.9646 112.038 35.1789C111.075 34.7814 110.027 34.6373 108.993 34.7601C107.958 34.883 106.973 35.2688 106.129 35.8809C105.286 36.493 104.612 37.3111 104.173 38.2574C103.734 39.2037 103.543 40.2468 103.62 41.2876Z" fill="#E58A7B"/>
<path d="M106.2 39.3034C107.142 42.9951 107.094 45.9171 105.215 46.0674C103.337 46.2177 99.8693 40.3977 99.9833 37.7642C100.157 33.7359 103.097 37.0006 102.065 33.5916C101.423 31.4692 104.987 29.5392 107.748 30.2727C112.302 31.4752 113.67 37.4876 117.294 33.2368C119.394 30.7898 125.64 33.2368 121.662 36.9706C117.684 40.7043 121.116 40.9208 121.116 40.9208C121.116 40.9208 116.082 40.7043 117.96 37.9145C119.838 35.1248 114.528 38.9727 111.156 37.9747C107.94 37.0006 105.503 36.5317 106.2 39.3034Z" fill="#263238"/>
<path d="M101.604 46.2178C101.9 46.691 102.287 47.1008 102.742 47.4238C103.197 47.7467 103.712 47.9764 104.256 48.0997C105.714 48.4244 106.356 47.0957 105.882 45.7609C105.456 44.5584 104.184 42.9471 102.756 43.2236C102.444 43.2892 102.154 43.4318 101.911 43.6385C101.669 43.8452 101.482 44.1094 101.367 44.407C101.253 44.7046 101.215 45.0262 101.256 45.3425C101.297 45.6588 101.417 45.9597 101.604 46.2178Z" fill="#E58A7B"/>
<path d="M102.599 35.251C102.153 35.0351 101.767 34.7118 101.476 34.3099C101.185 33.9081 100.998 33.4403 100.931 32.9483C100.931 32.9483 99.7854 35.714 102.599 35.251Z" fill="#263238"/>
<path d="M120.457 98.1533C120.457 98.1533 121.057 131.949 120.589 145.73C120.079 160.07 115.08 207.009 115.08 207.009H107.442C107.442 207.009 107.16 160.905 106.842 146.824C106.476 131.474 104.622 98.1533 104.622 98.1533H120.457Z" fill="#37474F"/>
<path opacity="0.6" d="M120.457 98.1533C120.457 98.1533 121.057 131.949 120.589 145.73C120.079 160.07 115.08 207.009 115.08 207.009H107.442C107.442 207.009 107.16 160.905 106.842 146.824C106.476 131.474 104.622 98.1533 104.622 98.1533H120.457Z" fill="black"/>
<path d="M106.854 204.754C106.824 204.754 106.578 207.075 106.578 207.075H115.674L116.322 204.412L106.854 204.754Z" fill="#37474F"/>
<path opacity="0.1" d="M106.854 204.754C106.824 204.754 106.578 207.075 106.578 207.075H115.674L116.322 204.412L106.854 204.754Z" fill="black"/>
<path d="M109.908 107.1C109.758 123.869 108.75 134.054 106.686 142.243C106.416 134.24 105.924 123.664 105.486 114.88L109.908 107.1Z" fill="#37474F"/>
<path opacity="0.8" d="M109.908 107.1C109.758 123.869 108.75 134.054 106.686 142.243C106.416 134.24 105.924 123.664 105.486 114.88L109.908 107.1Z" fill="black"/>
<path d="M111.901 98.1533C111.901 98.1533 106.783 132.695 103.975 145.652C100.896 159.823 89.3041 207.027 89.3041 207.027H81.0419C81.0419 207.027 88.6861 160.965 90.4381 146.938C92.3462 131.709 96.3363 98.1714 96.3363 98.1714L111.901 98.1533Z" fill="#37474F"/>
<path opacity="0.6" d="M111.901 98.1533C111.901 98.1533 106.783 132.695 103.975 145.652C100.896 159.823 89.3041 207.027 89.3041 207.027H81.0419C81.0419 207.027 88.6861 160.965 90.4381 146.938C92.3462 131.709 96.3363 98.1714 96.3363 98.1714L111.901 98.1533Z" fill="black"/>
<path d="M80.6939 204.754C80.6579 204.754 80.4059 207.075 80.4059 207.075H90.0002L90.6782 204.412L80.6939 204.754Z" fill="#37474F"/>
<path opacity="0.1" d="M80.6939 204.754C80.6579 204.754 80.4059 207.075 80.4059 207.075H90.0002L90.6782 204.412L80.6939 204.754Z" fill="black"/>
<path d="M84.3718 202.121C84.3623 202.119 84.3532 202.116 84.345 202.111C84.3368 202.106 84.3297 202.099 84.3241 202.091C84.3185 202.084 84.3145 202.075 84.3124 202.065C84.3103 202.056 84.3101 202.046 84.3118 202.037C84.3778 201.616 91.278 160.034 92.8561 147.431C94.5661 133.753 98.1722 103.426 98.2082 103.12C98.2089 103.11 98.2117 103.1 98.2164 103.091C98.2211 103.082 98.2276 103.074 98.2356 103.068C98.2435 103.062 98.2526 103.057 98.2624 103.055C98.2721 103.052 98.2823 103.052 98.2922 103.054C98.3025 103.054 98.3125 103.057 98.3216 103.062C98.3308 103.066 98.339 103.073 98.3457 103.081C98.3524 103.088 98.3575 103.098 98.3606 103.107C98.3638 103.117 98.365 103.127 98.3642 103.138C98.3282 103.444 94.7161 133.801 93.0061 147.45C91.428 160.076 84.5338 201.64 84.4618 202.061C84.4575 202.08 84.4457 202.098 84.4289 202.109C84.4121 202.12 84.3917 202.124 84.3718 202.121Z" fill="#37474F"/>
<path opacity="0.2" d="M84.3718 202.121C84.3623 202.119 84.3532 202.116 84.345 202.111C84.3368 202.106 84.3297 202.099 84.3241 202.091C84.3185 202.084 84.3145 202.075 84.3124 202.065C84.3103 202.056 84.3101 202.046 84.3118 202.037C84.3778 201.616 91.278 160.034 92.8561 147.431C94.5661 133.753 98.1722 103.426 98.2082 103.12C98.2089 103.11 98.2117 103.1 98.2164 103.091C98.2211 103.082 98.2276 103.074 98.2356 103.068C98.2435 103.062 98.2526 103.057 98.2624 103.055C98.2721 103.052 98.2823 103.052 98.2922 103.054C98.3025 103.054 98.3125 103.057 98.3216 103.062C98.3308 103.066 98.339 103.073 98.3457 103.081C98.3524 103.088 98.3575 103.098 98.3606 103.107C98.3638 103.117 98.365 103.127 98.3642 103.138C98.3282 103.444 94.7161 133.801 93.0061 147.45C91.428 160.076 84.5338 201.64 84.4618 202.061C84.4575 202.08 84.4457 202.098 84.4289 202.109C84.4121 202.12 84.3917 202.124 84.3718 202.121Z" fill="black"/>
<path d="M149.154 82.0881C144.817 84.9879 140.275 87.5681 135.564 89.8081C133.224 90.9624 130.842 92.0387 128.478 93.1329C126.114 94.2272 123.744 95.3335 121.35 96.3917C116.59 98.5442 111.806 100.649 106.998 102.705C102.198 104.767 97.3442 106.763 92.4422 108.651C91.6243 108.974 90.7166 108.986 89.8905 108.685C89.0643 108.384 88.3768 107.79 87.9575 107.015C87.5383 106.241 87.4163 105.339 87.6147 104.481C87.813 103.623 88.3179 102.867 89.0342 102.356C93.2882 99.2657 97.6022 96.2895 101.946 93.3734C106.29 90.4574 110.658 87.5835 115.056 84.7576C117.24 83.3266 119.454 81.9438 121.656 80.5489C123.858 79.154 126.066 77.7471 128.304 76.4123C132.747 73.6725 137.383 71.2612 142.176 69.1974C143.855 68.5079 145.728 68.4642 147.436 69.0745C149.145 69.6849 150.568 70.9063 151.433 72.5041C152.298 74.102 152.543 75.9637 152.121 77.7315C151.699 79.4994 150.64 81.0487 149.148 82.0821L149.154 82.0881Z" fill="#37474F"/>
<path opacity="0.3" d="M149.154 82.0881C144.817 84.9879 140.275 87.5681 135.564 89.8081C133.224 90.9624 130.842 92.0387 128.478 93.1329C126.114 94.2272 123.744 95.3335 121.35 96.3917C116.59 98.5442 111.806 100.649 106.998 102.705C102.198 104.767 97.3442 106.763 92.4422 108.651C91.6243 108.974 90.7166 108.986 89.8905 108.685C89.0643 108.384 88.3768 107.79 87.9575 107.015C87.5383 106.241 87.4163 105.339 87.6147 104.481C87.813 103.623 88.3179 102.867 89.0342 102.356C93.2882 99.2657 97.6022 96.2895 101.946 93.3734C106.29 90.4574 110.658 87.5835 115.056 84.7576C117.24 83.3266 119.454 81.9438 121.656 80.5489C123.858 79.154 126.066 77.7471 128.304 76.4123C132.747 73.6725 137.383 71.2612 142.176 69.1974C143.855 68.5079 145.728 68.4642 147.436 69.0745C149.145 69.6849 150.568 70.9063 151.433 72.5041C152.298 74.102 152.543 75.9637 152.121 77.7315C151.699 79.4994 150.64 81.0487 149.148 82.0821L149.154 82.0881Z" fill="black"/>
<path d="M166.938 57.8939C165.138 58.8619 163.686 59.6255 161.352 59.6255V59.8901C163.752 59.8901 165.216 59.1145 167.064 58.1284L166.938 57.8939Z" fill="#37474F"/>
<path opacity="0.3" d="M166.938 57.8939C165.138 58.8619 163.686 59.6255 161.352 59.6255V59.8901C163.752 59.8901 165.216 59.1145 167.064 58.1284L166.938 57.8939Z" fill="black"/>
<path d="M157.992 59.3189V59.5835C158.3 59.5827 158.607 59.6088 158.91 59.6617V59.4031C158.607 59.3483 158.3 59.3201 157.992 59.3189Z" fill="#37474F"/>
<path opacity="0.3" d="M157.992 59.3189V59.5835C158.3 59.5827 158.607 59.6088 158.91 59.6617V59.4031C158.607 59.3483 158.3 59.3201 157.992 59.3189Z" fill="black"/>
<path d="M166.8 71.9029C164.178 74.3078 161.442 75.5765 158.886 75.5765V75.841C161.508 75.841 164.286 74.5423 166.98 72.0953L166.8 71.9029Z" fill="#37474F"/>
<path opacity="0.3" d="M166.8 71.9029C164.178 74.3078 161.442 75.5765 158.886 75.5765V75.841C161.508 75.841 164.286 74.5423 166.98 72.0953L166.8 71.9029Z" fill="black"/>
<path d="M169.11 57.948C166.026 59.5774 163.53 61.1226 158.022 60.1666C152.945 59.2828 148.811 67.2012 152.849 72.0893C156.588 76.6167 161.964 75.0955 166.44 71.0191C168.606 68.9185 170.327 66.401 171.498 63.6178C170.79 63.9845 170.058 64.3573 169.254 64.7C167.052 65.656 167.292 62.0485 169.11 57.948Z" fill="#37474F"/>
<path opacity="0.5" d="M169.11 57.948C166.026 59.5774 163.53 61.1226 158.022 60.1666C152.945 59.2828 148.811 67.2012 152.849 72.0893C156.588 76.6167 161.964 75.0955 166.44 71.0191C168.606 68.9185 170.327 66.401 171.498 63.6178C170.79 63.9845 170.058 64.3573 169.254 64.7C167.052 65.656 167.292 62.0485 169.11 57.948Z" fill="#FAFAFA"/>
<path d="M171.306 56.8718C170.52 57.2145 169.794 57.5813 169.11 57.9481C167.31 62.0485 167.052 65.656 169.254 64.7C170.058 64.3573 170.79 63.9846 171.498 63.6178C173.286 59.5233 173.502 55.9158 171.306 56.8718Z" fill="#37474F"/>
<path opacity="0.3" d="M171.306 56.8718C170.52 57.2145 169.794 57.5813 169.11 57.9481C167.31 62.0485 167.052 65.656 169.254 64.7C170.058 64.3573 170.79 63.9846 171.498 63.6178C173.286 59.5233 173.502 55.9158 171.306 56.8718Z" fill="black"/>
<path d="M166.716 61.8862C166.5 62.6197 166.008 63.0887 165.612 62.9985C165.216 62.9083 165.066 62.1988 165.282 61.4653C165.498 60.7318 165.99 60.2628 166.386 60.353C166.782 60.4432 166.932 61.1587 166.716 61.8862Z" fill="#37474F"/>
<path opacity="0.3" d="M166.716 61.8862C166.5 62.6197 166.008 63.0887 165.612 62.9985C165.216 62.9083 165.066 62.1988 165.282 61.4653C165.498 60.7318 165.99 60.2628 166.386 60.353C166.782 60.4432 166.932 61.1587 166.716 61.8862Z" fill="black"/>
<path d="M110.4 42.5382C110.4 42.899 110.592 43.1936 110.832 43.1936C111.073 43.1936 111.259 42.899 111.259 42.5382C111.259 42.1775 111.067 41.8769 110.832 41.8769C110.598 41.8769 110.4 42.1715 110.4 42.5382Z" fill="#263238"/>
<path d="M114.51 42.5382C114.51 42.899 114.702 43.1936 114.942 43.1936C115.183 43.1936 115.375 42.899 115.375 42.5382C115.375 42.1775 115.183 41.8769 114.942 41.8769C114.702 41.8769 114.51 42.1715 114.51 42.5382Z" fill="#263238"/>
<path d="M113.201 42.7185C113.635 43.8322 114.221 44.8803 114.941 45.833C114.693 46.0125 114.409 46.1352 114.108 46.1923C113.807 46.2495 113.498 46.2397 113.201 46.1637V42.7185Z" fill="#DF5753"/>
<path d="M112.145 47.1678C112.173 47.1663 112.199 47.1542 112.218 47.1341C112.237 47.1139 112.248 47.0873 112.247 47.0596C112.246 47.033 112.235 47.0078 112.216 46.9889C112.197 46.97 112.172 46.9588 112.145 46.9574C111.692 46.9687 111.243 46.8722 110.834 46.6757C110.425 46.4792 110.068 46.1883 109.793 45.827C109.786 45.8152 109.775 45.805 109.764 45.7971C109.752 45.7891 109.739 45.7836 109.725 45.7808C109.711 45.778 109.696 45.778 109.682 45.7808C109.668 45.7836 109.655 45.7891 109.643 45.797C109.621 45.8128 109.606 45.8364 109.6 45.8632C109.595 45.89 109.599 45.9179 109.613 45.9413C109.906 46.3344 110.289 46.6512 110.73 46.8647C111.171 47.0782 111.656 47.1821 112.145 47.1678Z" fill="#263238"/>
<path d="M109.158 41.2092C109.191 41.2092 109.224 41.2017 109.254 41.1871C109.284 41.1725 109.311 41.1513 109.332 41.1251C109.486 40.9049 109.691 40.7251 109.929 40.6006C110.167 40.4761 110.431 40.4106 110.7 40.4096C110.756 40.4129 110.811 40.394 110.854 40.3569C110.897 40.3198 110.923 40.2675 110.928 40.2112C110.931 40.1547 110.912 40.0992 110.875 40.0565C110.838 40.0138 110.786 39.9873 110.73 39.9827C110.39 39.9774 110.054 40.0552 109.751 40.2092C109.447 40.3631 109.186 40.5888 108.99 40.8665C108.967 40.8983 108.953 40.9358 108.95 40.9749C108.946 41.0139 108.954 41.0532 108.971 41.0883C108.988 41.1235 109.015 41.1534 109.048 41.1747C109.08 41.1959 109.118 41.2079 109.158 41.2092Z" fill="#263238"/>
<path d="M116.358 41.0771C116.387 41.0831 116.418 41.0831 116.448 41.0771C116.496 41.0493 116.532 41.0036 116.548 40.9498C116.564 40.896 116.558 40.8381 116.532 40.7885C116.373 40.4875 116.144 40.2296 115.864 40.0369C115.584 39.8442 115.261 39.7225 114.924 39.6822C114.896 39.6798 114.867 39.683 114.841 39.6917C114.814 39.7004 114.789 39.7145 114.768 39.733C114.746 39.7515 114.729 39.7741 114.717 39.7995C114.704 39.8248 114.697 39.8524 114.696 39.8806C114.692 39.9371 114.711 39.9926 114.748 40.0353C114.785 40.078 114.837 40.1045 114.894 40.1091C115.16 40.1455 115.414 40.2452 115.635 40.4C115.855 40.5548 116.035 40.7602 116.16 40.9989C116.183 41.028 116.214 41.0505 116.248 41.0642C116.283 41.0779 116.321 41.0823 116.358 41.0771Z" fill="#263238"/>
<path d="M93.6298 61.9284L99.066 65.5779C99.066 65.5779 91.2658 79.4847 91.9138 81.7154C92.8078 84.7216 94.0499 91.3834 95.7419 94.7504C95.5199 95.4779 94.3979 97.1553 93.7678 97.4259C89.4717 94.1371 85.1036 83.8438 85.2656 80.9698C85.6436 74.4042 93.6298 61.9284 93.6298 61.9284Z" fill="#E58A7B"/>
<path d="M94.9197 58.8558C90.6535 59.4571 85.7694 74.2958 85.7694 74.2958L94.7277 79.3643C94.7277 79.3643 98.6758 72.3177 100.626 67.0869C102.666 61.6035 99.4978 58.1884 94.9197 58.8558Z" fill="#37474F"/>
<path d="M94.4996 77.9154C94.4475 77.9156 94.396 77.9033 94.3496 77.8793L85.6734 72.9671C85.6381 72.9472 85.6072 72.9204 85.5824 72.8884C85.5575 72.8563 85.5393 72.8197 85.5287 72.7805C85.5181 72.7414 85.5153 72.7005 85.5206 72.6603C85.5259 72.6201 85.5391 72.5813 85.5594 72.5463C85.6007 72.4761 85.6678 72.425 85.7462 72.4036C85.8247 72.3823 85.9083 72.3925 85.9794 72.432L94.6496 77.3382C94.7206 77.3786 94.773 77.4454 94.7954 77.5241C94.8178 77.6028 94.8086 77.6871 94.7696 77.7591C94.7423 77.8066 94.7029 77.846 94.6555 77.8734C94.6081 77.9009 94.5544 77.9153 94.4996 77.9154Z" fill="#FAFAFA"/>
<path d="M87.9116 213.388C88.2188 213.411 88.525 213.33 88.7816 213.159C88.861 213.09 88.9225 213.002 88.9612 212.904C88.9998 212.806 89.0143 212.699 89.0036 212.594C89.0032 212.531 88.9857 212.469 88.953 212.415C88.9202 212.361 88.8734 212.317 88.8176 212.288C88.3256 212.035 86.8675 212.931 86.6995 213.033C86.6801 213.043 86.6644 213.059 86.6547 213.079C86.6451 213.099 86.6421 213.121 86.6462 213.143C86.6502 213.164 86.6611 213.184 86.6772 213.199C86.6933 213.214 86.7137 213.223 86.7355 213.226C87.12 213.325 87.5146 213.379 87.9116 213.388ZM88.5836 212.456C88.629 212.446 88.6761 212.446 88.7216 212.456C88.744 212.468 88.7623 212.486 88.7741 212.509C88.7858 212.531 88.7905 212.557 88.7876 212.582C88.7972 212.654 88.7892 212.727 88.764 212.796C88.7389 212.864 88.6976 212.925 88.6436 212.973C88.1388 213.202 87.5661 213.23 87.0415 213.051C87.5124 212.755 88.036 212.553 88.5836 212.456Z" fill="#37474F"/>
<path d="M86.7598 213.232H86.8078C87.2758 212.973 88.1818 211.987 88.0858 211.482C88.0705 211.403 88.0279 211.331 87.9655 211.279C87.9031 211.228 87.8247 211.199 87.7438 211.2C87.6624 211.19 87.5799 211.198 87.5015 211.221C87.4231 211.245 87.3503 211.285 87.2878 211.338C86.7658 211.765 86.6878 213.069 86.6518 213.142C86.6513 213.161 86.6554 213.181 86.6637 213.198C86.6721 213.216 86.6844 213.232 86.6998 213.244C86.7205 213.246 86.7415 213.242 86.7598 213.232ZM87.6718 211.428H87.7198C87.8578 211.428 87.8698 211.512 87.8758 211.536C87.9298 211.837 87.3538 212.582 86.8918 212.937C86.9257 212.422 87.1115 211.928 87.4258 211.518C87.4899 211.449 87.5777 211.406 87.6718 211.398V211.428Z" fill="#37474F"/>
<path d="M115.032 213.388C115.416 213.424 115.802 213.326 116.124 213.112C116.198 213.048 116.255 212.966 116.29 212.875C116.326 212.784 116.339 212.686 116.328 212.588C116.324 212.53 116.306 212.473 116.274 212.424C116.243 212.374 116.199 212.334 116.148 212.306C115.602 211.999 113.79 212.907 113.586 213.027C113.565 213.036 113.548 213.052 113.537 213.071C113.527 213.091 113.522 213.113 113.526 213.136C113.528 213.158 113.537 213.179 113.552 213.195C113.568 213.211 113.588 213.222 113.61 213.226C114.077 213.325 114.554 213.379 115.032 213.388ZM115.848 212.456C115.916 212.453 115.983 212.465 116.046 212.492C116.066 212.504 116.082 212.52 116.094 212.541C116.105 212.561 116.112 212.583 116.112 212.606C116.121 212.67 116.114 212.734 116.092 212.794C116.07 212.854 116.033 212.907 115.986 212.949C115.704 213.202 114.966 213.238 113.97 213.075C114.556 212.763 115.191 212.554 115.848 212.456Z" fill="#37474F"/>
<path d="M113.633 213.232H113.676C114.222 212.985 115.302 212.029 115.218 211.5C115.218 211.38 115.11 211.229 114.822 211.199C114.714 211.187 114.605 211.197 114.502 211.229C114.399 211.262 114.303 211.315 114.222 211.386C113.621 211.855 113.525 213.075 113.519 213.123C113.516 213.142 113.519 213.161 113.526 213.178C113.534 213.195 113.546 213.209 113.561 213.22C113.572 213.227 113.584 213.231 113.596 213.233C113.609 213.235 113.621 213.235 113.633 213.232ZM114.732 211.428H114.798C114.99 211.428 115.002 211.524 115.008 211.554C115.056 211.861 114.324 212.624 113.765 212.961C113.821 212.446 114.03 211.96 114.366 211.566C114.465 211.469 114.594 211.41 114.732 211.398V211.428Z" fill="#37474F"/>
<path d="M95.7418 94.7263L100.032 94.3957L97.7998 99.1515C97.7998 99.1515 94.0377 99.3199 93.4077 96.4399L95.7418 94.7263Z" fill="#E58A7B"/>
<path d="M103.518 96.5601L101.268 100.769L97.7758 99.1515L100.032 94.3957L103.518 96.5601Z" fill="#E58A7B"/>
</svg>
